<svg width="106" height="110" viewBox="0 0 106 110" fill="none" xmlns="http://www.w3.org/2000/svg">
<path d="M52.424 108.462C81.0978 108.462 104.343 85.2279 104.343 56.5669C104.343 27.9058 81.0978 4.67141 52.424 4.67141C23.7498 4.67141 0.504894 27.9058 0.504894 56.5669C0.504894 85.2279 23.7498 108.462 52.424 108.462Z" fill="#FFE900"/>
<path d="M52.4233 108.603C42.0831 108.639 31.9647 105.615 23.3497 99.9147C14.7347 94.2141 8.0105 86.0938 4.02869 76.5813C0.0468969 67.069 -1.01343 56.5929 0.981995 46.4796C2.97744 36.3662 7.93885 27.0705 15.238 19.7697C22.5371 12.469 31.8456 7.49142 41.9846 5.4675C52.1239 3.44358 62.6375 4.4643 72.1941 8.40041C81.7506 12.3365 89.9207 19.011 95.6692 27.5785C101.418 36.146 104.486 46.2214 104.486 56.5283C104.487 70.3084 99.0071 83.527 89.2485 93.2876C79.4902 103.049 66.2479 108.556 52.4233 108.603ZM52.4233 8.6912C42.9141 8.66277 33.61 11.4478 25.6896 16.6936C17.7692 21.9394 11.5886 29.4101 7.93057 38.1594C4.27251 46.9088 3.3015 56.5435 5.14052 65.8437C6.97954 75.1435 11.5458 83.6901 18.2612 90.4016C24.9765 97.1131 33.5389 101.687 42.8641 103.544C52.1892 105.402 61.8576 104.46 70.6446 100.836C79.432 97.213 86.9429 91.072 92.2266 83.191C97.5102 75.3097 100.329 66.0433 100.325 56.5643C100.325 43.8894 95.2826 31.7316 86.3028 22.7573C77.323 13.7829 65.1391 8.72446 52.4233 8.6912Z" fill="#C4B306"/>
<path d="M52.4237 109.468C39.8968 109.497 27.7668 105.09 18.1977 97.0321C8.62868 88.9738 2.24311 77.7891 0.180259 65.4732C0.165309 65.3361 0.177742 65.1978 0.216844 65.0655C0.255946 64.9336 0.320936 64.8106 0.408053 64.7036C0.495175 64.5969 0.602693 64.5081 0.724389 64.4431C0.846082 64.3777 0.979542 64.3372 1.11703 64.3238C1.25103 64.2981 1.38886 64.3 1.52219 64.329C1.65551 64.358 1.78156 64.4133 1.89271 64.4921C2.00386 64.5713 2.09779 64.6716 2.16883 64.7879C2.23987 64.9039 2.28654 65.0332 2.30602 65.1677C4.40203 77.2306 10.7948 88.1343 20.3096 95.8752C29.8245 103.616 41.8225 107.675 54.0988 107.305C66.3751 106.935 78.1048 102.162 87.1334 93.8625C96.1621 85.5627 101.883 74.2944 103.244 62.1275C104.605 49.9606 101.516 37.7127 94.5444 27.634C87.5722 17.5555 77.1854 10.3234 65.2924 7.26655C53.3997 4.20971 40.7994 5.5335 29.8075 10.9947C18.8153 16.4558 10.1695 25.6875 5.45865 36.9935C5.34076 37.2288 5.13787 37.4113 4.89073 37.5035C4.64355 37.596 4.37045 37.5919 4.12633 37.4916C3.88217 37.3916 3.68509 37.2032 3.57466 36.9642C3.46423 36.7252 3.44865 36.4534 3.53104 36.2034C7.23932 27.3913 13.2761 19.7468 20.9984 14.084C28.7206 8.42133 37.8392 4.95243 47.3827 4.0469C56.9266 3.14133 66.538 4.83299 75.1934 8.94171C83.8489 13.0504 91.224 19.4223 96.5338 27.3788C101.844 35.3352 104.889 44.578 105.345 54.1235C105.801 63.6686 103.652 73.1583 99.1256 81.5819C94.5992 90.0058 87.8653 97.048 79.6408 101.959C71.4167 106.869 62.0104 109.464 52.4237 109.468Z" fill="#3E3126"/>
<path d="M52.4233 98.5866C44.0803 98.6115 35.9178 96.168 28.9689 91.5662C22.02 86.9641 16.5972 80.4105 13.3873 72.7347C10.1773 65.0589 9.32452 56.6063 10.9368 48.4474C12.5491 40.288 16.554 32.7892 22.4444 26.9001C28.3348 21.011 35.8459 16.9966 44.0266 15.365C52.2071 13.7335 60.6895 14.5583 68.3998 17.7349C76.1098 20.9115 82.7009 26.2971 87.3389 33.2098C91.9764 40.1227 94.4519 48.2515 94.4519 56.5673C94.4519 67.6899 90.028 78.3584 82.1495 86.235C74.2714 94.1115 63.5815 98.5531 52.4233 98.5866ZM52.4233 18.7142C44.9012 18.6823 37.5387 20.8766 31.2692 25.0192C24.9996 29.1618 20.1046 35.0663 17.2046 41.9845C14.3046 48.9026 13.5301 56.5234 14.9792 63.8808C16.4283 71.2382 20.0358 78.0009 25.3445 83.3129C30.6533 88.6249 37.4247 92.2463 44.8002 93.7187C52.1757 95.191 59.8238 94.4482 66.7751 91.5837C73.7267 88.7193 79.6688 83.8629 83.8489 77.629C88.0286 71.3954 90.258 64.0651 90.2543 56.5673C90.2547 46.5528 86.2733 36.9466 79.1826 29.8518C72.0919 22.7571 62.4697 18.7522 52.4233 18.7142Z" fill="#F8A547"/>
<path d="M23.4015 86.8039C23.2918 86.8061 23.1828 86.7868 23.0808 86.7467C22.9787 86.7065 22.8857 86.6467 22.807 86.5705C17.7718 81.5964 14.0698 75.4423 12.0401 68.6717C10.0105 61.9015 9.71818 54.7315 11.19 47.8193C12.6619 40.9072 15.8509 34.4739 20.4646 29.1091C25.0783 23.7443 30.9692 19.6196 37.5973 17.1132C37.7982 17.0547 38.0141 17.0742 38.2012 17.1679C38.3884 17.2615 38.5331 17.4224 38.6061 17.618C38.6792 17.8137 38.6751 18.0296 38.5949 18.2225C38.5148 18.4153 38.3642 18.5708 38.1737 18.6575C31.8017 21.0633 26.1381 25.0261 21.7028 30.1821C17.2675 35.338 14.2026 41.5218 12.7895 48.166C11.3763 54.8103 11.6603 61.702 13.6152 68.2083C15.5701 74.7147 19.1334 80.6272 23.978 85.4033C24.1331 85.5582 24.2202 85.7682 24.2202 85.9867C24.2202 86.2056 24.1331 86.4156 23.978 86.5705C23.9021 86.6452 23.812 86.7043 23.7131 86.7444C23.6142 86.7846 23.5083 86.8046 23.4015 86.8039Z" fill="#3E3126"/>
<path d="M52.4233 98.6928C44.754 98.7069 37.2278 96.6262 30.6612 92.6774C30.4726 92.5652 30.3363 92.3831 30.2823 92.1709C30.2282 91.959 30.2608 91.7342 30.3729 91.5458C30.4887 91.3566 30.6746 91.2206 30.8903 91.1667C31.1061 91.1129 31.3343 91.1459 31.5259 91.2585C36.8889 94.4593 42.9212 96.3821 49.1525 96.8771C55.3835 97.3717 61.6451 96.4256 67.4488 94.1115C73.2529 91.7978 78.4422 88.1785 82.6122 83.537C86.7822 78.8954 89.82 73.3564 91.4895 67.3518C93.1586 61.3475 93.414 55.0399 92.2359 48.9208C91.0574 42.8017 88.4767 37.0367 84.6955 32.0752C80.9144 27.1137 76.0345 23.0898 70.4366 20.3172C64.8387 17.5446 58.674 16.0983 52.4233 16.091C50.2568 16.0935 48.0945 16.2676 45.9559 16.6118C45.8482 16.6297 45.7378 16.6263 45.6316 16.6017C45.5253 16.5771 45.425 16.5318 45.3363 16.4684C45.2476 16.405 45.1723 16.3247 45.1145 16.2322C45.0571 16.1397 45.0187 16.0368 45.0011 15.9294C44.9829 15.8221 44.9866 15.7123 45.0112 15.6063C45.0358 15.5003 45.0813 15.4002 45.1451 15.3118C45.2084 15.2233 45.289 15.1483 45.3818 15.0909C45.4746 15.0336 45.5779 14.9951 45.6856 14.9777C47.9148 14.6334 50.1673 14.4594 52.4233 14.4569C63.4834 14.6846 74.0134 19.2239 81.7547 27.1011C89.496 34.9783 93.8315 45.5658 93.8315 56.5929C93.8315 67.6197 89.496 78.2072 81.7547 86.0844C74.0134 93.9617 63.4834 98.5011 52.4233 98.7285V98.6928Z" fill="#3E3126"/>
<path d="M52.4233 98.5866C44.0803 98.6115 35.9178 96.168 28.9689 91.5662C22.02 86.9641 16.5972 80.4105 13.3873 72.7347C10.1773 65.0589 9.32452 56.6063 10.9368 48.4474C12.5491 40.288 16.554 32.7892 22.4444 26.9001C28.3348 21.011 35.8459 16.9966 44.0266 15.365C52.2071 13.7335 60.6895 14.5583 68.3998 17.7349C76.1098 20.9115 82.7009 26.2971 87.3389 33.2098C91.9764 40.1227 94.4519 48.2515 94.4519 56.5673C94.4519 67.6899 90.028 78.3584 82.1495 86.235C74.2714 94.1115 63.5815 98.5531 52.4233 98.5866ZM52.4233 18.7142C44.9012 18.6823 37.5387 20.8766 31.2692 25.0192C24.9996 29.1618 20.1046 35.0663 17.2046 41.9845C14.3046 48.9026 13.5301 56.5234 14.9792 63.8808C16.4283 71.2382 20.0358 78.0009 25.3445 83.3129C30.6533 88.6249 37.4247 92.2463 44.8002 93.7187C52.1757 95.191 59.8238 94.4482 66.7751 91.5837C73.7267 88.7193 79.6688 83.8629 83.8489 77.629C88.0286 71.3954 90.258 64.0651 90.2543 56.5673C90.2547 46.5528 86.2733 36.9466 79.1826 29.8518C72.0919 22.7571 62.4697 18.7522 52.4233 18.7142Z" fill="#C4B306"/>
<path d="M23.4015 86.8039C23.2918 86.8061 23.1828 86.7868 23.0808 86.7467C22.9787 86.7065 22.8857 86.6467 22.807 86.5705C17.7718 81.5964 14.0698 75.4423 12.0401 68.6717C10.0105 61.9015 9.71818 54.7315 11.19 47.8193C12.6619 40.9072 15.8509 34.4739 20.4646 29.1091C25.0783 23.7443 30.9692 19.6196 37.5973 17.1132C37.7982 17.0547 38.0141 17.0742 38.2012 17.1679C38.3884 17.2615 38.5331 17.4224 38.6061 17.618C38.6792 17.8137 38.6751 18.0296 38.5949 18.2225C38.5148 18.4153 38.3642 18.5708 38.1737 18.6575C31.8017 21.0633 26.1381 25.0261 21.7028 30.1821C17.2675 35.338 14.2026 41.5218 12.7895 48.166C11.3763 54.8103 11.6603 61.702 13.6152 68.2083C15.5701 74.7147 19.1334 80.6272 23.978 85.4033C24.1331 85.5582 24.2202 85.7682 24.2202 85.9867C24.2202 86.2056 24.1331 86.4156 23.978 86.5705C23.9021 86.6452 23.812 86.7043 23.7131 86.7444C23.6142 86.7846 23.5083 86.8046 23.4015 86.8039Z" fill="#3E3126"/>
<path d="M52.4233 98.6928C44.754 98.7069 37.2278 96.6262 30.6612 92.6774C30.4726 92.5652 30.3363 92.3831 30.2823 92.1709C30.2282 91.959 30.2608 91.7342 30.3729 91.5458C30.4887 91.3566 30.6746 91.2206 30.8903 91.1667C31.1061 91.1129 31.3343 91.1459 31.5259 91.2585C36.8889 94.4593 42.9212 96.3821 49.1525 96.8771C55.3835 97.3717 61.6451 96.4256 67.4488 94.1115C73.2529 91.7978 78.4422 88.1785 82.6122 83.537C86.7822 78.8954 89.82 73.3564 91.4895 67.3518C93.1586 61.3475 93.414 55.0399 92.2359 48.9208C91.0574 42.8017 88.4767 37.0367 84.6955 32.0752C80.9144 27.1137 76.0345 23.0898 70.4366 20.3172C64.8387 17.5446 58.674 16.0983 52.4233 16.091C50.2568 16.0935 48.0945 16.2676 45.9559 16.6118C45.8482 16.6297 45.7378 16.6263 45.6316 16.6017C45.5253 16.5771 45.425 16.5318 45.3363 16.4684C45.2476 16.405 45.1723 16.3247 45.1145 16.2322C45.0571 16.1397 45.0187 16.0368 45.0011 15.9294C44.9829 15.8221 44.9866 15.7123 45.0112 15.6063C45.0358 15.5003 45.0813 15.4002 45.1451 15.3118C45.2084 15.2233 45.289 15.1483 45.3818 15.0909C45.4746 15.0336 45.5779 14.9951 45.6856 14.9777C47.9148 14.6334 50.1673 14.4594 52.4233 14.4569C63.4834 14.6846 74.0134 19.2239 81.7547 27.1011C89.496 34.9783 93.8315 45.5658 93.8315 56.5929C93.8315 67.6197 89.496 78.2072 81.7547 86.0844C74.0134 93.9617 63.4834 98.5011 52.4233 98.7285V98.6928Z" fill="#3E3126"/>
<path d="M61.4132 104.978C61.7614 104.978 62.0436 104.697 62.0436 104.35C62.0436 104.003 61.7614 103.722 61.4132 103.722C61.0649 103.722 60.7827 104.003 60.7827 104.35C60.7827 104.697 61.0649 104.978 61.4132 104.978Z" fill="#F8A547"/>
<path d="M63.5207 98.2603C63.64 98.2603 63.737 98.164 63.737 98.0447C63.737 97.9258 63.64 97.8296 63.5207 97.8296C63.4014 97.8296 63.3045 97.9258 63.3045 98.0447C63.3045 98.164 63.4014 98.2603 63.5207 98.2603Z" fill="#F8A547"/>
<path d="M65.0698 60.9777C64.4983 59.7127 63.6915 58.567 62.6916 57.6019C61.7118 56.6799 60.6157 55.8891 59.4309 55.2495C58.3034 54.6794 57.1354 54.1934 55.936 53.795C54.3508 53.1844 52.8554 52.5738 51.4685 51.9993C50.2154 51.4857 49.0627 50.7566 48.0635 49.8443C47.6258 49.4303 47.2821 48.9275 47.0554 48.3701C46.8284 47.8126 46.724 47.2132 46.7486 46.6123C46.7228 45.7367 46.9279 44.8701 47.3428 44.0983C47.7593 43.3851 48.3894 42.8199 49.1443 42.4821C50.1804 42.0696 51.2903 41.8737 52.405 41.9076C53.5809 41.8775 54.7415 42.1762 55.756 42.7694C56.7134 43.348 57.5511 44.1038 58.224 44.9961C58.9104 45.9541 59.5133 46.9694 60.0255 48.0308L65.4661 44.8166C64.7693 43.3502 63.8589 41.9945 62.7639 40.7942C61.5459 39.4742 60.084 38.4013 58.4582 37.6335C57.4154 37.1259 56.3055 36.769 55.1613 36.5742V30.2175H49.7569L49.8833 36.5203C48.4863 36.7129 47.1262 37.1125 45.8478 37.7056C44.0807 38.5031 42.5484 39.7399 41.3982 41.297C40.3319 42.7567 39.7637 44.5189 39.7768 46.3247C39.7265 47.9936 40.0784 49.6503 40.8035 51.1554C41.4523 52.43 42.3388 53.5694 43.4159 54.5133C44.4345 55.416 45.5667 56.1827 46.7844 56.7936C47.8435 57.3176 48.9322 57.7795 50.0451 58.1764C51.5583 58.7509 52.9818 59.3437 54.3329 59.9721C55.5673 60.5388 56.6805 61.3374 57.6115 62.3245C58.4843 63.3137 58.9421 64.5995 58.8906 65.9158C58.9186 66.9296 58.696 67.9348 58.2419 68.8427C57.796 69.6409 57.1 70.2716 56.2604 70.6384C55.1926 71.0977 54.0354 71.3121 52.8737 71.2668C51.4443 71.2954 50.0309 70.9617 48.7663 70.2972C47.505 69.6015 46.3966 68.6613 45.5056 67.532C44.4326 66.1678 43.5199 64.6857 42.7851 63.1145L37.6871 66.5442C38.5073 68.5316 39.6787 70.3563 41.1458 71.9312C42.608 73.5025 44.3562 74.7823 46.2982 75.7025C47.4469 76.2283 48.6574 76.6085 49.9011 76.8337L49.7569 82.9208H55.1613L55.0536 76.9953C56.7156 76.8567 58.3422 76.4379 59.8633 75.7563C61.7357 74.8975 63.3093 73.5039 64.3849 71.7517C65.4698 69.9219 66.019 67.8256 65.9705 65.7003C66.0153 64.0796 65.7081 62.4686 65.0698 60.9777Z" fill="white"/>
<path d="M82.9224 45.6661C95.4287 45.6661 105.567 35.5283 105.567 23.0225C105.567 10.5168 95.4287 0.378878 82.9224 0.378878C70.4161 0.378878 60.2779 10.5168 60.2779 23.0225C60.2779 35.5283 70.4161 45.6661 82.9224 45.6661Z" fill="#FFE900"/>
<path d="M82.9231 45.7171C78.4157 45.7349 74.0045 44.419 70.2479 41.9358C66.4914 39.4523 63.5588 35.9138 61.8218 31.768C60.0844 27.6221 59.6206 23.0556 60.4889 18.6468C61.3572 14.2381 63.5189 10.1853 66.6998 7.00207C69.8807 3.81876 73.9381 1.64811 78.3576 0.765016C82.777 -0.118074 87.3601 0.326138 91.5264 2.04139C95.6923 3.75663 99.2539 6.66575 101.76 10.4003C104.266 14.1348 105.604 18.5267 105.604 23.0196C105.604 29.0239 103.217 34.7835 98.9664 39.0375C94.7155 43.2915 88.9468 45.6933 82.9231 45.7171ZM82.9231 2.13575C78.7766 2.12153 74.7188 3.33425 71.2639 5.62035C67.8089 7.90645 65.1123 11.163 63.5155 14.9778C61.9187 18.7925 61.4933 22.9938 62.2938 27.0496C63.0938 31.1055 65.0836 34.8333 68.011 37.761C70.938 40.689 74.6711 42.685 78.7371 43.497C82.8035 44.3086 87.0197 43.8991 90.8523 42.3204C94.6849 40.7422 97.9613 38.0654 100.266 34.6295C102.572 31.1936 103.803 27.1531 103.803 23.0196C103.808 17.4918 101.611 12.1881 97.697 8.27261C93.7823 4.35713 88.4689 2.15002 82.9231 2.13575Z" fill="#C4B306"/>
<path d="M82.9228 46.1132C77.4527 46.121 72.1579 44.1889 67.986 40.6623C63.8145 37.1352 61.0373 32.2441 60.1519 26.8634C60.1344 26.8024 60.1299 26.7385 60.1389 26.6757C60.1478 26.6129 60.1702 26.5527 60.2041 26.4991C60.2384 26.4455 60.2835 26.3997 60.3364 26.3647C60.3894 26.3297 60.4494 26.3063 60.5124 26.2961C60.5751 26.2859 60.6392 26.289 60.7007 26.3054C60.7622 26.3217 60.8196 26.3509 60.8688 26.3909C60.9184 26.4309 60.9587 26.481 60.9874 26.5376C61.0157 26.5943 61.0321 26.6564 61.0347 26.7198C61.9586 31.9923 64.7611 36.7551 68.927 40.132C73.0929 43.5089 78.3423 45.273 83.7091 45.0998C89.0758 44.9262 94.1992 42.827 98.1373 39.1884C102.075 35.5495 104.562 30.6158 105.141 25.2947C105.72 19.9736 104.353 14.623 101.289 10.227C98.2264 5.83102 93.6738 2.68534 88.4692 1.3686C83.2646 0.0518547 77.7581 0.652593 72.9624 3.06031C68.1668 5.46802 64.4047 9.52081 62.368 14.4732C62.3202 14.5831 62.2315 14.6705 62.1212 14.7173C62.0104 14.7641 61.8859 14.7667 61.7733 14.7246C61.663 14.6769 61.5753 14.5888 61.5284 14.4785C61.4814 14.3682 61.4788 14.2441 61.5213 14.132C63.1397 10.2893 65.7726 6.95573 69.1399 4.48578C72.5076 2.01582 76.4838 0.501837 80.6459 0.104854C84.8078 -0.29213 88.9998 0.442731 92.7761 2.23128C96.5528 4.01981 99.7721 6.79519 102.092 10.2622C104.412 13.7292 105.746 17.7581 105.952 21.9206C106.158 26.083 105.229 30.2233 103.262 33.9011C101.295 37.5789 98.3658 40.6567 94.7845 42.8069C91.2032 44.9575 87.104 46.0998 82.9228 46.1132Z" fill="#3E3126"/>
<path d="M82.9228 41.3394C79.2818 41.3501 75.7195 40.2832 72.6873 38.2746C69.6551 36.2656 67.2892 33.4049 65.8893 30.0547C64.4893 26.7045 64.1184 23.0155 64.8237 19.4551C65.5287 15.8946 67.278 12.6228 69.8498 10.0541C72.4219 7.48529 75.7008 5.73521 79.2713 5.02545C82.8419 4.31569 86.5436 4.67817 89.9072 6.06696C93.2712 7.45578 96.1457 9.80845 98.1671 12.827C100.188 15.8455 101.265 19.3941 101.262 23.0233C101.262 27.8748 99.3311 32.5281 95.8925 35.962C92.4543 39.3958 87.79 41.3297 82.9228 41.3394ZM82.9228 6.50295C79.6423 6.49228 76.4327 7.4521 73.7003 9.2609C70.9675 11.0697 68.8349 13.6461 67.5722 16.6638C66.3094 19.6815 65.9735 23.0049 66.6069 26.2131C67.2404 29.4213 68.8144 32.3699 71.13 34.6858C73.446 37.0016 76.3988 38.5804 79.6155 39.2222C82.8318 39.864 86.1671 39.54 89.1985 38.2913C92.2303 37.0423 94.8218 34.925 96.6452 32.2071C98.4691 29.4892 99.4425 26.293 99.4425 23.0233C99.447 18.6497 97.71 14.453 94.6122 11.3554C91.5148 8.25774 87.3105 6.51246 82.9228 6.50295Z" fill="#F8A547"/>
<path d="M70.2584 36.2159C70.1633 36.2145 70.0727 36.1758 70.006 36.1082C68.2783 34.3933 66.9104 32.3525 65.9825 30.1049C65.0545 27.8573 64.5851 25.448 64.6015 23.0176C64.6101 19.282 65.7543 15.6367 67.8835 12.5624C70.0123 9.48811 73.0262 7.12924 76.5274 5.79694C76.5725 5.77981 76.6202 5.77178 76.6683 5.77342C76.7164 5.77501 76.7637 5.78616 76.8074 5.80627C76.851 5.82633 76.8901 5.85491 76.9226 5.89033C76.955 5.92574 76.98 5.96725 76.996 6.01241C77.0258 6.10304 77.0202 6.20163 76.98 6.28826C76.9397 6.37492 76.8681 6.44315 76.7798 6.47927C74.0011 7.52884 71.5316 9.25703 69.5977 11.5053C67.6635 13.7536 66.3266 16.45 65.7099 19.3472C65.0929 22.2444 65.2159 25.2495 66.0675 28.087C66.9186 30.9245 68.4714 33.5035 70.5827 35.5874C70.6498 35.6576 70.6871 35.7508 70.6871 35.8478C70.6871 35.9448 70.6498 36.038 70.5827 36.1082C70.5417 36.1515 70.4906 36.184 70.434 36.2028C70.3773 36.2216 70.3169 36.2261 70.2584 36.2159Z" fill="#3E3126"/>
<path d="M82.9231 41.4114C79.5763 41.4107 76.2932 40.4976 73.4292 38.7718C73.3878 38.7495 73.3513 38.7187 73.3218 38.6819C73.2928 38.6447 73.2719 38.6024 73.26 38.5566C73.248 38.5113 73.2458 38.4637 73.2533 38.4173C73.2607 38.3708 73.2775 38.3266 73.3032 38.2868C73.3274 38.2449 73.3595 38.2081 73.3983 38.1791C73.437 38.1497 73.4814 38.1285 73.5284 38.1166C73.5757 38.1051 73.6246 38.1029 73.6727 38.1107C73.7204 38.1181 73.7666 38.1352 73.8076 38.1612C76.1486 39.5418 78.7774 40.3664 81.4896 40.5708C84.2019 40.7752 86.925 40.3542 89.4479 39.34C91.9708 38.3259 94.2249 36.7463 96.0364 34.7235C97.8476 32.7007 99.167 30.2891 99.8925 27.6759C100.618 25.0628 100.729 22.3182 100.219 19.655C99.708 16.9919 98.5884 14.4818 96.9472 12.3196C95.3061 10.1573 93.1873 8.40089 90.7554 7.18669C88.3231 5.97246 85.6432 5.33304 82.9231 5.31799C81.9762 5.31692 81.0307 5.38897 80.0949 5.5335C80.011 5.55657 79.9219 5.54721 79.8451 5.50719C79.768 5.4672 79.7094 5.39956 79.6803 5.31799C79.6729 5.27076 79.6747 5.22249 79.6859 5.176C79.6975 5.12951 79.718 5.08573 79.7463 5.04727C79.775 5.0088 79.8108 4.9764 79.8522 4.95195C79.8932 4.92753 79.9391 4.91155 79.9868 4.90497C80.9573 4.74562 81.9396 4.66751 82.9231 4.67156C87.8157 4.67156 92.5077 6.60882 95.9674 10.0572C99.4269 13.5056 101.37 18.1826 101.37 23.0594C101.37 27.9362 99.4269 32.6132 95.9674 36.0616C92.5077 39.5099 87.8157 41.4471 82.9231 41.4471V41.4114Z" fill="#3E3126"/>
<path d="M82.9228 41.3394C79.2818 41.3501 75.7195 40.2832 72.6873 38.2746C69.6551 36.2656 67.2892 33.4049 65.8893 30.0547C64.4893 26.7045 64.1184 23.0155 64.8237 19.4551C65.5287 15.8946 67.278 12.6228 69.8498 10.0541C72.4219 7.48529 75.7008 5.73521 79.2713 5.02545C82.8419 4.31569 86.5436 4.67817 89.9072 6.06696C93.2712 7.45578 96.1457 9.80845 98.1671 12.827C100.188 15.8455 101.265 19.3941 101.262 23.0233C101.262 27.8748 99.3311 32.5281 95.8925 35.962C92.4543 39.3958 87.79 41.3297 82.9228 41.3394ZM82.9228 6.50295C79.6423 6.49228 76.4327 7.4521 73.7003 9.2609C70.9675 11.0697 68.8349 13.6461 67.5722 16.6638C66.3094 19.6815 65.9735 23.0049 66.6069 26.2131C67.2404 29.4213 68.8144 32.3699 71.13 34.6858C73.446 37.0016 76.3988 38.5804 79.6155 39.2222C82.8318 39.864 86.1671 39.54 89.1985 38.2913C92.2303 37.0423 94.8218 34.925 96.6452 32.2071C98.4691 29.4892 99.4425 26.293 99.4425 23.0233C99.447 18.6497 97.71 14.453 94.6122 11.3554C91.5148 8.25774 87.3105 6.51246 82.9228 6.50295Z" fill="#C4B306"/>
<path d="M70.2584 36.2159C70.1633 36.2145 70.0727 36.1758 70.006 36.1082C68.2783 34.3933 66.9104 32.3525 65.9825 30.1049C65.0545 27.8573 64.5851 25.448 64.6015 23.0176C64.6101 19.282 65.7543 15.6367 67.8835 12.5624C70.0123 9.48811 73.0262 7.12924 76.5274 5.79694C76.5725 5.77981 76.6202 5.77178 76.6683 5.77342C76.7164 5.77501 76.7637 5.78616 76.8074 5.80627C76.851 5.82633 76.8901 5.85491 76.9226 5.89033C76.955 5.92574 76.98 5.96725 76.996 6.01241C77.0258 6.10304 77.0202 6.20163 76.98 6.28826C76.9397 6.37492 76.8681 6.44315 76.7798 6.47927C74.0011 7.52884 71.5316 9.25703 69.5977 11.5053C67.6635 13.7536 66.3266 16.45 65.7099 19.3472C65.0929 22.2444 65.2159 25.2495 66.0675 28.087C66.9186 30.9245 68.4714 33.5035 70.5827 35.5874C70.6498 35.6576 70.6871 35.7508 70.6871 35.8478C70.6871 35.9448 70.6498 36.038 70.5827 36.1082C70.5417 36.1515 70.4906 36.184 70.434 36.2028C70.3773 36.2216 70.3169 36.2261 70.2584 36.2159Z" fill="#3E3126"/>
<path d="M82.9231 41.4114C79.5763 41.4107 76.2932 40.4976 73.4292 38.7718C73.3878 38.7495 73.3513 38.7187 73.3218 38.6819C73.2928 38.6447 73.2719 38.6024 73.26 38.5566C73.248 38.5113 73.2458 38.4637 73.2533 38.4173C73.2607 38.3708 73.2775 38.3266 73.3032 38.2868C73.3274 38.2449 73.3595 38.2081 73.3983 38.1791C73.437 38.1497 73.4814 38.1285 73.5284 38.1166C73.5757 38.1051 73.6246 38.1029 73.6727 38.1107C73.7204 38.1181 73.7666 38.1352 73.8076 38.1612C76.1486 39.5418 78.7774 40.3664 81.4896 40.5708C84.2019 40.7752 86.925 40.3542 89.4479 39.34C91.9708 38.3259 94.2249 36.7463 96.0364 34.7235C97.8476 32.7007 99.167 30.2891 99.8925 27.6759C100.618 25.0628 100.729 22.3182 100.219 19.655C99.708 16.9919 98.5884 14.4818 96.9472 12.3196C95.3061 10.1573 93.1873 8.40089 90.7554 7.18669C88.3231 5.97246 85.6432 5.33304 82.9231 5.31799C81.9762 5.31692 81.0307 5.38897 80.0949 5.5335C80.011 5.55657 79.9219 5.54721 79.8451 5.50719C79.768 5.4672 79.7094 5.39956 79.6803 5.31799C79.6729 5.27076 79.6747 5.22249 79.6859 5.176C79.6975 5.12951 79.718 5.08573 79.7463 5.04727C79.775 5.0088 79.8108 4.9764 79.8522 4.95195C79.8932 4.92753 79.9391 4.91155 79.9868 4.90497C80.9573 4.74562 81.9396 4.66751 82.9231 4.67156C87.8157 4.67156 92.5077 6.60882 95.9674 10.0572C99.4269 13.5056 101.37 18.1826 101.37 23.0594C101.37 27.9362 99.4269 32.6132 95.9674 36.0616C92.5077 39.5099 87.8157 41.4471 82.9231 41.4471V41.4114Z" fill="#3E3126"/>
<path d="M86.8501 44.1403C86.9992 44.1403 87.1204 44.0199 87.1204 43.8708C87.1204 43.7222 86.9992 43.6018 86.8501 43.6018C86.701 43.6018 86.5798 43.7222 86.5798 43.8708C86.5798 44.0199 86.701 44.1403 86.8501 44.1403Z" fill="#F8A547"/>
<path d="M88.4353 25.0714C88.1934 24.5181 87.8444 24.0178 87.4086 23.5989C86.9828 23.195 86.5041 22.8507 85.9855 22.5754C85.4949 22.3012 84.9826 22.0669 84.4539 21.8751C83.7694 21.6057 83.1211 21.3543 82.5086 21.085C81.9601 20.8611 81.4546 20.5453 81.0132 20.1512C80.8264 19.974 80.6795 19.7589 80.5833 19.5203C80.4867 19.2818 80.4431 19.0254 80.4547 18.7685C80.4465 18.3825 80.5333 18.0003 80.7071 17.6552C80.8995 17.3451 81.1824 17.1008 81.5176 16.9549C81.9702 16.7761 82.4541 16.6906 82.9407 16.7035C83.4537 16.6866 83.9603 16.8176 84.3999 17.0806C84.8171 17.3346 85.1836 17.6633 85.4811 18.0502C85.7924 18.4704 86.0694 18.9147 86.3095 19.379L88.6154 17.8886C88.3175 17.2351 87.9227 16.6298 87.4447 16.0929C86.9116 15.5125 86.2685 15.0426 85.553 14.7102C85.0836 14.5011 84.5859 14.362 84.0759 14.2973V11.5319H81.7879V14.2793C81.1657 14.3559 80.5583 14.5254 79.9864 14.7821C79.2095 15.1372 78.5391 15.6881 78.0407 16.3802C77.572 17.014 77.3252 17.7837 77.3383 18.571C77.3133 19.2975 77.468 20.019 77.7886 20.6719C78.069 21.2306 78.4541 21.7304 78.9235 22.1444C79.3675 22.5402 79.8649 22.8726 80.4006 23.132C80.8622 23.3644 81.3375 23.5683 81.8241 23.7426C82.4724 23.994 83.1028 24.2454 83.6255 24.5327C84.1676 24.7779 84.6571 25.1255 85.0665 25.5562C85.4475 25.9859 85.6477 26.5455 85.625 27.1185C85.6425 27.5613 85.5433 28.0009 85.3368 28.3934C85.1481 28.7523 84.8435 29.037 84.4722 29.2015C84.0051 29.3969 83.501 29.4888 82.9947 29.4708C82.3695 29.4815 81.751 29.3398 81.1932 29.0578C80.6418 28.7495 80.1583 28.3343 79.7702 27.8367C79.2967 27.2471 78.8974 26.6018 78.5813 25.9153L76.3294 27.3699C76.6776 28.2489 77.1914 29.0534 77.8427 29.7402C78.4795 30.4304 79.2441 30.9914 80.0945 31.3922C80.5978 31.6262 81.1314 31.7894 81.6798 31.877V34.5167H84.0036V31.9309C84.7324 31.8756 85.446 31.6932 86.1115 31.3922C86.9332 30.9986 87.6218 30.3746 88.0931 29.5965C88.5591 28.7956 88.7958 27.8826 88.7776 26.9569C88.7947 26.3116 88.678 25.6698 88.4353 25.0714Z" fill="white"/>
</svg>
