<svg width="72" height="73" viewBox="0 0 72 73" fill="none" xmlns="http://www.w3.org/2000/svg">
<g clip-path="url(#clip0_175_118)">
<path d="M-0.124986 11.6563C-0.124986 8.53167 1.11625 5.53506 3.32566 3.32565C5.53508 1.11623 8.53168 -0.125 11.6563 -0.125H53.3438C56.4683 -0.125 59.465 1.11623 61.6744 3.32565C63.8838 5.53506 65.125 8.53167 65.125 11.6563V28.9185C63.392 28.7649 61.6465 28.9937 60.0116 29.5888C58.3768 30.1838 56.8925 31.1306 55.6638 32.3623L34.269 53.7606C32.6846 55.3447 31.524 57.3018 30.8941 59.4519C29.6435 57.5089 27.7404 56.135 25.7756 55.3448C23.2708 54.337 20.755 54.7648 18.7576 55.4716C17.8491 55.8005 16.9659 56.1955 16.115 56.6534C16.0174 56.7498 15.9091 56.835 15.7924 56.9071L9.64076 60.6663C7.94789 61.6631 6.35289 61.9894 4.93551 61.8806C3.76995 61.7879 2.64719 61.3999 1.67301 60.7533C0.27014 59.8289 -0.124986 58.2774 -0.124986 57.1101V11.6563ZM58.2375 34.9288L36.8428 56.3235C35.5947 57.5703 34.7089 59.1327 34.2799 60.8439L32.7284 67.0499C31.4451 67.6661 30.1546 67.7821 28.6249 67.4305C28.1681 67.3218 27.9724 66.7961 28.1645 66.3684C29.7233 62.8811 27.4758 59.9304 24.4308 58.7088C20.9689 57.3131 16.3615 60.5756 12.4973 63.3053C10.3513 64.8278 8.43726 66.1799 7.07426 66.4808C5.17114 66.9049 2.86201 66.0349 1.16189 65.1032C0.404264 64.6936 -0.603485 65.3643 -0.244611 66.1473C0.632639 68.0649 2.40526 70.2544 5.95414 70.6966C9.50664 71.1353 12.3559 69.4388 15.1979 67.7423C17.3113 66.4808 19.421 65.2193 21.8171 64.8459C22.1253 64.7988 22.3391 65.1649 22.1978 65.4476C21.3205 67.2021 20.9073 70.4139 22.988 72.0379C26.062 74.4376 34.7221 73.0964 36.8645 72.3569C37.0456 72.338 37.2249 72.3053 37.401 72.259L44.0348 70.6024C45.7473 70.1743 47.3112 69.2884 48.5588 68.0395L69.9571 46.6448C71.471 45.0825 72.3098 42.9876 72.2926 40.8122C72.2753 38.6369 71.4033 36.5555 69.8648 35.0175C68.3263 33.4795 66.2447 32.6081 64.0693 32.5915C61.894 32.5749 59.7993 33.4144 58.2375 34.9288Z" fill="#FFE900"/>
</g>
<defs>
<clipPath id="clip0_175_118">
<rect width="72" height="73" fill="white"/>
</clipPath>
</defs>
</svg>
