<svg width="73" height="94" viewBox="0 0 73 94" fill="none" xmlns="http://www.w3.org/2000/svg">
<g clip-path="url(#clip0_175_128)">
<mask id="mask0_175_128" style="mask-type:alpha" maskUnits="userSpaceOnUse" x="0" y="0" width="74" height="94">
<path d="M69.8142 18.5777L39.6513 0.97723C38.6899 0.41418 37.5987 0.117676 36.4877 0.117676C35.3768 0.117676 34.2855 0.41418 33.3242 0.97723L3.15582 18.5774C2.19582 19.142 1.39913 19.9515 0.845345 20.9249C0.291563 21.8983 7.43148e-05 23.0016 0 24.1246L0 59.3518C0.000787317 60.4726 0.292717 61.5734 0.846563 62.5442C1.40041 63.515 2.19674 64.3217 3.15582 64.8834L18.2477 73.7044V91.689C18.249 92.0253 18.3377 92.3554 18.5049 92.6462C18.672 92.937 18.9118 93.1783 19.2002 93.346C19.4886 93.5136 19.8155 93.6016 20.1481 93.6013C20.4808 93.601 20.8075 93.5123 21.0956 93.3441L69.845 64.899C70.8052 64.3385 71.6025 63.5321 72.1565 62.5611C72.7106 61.59 73.0019 60.4885 73.0011 59.3674V24.1194C72.9953 22.9946 72.698 21.891 72.1388 20.9187C71.5796 19.9463 70.7781 19.1392 69.8142 18.5777Z" fill="#EF6C00"/>
</mask>
<g mask="url(#mask0_175_128)">
<path d="M72.9703 20.4353L36.4954 41.7358L0 20.4353V63.036L18.2477 73.6785V94.9839L72.9703 63.036V20.4353Z" fill="#FFE900"/>
</g>
<mask id="mask1_175_128" style="mask-type:alpha" maskUnits="userSpaceOnUse" x="0" y="0" width="74" height="94">
<path d="M69.8142 18.5777L39.6513 0.97723C38.6899 0.41418 37.5987 0.117676 36.4877 0.117676C35.3768 0.117676 34.2855 0.41418 33.3242 0.97723L3.15582 18.5774C2.19582 19.142 1.39913 19.9515 0.845345 20.9249C0.291563 21.8983 7.43148e-05 23.0016 0 24.1246L0 59.3518C0.000787317 60.4726 0.292717 61.5734 0.846563 62.5442C1.40041 63.515 2.19674 64.3217 3.15582 64.8834L18.2477 73.7044V91.689C18.249 92.0253 18.3377 92.3554 18.5049 92.6462C18.672 92.937 18.9118 93.1783 19.2002 93.346C19.4886 93.5136 19.8155 93.6016 20.1481 93.6013C20.4808 93.601 20.8075 93.5123 21.0956 93.3441L69.845 64.899C70.8052 64.3385 71.6025 63.5321 72.1565 62.5611C72.7106 61.59 73.0019 60.4885 73.0011 59.3674V24.1194C72.9953 22.9946 72.698 21.891 72.1388 20.9187C71.5796 19.9463 70.7781 19.1392 69.8142 18.5777Z" fill="#FFE900"/>
</mask>
<g mask="url(#mask1_175_128)">
<path d="M36.4954 41.7357L0 20.4352L36.4954 -0.86499L72.9703 20.4352L36.4954 41.7357Z" fill="#D0C11B"/>
</g>
</g>
<defs>
<clipPath id="clip0_175_128">
<rect width="73" height="94" fill="white"/>
</clipPath>
</defs>
</svg>
