<svg width="72" height="72" viewBox="0 0 72 72" fill="none" xmlns="http://www.w3.org/2000/svg">
<g clip-path="url(#clip0_175_123)">
<path d="M0.349976 13.7001C0.349976 10.1595 1.75649 6.76383 4.2601 4.26022C6.76371 1.75661 10.1593 0.350098 13.7 0.350098H49.3C52.8406 0.350098 56.2362 1.75661 58.7399 4.26022C61.2435 6.76383 62.65 10.1595 62.65 13.7001V27.0634C61.1325 27.1347 59.624 27.4729 58.2 28.0825V13.7001C58.2 11.3397 57.2623 9.07592 55.5932 7.40685C53.9242 5.73777 51.6604 4.8001 49.3 4.8001H13.7C11.3395 4.8001 9.0758 5.73777 7.40673 7.40685C5.73765 9.07592 4.79998 11.3397 4.79998 13.7001V55.9751C4.79998 56.5652 4.56556 57.1311 4.14829 57.5484C3.73102 57.9657 3.16508 58.2001 2.57498 58.2001C1.98487 58.2001 1.41893 57.9657 1.00166 57.5484C0.584395 57.1311 0.349976 56.5652 0.349976 55.9751V13.7001ZM2.12998 62.8059C3.77203 63.6247 5.82348 64.2966 7.54563 63.9184C8.66258 63.6692 10.1133 63.0595 11.742 62.3742C15.6802 60.7144 20.6553 58.6229 24.4779 60.1626C27.3125 61.3018 27.0767 64.528 26.2801 66.0811C26.1244 66.3747 26.2445 66.7931 26.5694 66.8687C28.1969 67.1995 29.8585 67.331 31.5178 67.2603C31.5358 67.0503 31.57 66.842 31.6201 66.6373L33.2889 59.9712C33.7157 58.2517 34.6052 56.6819 35.861 55.4322L57.3545 33.9387C58.1251 33.1563 59.0431 32.5342 60.0553 32.1082C61.0676 31.6822 62.1541 31.4609 63.2523 31.4568C64.3505 31.4528 65.4387 31.6662 66.454 32.0846C67.4694 32.5031 68.3919 33.1185 69.1683 33.8952C69.9447 34.6719 70.5597 35.5946 70.9778 36.6101C71.3959 37.6256 71.6089 38.7139 71.6044 39.8121C71.5999 40.9103 71.3781 41.9967 70.9518 43.0088C70.5254 44.0209 69.903 44.9386 69.1203 45.709L47.6268 67.198C46.3747 68.4507 44.8058 69.3397 43.0878 69.7701L37.6499 71.1274C32.6614 72.587 25.2166 72.1152 22.907 70.313C20.909 68.7555 20.8289 66.3659 21.5008 64.7772C21.6521 64.4212 21.3851 63.9629 21.0069 64.0207C18.8041 64.3322 17.0019 65.1332 15.2219 65.9209C12.6186 67.0779 10.0777 68.2037 6.42868 67.7498C3.26473 67.3582 1.50253 65.7072 0.532425 64.0785C-0.010475 63.1707 1.18658 62.3342 2.13443 62.8059H2.12998Z" fill="#FFE900"/>
</g>
<defs>
<clipPath id="clip0_175_123">
<rect width="72" height="72" fill="white"/>
</clipPath>
</defs>
</svg>
