<svg width="72" height="88" viewBox="0 0 72 88" fill="none" xmlns="http://www.w3.org/2000/svg">
<g clip-path="url(#clip0_175_113)">
<path d="M9.49996 -0.166504H62.5C64.8427 -0.166504 67.0895 0.764148 68.7461 2.42072C70.4026 4.07729 71.3333 6.32408 71.3333 8.66683V79.3335C71.3333 81.6762 70.4026 83.923 68.7461 85.5796C67.0895 87.2362 64.8427 88.1668 62.5 88.1668H9.49996C7.15721 88.1668 4.91042 87.2362 3.25385 85.5796C1.59728 83.923 0.666626 81.6762 0.666626 79.3335V8.66683C0.666626 6.32408 1.59728 4.07729 3.25385 2.42072C4.91042 0.764148 7.15721 -0.166504 9.49996 -0.166504ZM9.49996 8.66683V26.3335H62.5V8.66683H9.49996Z" fill="#FFE900"/>
</g>
<defs>
<clipPath id="clip0_175_113">
<rect width="72" height="88" fill="white"/>
</clipPath>
</defs>
</svg>
