<svg width="225" height="213" viewBox="0 0 225 213" fill="none" xmlns="http://www.w3.org/2000/svg">
<path d="M94.0064 41.2882C89.3847 41.2882 85.6744 39.5782 80.8298 41.5007C75.3625 43.6703 70.6609 46.2569 66.0592 49.8955C57.4274 56.7206 53.5253 67.0098 50.4385 77.152C45.0757 94.7727 50.7462 121.985 67.4406 131.931C78.3576 138.434 92.4553 140.282 104.739 137.669C120.575 134.3 126.724 118.758 132.261 105.312C135.881 96.521 133.902 86.525 131.783 77.5771C129.706 68.8079 128.795 58.6538 124.026 50.7987C118.918 42.3861 110.879 39.3755 101.551 39.3755C90.02 39.3755 76.0263 39.0908 73.9227 52.7646" stroke="#A2A2A2" stroke-width="3" stroke-linecap="round"/>
<path d="M70.0977 82.412C70.3472 80.4156 71.5904 82.8164 72.0635 83.3684C74.5826 86.3073 72.9112 81.5879 71.1072 81.1369C69.4018 80.7105 70.6906 83.8997 71.7979 83.8997C73.535 83.8997 71.4375 82.412 70.0977 82.412Z" stroke="#A2A2A2" stroke-width="3" stroke-linecap="round"/>
<path d="M96.8754 83.3681C95.8863 84.4808 96.0531 86.1146 97.8318 85.0683C100.613 83.4324 96.1472 81.4989 97.0879 84.112C98.0059 86.6619 102.274 85.3663 100.276 83.3681C98.7458 81.8381 96.8754 82.2739 96.8754 84.3245" stroke="#A2A2A2" stroke-width="3" stroke-linecap="round"/>
<path d="M84.4427 109.19C83.9919 109.19 83.4863 107.783 83.4863 108.234" stroke="#A2A2A2" stroke-width="3" stroke-linecap="round"/>
<path d="M90.181 109.19C89.2998 109.08 89.5476 108.879 89.2246 108.233" stroke="#A2A2A2" stroke-width="3" stroke-linecap="round"/>
<path d="M69.1406 116.841C70.0547 116.041 81.0177 123.149 83.008 123.96C95.1761 128.918 103.814 118.976 107.395 108.233" stroke="#A2A2A2" stroke-width="3" stroke-linecap="round"/>
<path d="M80.618 43.2012C60.7061 43.2012 46.6165 54.6205 44.0635 74.7613C43.5245 79.0135 45.1914 84.2029 44.0635 88.1505C42.9514 92.0427 38.2511 96.628 36.0937 100.158C32.7323 105.659 36.6975 112.883 39.9192 117.479C41.6276 119.916 48.7133 133.1 50.9706 133.1" stroke="#A2A2A2" stroke-width="3" stroke-linecap="round"/>
<path d="M81.5742 41.2883C83.3589 32.3647 107.066 32.5542 113.347 32.681C126.658 32.9499 133.373 41.3509 132.049 54.1462C131.501 59.4487 129.381 64.0584 131.89 69.0762C135.212 75.7205 140.75 78.8858 140.231 87.4065C139.698 96.1673 134.617 103.861 135.237 112.697C135.857 121.531 138.731 130.285 140.869 138.838" stroke="#A2A2A2" stroke-width="3" stroke-linecap="round"/>
<path d="M72.0107 44.1562C71.8186 42.6193 69.1772 39.6934 68.1852 38.2055C65.2527 33.8067 62.6191 29.0538 60.003 24.4444C57.9594 20.8439 55.8267 17.5611 53.8397 14.0837C52.438 11.6307 50.9706 20.7011 50.9706 21.4159C50.9706 30.144 48.0154 36.8022 47.092 45.1126C46.7422 48.2611 45.7491 51.7349 44.7011 54.7294C44.2591 55.9921 42.3633 64.3162 42.3633 61.3708" stroke="#A2A2A2" stroke-width="3" stroke-linecap="round"/>
<path d="M100.701 33.6366C101.106 31.8127 104.318 29.0788 105.696 27.8984C109.106 24.9753 110.793 20.9508 114.037 17.9096C116.853 15.2697 118.738 11.7899 120.785 8.55847C121.987 6.66015 124.992 0.989395 123.123 2.23581C119.911 4.37681 122.114 13.9798 122.91 16.6345C124.779 22.8628 126.2 30.1103 127.479 36.5057" stroke="#A2A2A2" stroke-width="3" stroke-linecap="round"/>
<path d="M72.0102 138.838C74.1712 141.239 78.0183 151.956 75.6232 154.884C71.6074 159.792 63.0326 159.048 58.0897 163.332C53.8054 167.045 48.8224 168.92 43.266 169.92C35.2063 171.371 27.1481 174.454 19.41 177.146C12.0856 179.693 4.25269 184.318 2.77978 192.501C1.82525 197.804 1.192 214.893 9.84628 210.566" stroke="#A2A2A2" stroke-width="3" stroke-linecap="round"/>
<path d="M108.353 135.969C109.982 136.376 111.572 143.184 112.178 144.789C113.535 148.38 114.616 150.843 116.96 153.927C121.179 159.479 136.069 151.603 140.816 151.324C152.948 150.61 161.291 155.769 169.135 164.554C173.791 169.769 177.278 173.783 178.646 181.077C179.87 187.607 178.646 205.143 178.646 198.5" stroke="#A2A2A2" stroke-width="3" stroke-linecap="round"/>
<path d="M167.647 165.616C170.443 162.82 172.655 157.442 173.385 153.608C174.681 146.807 179.123 141.314 179.123 134.056C179.123 125.783 179.277 117.604 177.954 109.403C176.651 101.323 172.397 94.1821 169.56 86.6626C163.497 70.5962 148.83 61.1349 139.54 47.5578C137.62 44.7511 125.972 28.8555 133.218 28.8555C136.569 28.8555 139.148 29.0767 142.303 30.29C147.691 32.3624 153.803 31.783 158.986 34.1155C172.132 40.031 184.382 46.3982 194.425 57.0152C201.698 64.7032 206.468 75.0439 211.109 84.3248C215.406 92.9203 222.032 103.261 223.116 113.016" stroke="#A2A2A2" stroke-width="3" stroke-linecap="round"/>
<path d="M167.647 93.8873C173.006 94.4827 178.221 101.937 182.949 104.301C185.322 105.487 188.134 106.431 188.9 103.451C189.071 102.786 189.809 96.6373 190.653 97.3408C193.86 100.013 199.309 106.197 200.908 100.157C201.854 96.5809 202.886 98.6838 205.424 100.051C208.942 101.945 209.449 88.3288 209.728 86.2363" stroke="#A2A2A2" stroke-width="3" stroke-linecap="round"/>
<path d="M158.083 12.5967C162.119 12.5967 165.361 15.2172 168.603 17.3785" stroke="#A2A2A2" stroke-width="3" stroke-linecap="round"/>
<path d="M166.69 3.0332C172.924 5.15036 176.899 7.5656 181.992 11.6405" stroke="#A2A2A2" stroke-width="3" stroke-linecap="round"/>
<path d="M142.781 80.499C145.355 83.3586 147.154 85.9643 150.432 88.15" stroke="#A2A2A2" stroke-width="3" stroke-linecap="round"/>
<path d="M146.607 96.7568C149.226 99.3751 151.949 100.862 155.215 102.495" stroke="#A2A2A2" stroke-width="3" stroke-linecap="round"/>
<path d="M95.9199 86.237C99.5659 86.237 102.62 84.3242 106.015 84.3242C109.968 84.3242 98.788 86.237 96.3981 86.237C95.6548 86.237 103.317 86.237 105.484 86.237C110.354 86.237 101.189 85.2806 99.7454 85.2806" stroke="#A2A2A2" stroke-width="3" stroke-linecap="round"/>
<path d="M62.4463 85.2806C65.8011 85.2806 68.9187 86.1619 72.2225 86.237C74.4749 86.2882 78.416 86.237 73.8696 86.237C70.911 86.237 68.5906 85.9553 65.7936 85.3338C61.5925 84.4002 68.9924 85.2806 70.3098 85.2806C71.0854 85.2806 78.3618 86.237 74.8791 86.237C71.9214 86.237 63.0484 86.237 66.0061 86.237C66.8129 86.237 73.9709 86.5865 73.7633 85.6526C73.1205 82.7599 67.2739 82.4344 69.1409 83.3679" stroke="#A2A2A2" stroke-width="3" stroke-linecap="round"/>
<path d="M67.2285 159.878C69.4054 158.572 71.782 162.829 73.0199 164.129C75.5273 166.761 79.6095 168.579 82.7429 170.398C89.611 174.386 96.0142 179.066 102.402 183.787C107.863 187.824 112.952 189.666 117.172 183.787C124.509 173.568 124.531 159.24 127.48 147.445" stroke="#A2A2A2" stroke-width="3" stroke-linecap="round"/>
</svg>
