<svg width="231" height="214" viewBox="0 0 231 214" fill="none" xmlns="http://www.w3.org/2000/svg">
<path d="M90.1196 45.7922C77.4918 49.7384 68.9195 58.6125 63.5363 69.9771C58.1492 81.3498 62.5409 89.9156 66.3345 100.158C74.4291 122.014 99.9742 131.347 122.499 126.342C149.813 120.272 172.262 89.7885 162.474 62.3819C160.135 55.8325 154.244 51.1058 149.682 45.8922C144.751 40.2559 138.062 40.1759 131.494 36.7979C113.627 27.6091 93.1722 35.6532 75.7286 42.1945" stroke="#A2A2A2" stroke-width="3" stroke-linecap="round"/>
<path d="M126.097 34.9993C114.928 30.0349 101.227 30.5919 89.2204 29.7026C77.4553 28.8311 65.5596 31.3286 61.3379 43.9936" stroke="#A2A2A2" stroke-width="3" stroke-linecap="round"/>
<path d="M117.103 33.1998C98.7265 33.1998 76.5376 31.9866 64.9355 49.3897" stroke="#A2A2A2" stroke-width="3" stroke-linecap="round"/>
<path d="M120.701 38.597C107.403 38.597 93.5097 37.5883 80.4259 40.4958C72.1846 42.3272 66.3206 52.1562 61.3379 58.3846" stroke="#A2A2A2" stroke-width="3" stroke-linecap="round"/>
<path d="M113.505 26.0047C122.389 26.0047 126.526 8.81543 134.692 8.81543C137.178 8.81543 144.764 36.2374 149.482 38.5968" stroke="#A2A2A2" stroke-width="3" stroke-linecap="round"/>
<path d="M77.5279 31.4009C73.6227 30.533 70.0431 24.5513 67.6341 21.607C65.6177 19.1425 62.4207 11.5549 61.2381 14.5114C56.0812 27.4038 54.1426 40.842 54.1426 54.7862" stroke="#A2A2A2" stroke-width="3" stroke-linecap="round"/>
<path d="M84.7236 76.373C84.7236 83.7092 92.7263 76.373 88.3214 76.373" stroke="#A2A2A2" stroke-width="3" stroke-linecap="round"/>
<path d="M120.701 74.5743C114.434 75.2706 120.065 79.9917 118.802 75.5736C117.812 72.106 116.436 80.1737 118.902 72.7754" stroke="#A2A2A2" stroke-width="3" stroke-linecap="round"/>
<path d="M100.913 90.7637C100.302 95.6477 94.6566 97.9592 104.51 97.9592" stroke="#A2A2A2" stroke-width="3" stroke-linecap="round"/>
<path d="M104.511 90.7637V96.1603" stroke="#A2A2A2" stroke-width="3" stroke-linecap="round"/>
<path d="M104.054 99.5459C107.395 103.759 111.933 107.37 117.446 106.164C124.308 104.663 125.68 97.1735 125.077 91.1367" stroke="#A2A2A2" stroke-width="3" stroke-linecap="round"/>
<path d="M101.951 102.348C101.951 104.1 101.951 105.852 101.951 107.604C101.951 110.758 101.066 110.499 98.4475 111.808C90.1762 115.944 84.5831 104.957 83.7314 98.1436" stroke="#A2A2A2" stroke-width="3" stroke-linecap="round"/>
<path d="M99.1484 113.561C101.01 113.561 102.899 113.666 104.755 113.561C108.824 113.332 111.414 110.056 114.565 107.955" stroke="#A2A2A2" stroke-width="3" stroke-linecap="round"/>
<path d="M94.2433 128.978C94.2433 132.763 97.4771 136.22 95.6449 140.19C93.0063 145.907 91.325 151.961 86.496 156.307C83.0119 159.443 77.9458 160.531 73.8433 162.653C66.8775 166.256 59.6079 169.509 52.1974 172.075C43.5473 175.069 36.5724 179.838 31.3302 187.491C28.6878 191.349 26.9911 195.561 26.0745 200.144C25.6211 202.411 25.2308 204.712 25.5295 207.035C25.9328 210.172 27.3305 209.768 29.0722 211.668" stroke="#A2A2A2" stroke-width="3" stroke-linecap="round"/>
<path d="M139.793 121.27C136.074 123.594 136.529 132.364 137.691 135.986C138.421 138.261 138.026 140.86 139.093 142.993C140.683 146.174 145.401 146.566 148.436 147.198C152.951 148.138 156.526 150.338 160.427 152.648C166.986 156.532 174.108 159.045 180.438 163.471C194.234 173.119 201.348 188.807 188.847 202.558" stroke="#A2A2A2" stroke-width="3" stroke-linecap="round"/>
<path d="M194.453 135.417C194.824 133.746 197.234 131.687 198.112 130.2C201.119 125.108 204.053 119.743 205.353 113.927C208.782 98.5867 209.849 81.5197 207.456 65.9635C204.82 48.8331 193.814 35.2907 180.437 25.0077C175.711 21.3746 170.129 19.5174 165.332 16.1313C163.166 14.6023 162.212 13.2512 165.02 12.7832" stroke="#A2A2A2" stroke-width="3" stroke-linecap="round"/>
<path d="M163.619 14.8859C164.08 12.8136 169.974 11.162 171.717 10.6813C176.744 9.2945 182.164 7.8156 187.445 8.69577C193.351 9.68009 198.43 14.0049 202.005 18.5454C207.266 25.2254 212.664 33.1713 215.631 41.1256C222.019 58.249 228.042 76.2998 228.751 94.7341C229.073 103.093 225.266 110.459 223.885 118.599C222.532 126.572 222.443 136.886 218.279 143.827" stroke="#A2A2A2" stroke-width="3" stroke-linecap="round"/>
<path d="M173.43 35.9082C177.589 36.3241 180.637 41.1467 182.54 44.3174" stroke="#A2A2A2" stroke-width="3" stroke-linecap="round"/>
<path d="M176.934 45.0186C179.214 46.3488 180.098 49.7728 181.138 52.0262" stroke="#A2A2A2" stroke-width="3" stroke-linecap="round"/>
<path d="M205.665 11.3818C208.106 13.8233 210.421 15.989 211.972 19.0902" stroke="#A2A2A2" stroke-width="3" stroke-linecap="round"/>
<path d="M211.271 7.17773C212.673 10.3335 215.167 13.2959 216.877 16.2877" stroke="#A2A2A2" stroke-width="3" stroke-linecap="round"/>
<path d="M1.74219 10.548C1.91046 9.53837 6.19941 20.748 5.94678 20.748C4.7516 20.748 0.491915 8.61541 5.90784 12.3389C9.55742 14.8479 11.475 15.1869 11.475 9.49687C11.475 7.91256 9.57046 5.93271 11.1636 7.90069C13.3403 10.5896 15.6861 12.9561 18.5605 14.7526" stroke="#A2A2A2" stroke-width="3" stroke-linecap="round"/>
<path d="M15.7578 4.24121C17.0404 10.1413 23.4338 17.0669 28.3716 20.3588" stroke="#A2A2A2" stroke-width="3" stroke-linecap="round"/>
<path d="M15.0564 6.34383C10.212 2.71051 21.6247 0.45622 24.6335 2.29497C28.8063 4.84502 26.5036 9.92459 23.4656 11.9499" stroke="#A2A2A2" stroke-width="3" stroke-linecap="round"/>
</svg>
