<svg width="310" height="318" viewBox="0 0 310 318" fill="none" xmlns="http://www.w3.org/2000/svg">
<path fill-rule="evenodd" clip-rule="evenodd" d="M158.816 27.0463C160.593 25.0407 161.795 22.5829 161.595 19.8288C161.016 11.8935 149.529 13.6392 147.294 17.6442C145.06 21.6493 145.325 31.8084 148.213 32.5242C149.365 32.8097 151.818 32.1104 154.315 30.6631L152.748 41.3257H162.002L158.816 27.0463Z" fill="#EBB786"/>
<path fill-rule="evenodd" clip-rule="evenodd" d="M152.569 13.0283C153.789 12.8359 157.073 12.7037 157.678 12.7038C158.065 12.7038 158.485 12.7888 158.714 12.4471C158.902 12.1672 158.833 11.6939 158.889 11.3692C158.954 10.9919 159.046 10.6195 159.14 10.2481C159.406 9.19109 159.808 8.18551 160.371 7.24139C161.427 5.47012 162.973 4.08267 164.926 3.27532C167.082 2.38388 169.523 2.17975 171.842 2.36057C174.324 2.55402 176.571 3.34199 178.915 4.08352C181.148 4.79014 183.487 5.06828 185.823 4.72321C188.176 4.37558 189.954 3.14897 191.94 1.98477C193.972 0.792905 196.294 0.0133834 198.696 0.192577C200.939 0.359904 203.006 1.25032 204.86 2.43979C206.595 3.55269 208.026 4.89164 208.835 6.77612C209.704 8.80325 209.703 11.0284 208.274 12.8199C206.201 15.4167 202.354 16.0882 199.153 16.0214C197.302 15.9829 195.483 15.6579 193.735 15.0667C191.404 14.2783 189.39 12.9419 187.209 11.8576C186.186 11.3488 185.128 10.9309 184.019 10.6298C182.943 10.3376 181.883 10.2036 180.909 10.8287C179.878 11.49 178.955 12.1395 177.776 12.5535C176.644 12.9507 175.446 13.1728 174.241 13.1638C171.897 13.1464 169.585 12.4439 167.308 11.9733C165.451 11.5897 163.464 11.2073 161.571 11.5761C160.781 11.73 159.627 12.0478 159.342 12.8373C164.144 13.6743 166.03 19.3856 164.677 23.5782C163.946 25.8411 159.554 28.4865 157.846 27.2968C156.764 26.5431 157.421 25.5537 157.846 24.9005C158.66 23.6497 158.938 22.0429 157.432 21.172C156.133 20.4209 154.767 22.2046 154.741 22.2026C154.384 22.1756 151.298 20.4974 149.172 18.0485C147.075 18.168 146.756 16.8381 147.257 15.7505C147.758 14.6629 150.884 13.2942 152.569 13.0283Z" fill="#925B1C"/>
<path fill-rule="evenodd" clip-rule="evenodd" d="M161.399 73.6209L148.36 116.83L142.227 149.272H136.071L142.216 73.6209H161.399Z" fill="#D7AB81"/>
<path fill-rule="evenodd" clip-rule="evenodd" d="M167.259 73.6209C166.349 96.0677 166.708 108.311 166.912 110.35C167.116 112.389 168.272 126.048 176.149 149.956H169.747C159.314 127.02 155.672 113.362 154.476 110.35C153.279 107.338 149.745 95.0953 144.586 73.6209H167.259Z" fill="#EBB786"/>
<path fill-rule="evenodd" clip-rule="evenodd" d="M161.679 73.6209C158.288 88.4892 152.421 112.223 144.081 144.822H135.077C134.412 111.362 137.241 89.34 142.14 73.6209H161.679Z" fill="#69A1AC"/>
<path fill-rule="evenodd" clip-rule="evenodd" d="M167.305 73.6209C166.414 96.0677 168.723 118.182 175.876 145.171H166.27C155.818 122.577 148.327 100.572 143.208 73.6209H167.305Z" fill="#89C5CC"/>
<path fill-rule="evenodd" clip-rule="evenodd" d="M177.062 154.406L176.708 148.929C174.64 149.511 172.05 149.283 168.937 148.245C165.589 150.525 161.376 152.081 156.296 152.915C155.908 152.979 155.648 153.332 155.714 153.705C155.718 153.729 155.724 153.753 155.731 153.777L156.219 155.433H176.355L177.062 154.406Z" fill="#E4E4E4"/>
<path fill-rule="evenodd" clip-rule="evenodd" d="M143.601 154.406L143.248 148.929C141.18 149.511 138.589 149.283 135.476 148.245C132.129 150.525 127.915 152.081 122.835 152.915C122.448 152.979 122.187 153.332 122.253 153.705C122.258 153.729 122.263 153.753 122.27 153.777L122.759 155.433H142.895L143.601 154.406Z" fill="#E4E4E4"/>
<path fill-rule="evenodd" clip-rule="evenodd" d="M131.135 66.2184L120.212 76.4654C117.034 77.7691 114.43 79.2086 112.4 80.7839C111.943 81.3135 111.446 82.3281 113.594 81.874C115.742 81.42 118.022 81.0353 118.426 81.707C118.83 82.3787 117.64 83.408 118.386 84.2871C118.884 84.8732 120.556 83.009 123.404 78.6947L134.763 72.255L131.135 66.2184ZM179.617 67.6635L171.56 67.694C176.535 83.1391 179.221 91.3342 179.617 92.2793C180.51 94.4056 178.621 97.6441 177.814 99.3843C180.444 100.516 180.164 96.3252 183.481 97.8093C186.509 99.164 188.812 101.619 192.31 99.5428C192.741 99.2876 193.212 98.3267 192.073 97.5758C189.236 95.7051 185.148 92.431 184.595 91.3533C183.842 89.8836 182.183 81.9871 179.617 67.6635Z" fill="#EBB786"/>
<path fill-rule="evenodd" clip-rule="evenodd" d="M156.718 35.1489L153.384 34.599C147.644 48.3891 137.621 60.9191 123.317 72.1892L134.126 84.8172C148.429 68.7702 157.245 52.2141 156.718 35.1489Z" fill="#D0C11B"/>
<path fill-rule="evenodd" clip-rule="evenodd" d="M171.253 75.4429H141.563C148.441 59.3596 151.881 45.6969 151.881 34.4551L160.837 33.1718C167.875 44.0579 169.863 57.4609 171.253 75.4429Z" fill="#DDE3E9"/>
<path fill-rule="evenodd" clip-rule="evenodd" d="M161.026 33.1779C161.025 33.1759 161.024 33.1739 161.023 33.1718H160.438C159.739 33.195 158.673 33.2367 157.242 33.297L155.078 39.2444C154.849 46.4955 153.512 61.1086 151.067 83.0836H170.53C170.479 84.6013 170.395 86.1332 170.277 87.6793H184.749C182.584 64.1944 174.679 46.0252 161.034 33.1718L161.026 33.1779Z" fill="#FFE900"/>
<path fill-rule="evenodd" clip-rule="evenodd" d="M169.244 63.6638C168.69 73.1246 167.303 79.6466 165.084 83.2297H170.525C170.763 76.4229 170.336 69.9009 169.244 63.6638Z" fill="black" fill-opacity="0.1"/>
<path fill-rule="evenodd" clip-rule="evenodd" d="M166.198 71.7349L156.601 67.4445V71.7349H166.198Z" fill="white" fill-opacity="0.2"/>
<path fill-rule="evenodd" clip-rule="evenodd" d="M250.328 141.055C251.894 139.014 252.877 136.576 252.492 133.944C251.382 126.36 240.472 128.778 238.605 132.769C236.739 136.76 237.704 146.5 240.527 147.001C241.653 147.201 243.96 146.371 246.257 144.819L245.497 155.161L254.385 154.563L250.328 141.055Z" fill="#EBB786"/>
<path fill-rule="evenodd" clip-rule="evenodd" d="M256.183 131.146C256.45 130.853 256.578 130.452 256.686 130.072C256.799 129.678 256.907 129.279 256.972 128.872C257.1 128.059 257.035 127.137 256.395 126.555C255.883 126.089 255.151 125.913 254.488 125.909C254.046 125.906 253.599 125.996 253.187 126.157C252.778 126.317 252.437 126.605 252.043 126.796C251.965 125.934 251.746 125.041 251.237 124.334C250.747 123.655 250.019 123.304 249.216 123.252C248.392 123.199 247.598 123.437 246.895 123.866C246.719 123.974 246.545 124.086 246.379 124.21C246.241 124.315 246.098 124.439 245.931 124.488C245.744 124.544 245.642 124.445 245.508 124.32C245.352 124.173 245.179 124.047 244.998 123.936C244.195 123.448 243.177 123.293 242.316 123.676C241.919 123.853 241.541 124.132 241.29 124.5C241.066 124.827 240.926 125.332 240.602 125.572C240.464 125.674 240.353 125.559 240.215 125.477C240.008 125.355 239.809 125.219 239.6 125.1C239.305 124.934 238.992 124.817 238.661 124.766C238.177 124.692 237.52 124.761 237.428 125.37C237.393 125.599 237.45 125.838 237.483 126.064C237.528 126.374 237.574 126.684 237.625 126.993C237.664 127.228 237.707 127.455 237.771 127.684C237.804 127.806 237.899 128.031 237.852 128.159C237.795 128.319 237.47 128.252 237.334 128.267C237.067 128.295 236.8 128.359 236.56 128.486C236.374 128.584 236.181 128.724 236.115 128.941C236.074 129.075 236.097 129.208 236.131 129.34C236.171 129.499 236.144 129.587 236.135 129.75C235.762 129.604 234.484 129.309 234.372 129.941C234.335 130.151 234.471 130.377 234.575 130.546C234.757 130.841 234.986 131.107 235.22 131.359C235.706 131.886 236.274 132.33 236.876 132.703C236.226 133.035 236.112 133.893 236.73 134.358C237.003 134.564 237.352 134.59 237.674 134.554C237.792 134.541 237.96 134.486 238.055 134.499C238.106 134.506 238.162 134.544 238.232 134.544C238.691 134.543 239.199 134.402 239.639 134.275C240.422 134.048 241.149 133.635 241.724 133.041C241.872 132.889 241.996 132.798 242.209 132.786C242.395 132.776 242.581 132.812 242.767 132.804C243.26 132.783 243.687 132.522 244.133 132.337C244.204 132.929 244.427 133.571 244.719 134.088C244.956 134.51 245.391 134.544 245.816 134.554C247.176 134.585 248.522 134.358 249.875 134.269C248.586 134.641 247.242 134.85 245.968 135.272C245.392 135.463 245.868 135.813 246.138 136.06C246.583 136.466 246.929 136.983 247.183 137.535C247.765 136.689 248.859 136.084 249.88 136.263C251.009 136.461 251.894 137.85 251.261 138.934C250.893 139.564 250.166 139.846 249.567 140.146C250.084 140.596 250.253 141.3 250.587 141.881C250.752 142.167 250.977 142.488 251.305 142.57C251.426 142.6 251.565 142.594 251.665 142.68C251.789 142.787 251.826 142.914 251.981 143.003C252.6 143.358 253.52 143.265 254.005 142.716C254.444 142.218 254.268 141.49 253.838 141.044C254.449 140.75 255.571 140.349 255.252 139.424C256.608 139.245 259.762 136.898 257.82 135.468C258.784 134.855 259.609 133.46 258.879 132.329C258.317 131.457 257.133 131.13 256.183 131.146Z" fill="#8A6347"/>
<path fill-rule="evenodd" clip-rule="evenodd" d="M261.964 185.407L234.386 230.039L213.71 267.771H209.257L243.899 185.407H261.964Z" fill="#D7AB81"/>
<path fill-rule="evenodd" clip-rule="evenodd" d="M216.138 265.78C216.553 266.846 216.761 267.644 216.761 268.173C216.761 268.817 216.649 269.756 216.426 270.991C215.65 270.991 208.67 270.991 195.488 270.991C194.944 269.261 195.258 268.327 196.43 268.189C197.603 268.052 198.577 267.927 199.352 267.816L209.084 263.644C209.271 263.563 209.491 263.644 209.574 263.824C209.576 263.828 209.577 263.831 209.578 263.834L210.204 265.293C211.289 265.78 212.171 266.023 212.849 266.023C213.401 266.023 214.162 265.809 215.133 265.381C215.506 265.217 215.947 265.374 216.118 265.733C216.125 265.748 216.132 265.764 216.138 265.78Z" fill="#E4E4E4"/>
<path fill-rule="evenodd" clip-rule="evenodd" d="M219.212 261.435L210.575 258.93C214.359 248.083 218.997 236.146 224.488 223.12C229.98 210.094 235.878 197.523 242.182 185.407H266.576C259.567 200.733 252.137 214.658 244.285 227.182C236.433 239.707 228.075 251.125 219.212 261.435Z" fill="#5C63AB"/>
<path fill-rule="evenodd" clip-rule="evenodd" d="M263.516 185.407C266.102 201.126 271.089 221.207 271.56 221.827C271.873 222.24 283.169 225.937 305.447 232.916L304.491 236.726C277.925 232.983 263.927 230.079 262.497 228.014C260.352 224.916 249.641 200.445 245.493 185.407H263.516Z" fill="#EBB786"/>
<path fill-rule="evenodd" clip-rule="evenodd" d="M297.541 229.271L295.863 235.358C276.051 237.046 263.913 235.826 259.446 231.698C254.98 227.57 249.89 212.14 244.175 185.407H267.085C270.705 207.297 272.729 218.702 273.157 219.621C273.585 220.54 281.713 223.756 297.541 229.271Z" fill="#8991DC"/>
<path fill-rule="evenodd" clip-rule="evenodd" d="M304.614 231.2C305.778 230.992 306.631 230.934 307.173 231.026C307.832 231.138 308.775 231.406 310.001 231.832C309.866 232.567 308.654 239.177 306.365 251.661C304.499 251.876 303.597 251.417 303.659 250.282C303.722 249.148 303.763 248.204 303.784 247.451L301.201 237.51C301.152 237.318 301.273 237.125 301.472 237.077C301.475 237.076 301.478 237.075 301.482 237.075L303.085 236.736C303.772 235.792 304.174 234.999 304.292 234.357C304.388 233.835 304.301 233.077 304.031 232.082C303.927 231.701 304.165 231.311 304.562 231.211C304.579 231.207 304.596 231.203 304.614 231.2Z" fill="#E4E4E4"/>
<path fill-rule="evenodd" clip-rule="evenodd" d="M228.204 169.799L213.432 165.006C210.12 164.705 206.887 165.575 204.417 166.01C203.778 166.256 202.872 166.895 204.906 167.46C206.94 168.026 209.054 168.708 209.074 169.455C209.095 170.201 207.596 170.546 207.807 171.62C207.948 172.335 210.254 171.498 214.725 169.106L227.228 175.627L228.204 169.799ZM278.687 176.764L272.149 175.627C273.979 191.746 274.995 200.286 275.198 201.248C275.654 203.411 273.276 206.158 272.193 207.669C274.476 209.184 274.976 205.17 277.845 207.135C280.464 208.929 282.196 211.642 285.887 210.268C286.341 210.099 286.962 209.269 286.021 208.366C283.678 206.116 280.406 202.326 280.08 201.212C279.635 199.694 279.171 191.544 278.687 176.764Z" fill="#EBB786"/>
<path fill-rule="evenodd" clip-rule="evenodd" d="M255.765 154.451L245.976 150.172C239.525 161.774 238.719 171.06 222.783 161.911L214.012 176.673C229.094 184.775 241.019 182.766 250.781 167.288C253.308 163.281 254.311 158.212 255.765 154.451Z" fill="#D0C11B"/>
<path fill-rule="evenodd" clip-rule="evenodd" d="M267.522 188.375C256.102 190.999 246.987 192.101 240.178 191.681C239.334 191.629 238.924 188.21 239.184 187.231C243.234 171.987 247.651 160.435 246.331 150.347C247.495 150.763 247.523 151.061 250.202 150.347C258.897 159.856 263.828 171.377 267.522 188.375Z" fill="#DDE3E9"/>
<path fill-rule="evenodd" clip-rule="evenodd" d="M254.953 147.143L246.004 150.169C247.797 165.366 243.907 175.611 242.643 187.066L267.457 184.358C268.262 188.181 268.945 192.126 269.538 196.189L288.118 194.162C281.366 173.079 270.513 157.382 255.559 147.072L254.958 147.137L254.953 147.143Z" fill="#FFE900"/>
<path fill-rule="evenodd" clip-rule="evenodd" d="M250.243 161.557C250.887 171.088 250.508 178.361 249.108 183.376H254.183C253.487 175.679 252.257 168.406 250.243 161.557Z" fill="black" fill-opacity="0.1"/>
<path fill-rule="evenodd" clip-rule="evenodd" d="M140.52 195.518C142.16 193.667 143.271 191.398 143.085 188.855C142.551 181.53 131.946 183.141 129.884 186.838C127.821 190.536 128.066 199.914 130.732 200.575C131.795 200.839 134.06 200.193 136.365 198.857L134.918 208.7H143.461L140.52 195.518Z" fill="#E7B485"/>
<path fill-rule="evenodd" clip-rule="evenodd" d="M135.938 189.664C135.611 194.045 134.746 196.235 133.343 196.235C131.238 196.235 129.452 194.95 128.529 194.95C127.856 194.95 128.006 195.76 128.452 196.361C128.82 196.857 130.613 197.334 130.613 198.103C130.613 198.871 129.197 198.276 129.197 198.732C129.197 199.486 128.948 200.903 130.308 200.903C131.685 200.903 135.632 200.42 136.308 198.456C136.745 197.187 137.027 194.56 137.155 190.572C137.239 190.563 137.324 190.558 137.41 190.558C138.589 190.558 139.546 191.478 139.546 192.612C139.546 193.188 139.299 193.708 138.902 194.081C139.396 194.752 139.95 195.453 140.585 196.176C142.969 194.8 144.361 190.558 142.714 186.674C141.726 184.774 140.305 183.998 138.582 183.528C137.187 182.966 135.738 182.903 134.515 183.24C132.118 183.437 129.978 184.14 129.371 184.558C129.371 186.74 129.811 187.387 133.567 187.33C134.489 187.799 135.199 188.606 135.938 189.664Z" fill="#2D2D40"/>
<path fill-rule="evenodd" clip-rule="evenodd" d="M146.008 237.36L133.191 280.763L123.84 312.754H117.02L126.957 237.36H146.008Z" fill="#69A1AC"/>
<path fill-rule="evenodd" clip-rule="evenodd" d="M149.782 237.36C150.083 259.73 151.11 271.932 151.427 273.964C151.743 275.997 156.525 288.927 165.773 312.754H158.594C146.821 289.896 140.248 276.966 138.877 273.964C137.506 270.963 133.275 258.761 126.902 237.36H149.782Z" fill="#89C5CC"/>
<path fill-rule="evenodd" clip-rule="evenodd" d="M117.055 233.602L105.7 241.62C102.621 242.419 100.048 243.413 97.9817 244.603C97.4936 245.03 96.9037 245.896 98.9279 245.747C100.952 245.597 103.088 245.527 103.367 246.191C103.647 246.855 102.422 247.649 102.986 248.545C103.363 249.142 105.141 247.644 108.321 244.052L119.565 239.569L117.055 233.602ZM160.651 233.878L153.212 233.907C157.805 248.165 160.285 255.731 160.651 256.603C161.475 258.566 159.732 261.556 158.986 263.162C161.414 264.207 161.155 260.338 164.218 261.708C167.013 262.959 169.139 265.225 172.369 263.308C172.766 263.073 173.201 262.186 172.15 261.493C169.531 259.766 165.756 256.743 165.246 255.748C164.551 254.391 163.019 247.101 160.651 233.878Z" fill="#E7B485"/>
<path fill-rule="evenodd" clip-rule="evenodd" d="M139.511 203.862L136.433 203.354C125.013 212.842 120.322 231.068 106.323 240.723L109.693 244.739C133.978 241.848 139.997 219.616 139.511 203.862Z" fill="#D0C11B"/>
<path fill-rule="evenodd" clip-rule="evenodd" d="M152.929 241.06C140.588 241.06 131.509 241.06 125.694 241.06C124.45 241.06 124.684 239.332 124.864 238.46C126.94 228.396 135.045 217.547 135.045 203.221L142.901 202.037C149.399 212.086 151.646 224.46 152.929 241.06Z" fill="#DDE3E9"/>
<path fill-rule="evenodd" clip-rule="evenodd" d="M152.711 211.915C153.852 211.6 154.755 210.864 155.421 209.708C158.293 204.726 157.256 201.983 154.187 201.081C151.118 200.179 148.382 202.037 143.493 202.037C143.227 202.037 142.983 202.053 142.762 202.085L140.303 202.22C133.247 225.216 131.301 240.559 134.465 248.249H155.901C157.171 251.097 158.387 253.493 159.547 255.437H165.388C165.938 238.345 161.712 223.837 152.711 211.915Z" fill="#FFE900"/>
<path fill-rule="evenodd" clip-rule="evenodd" d="M151.233 236.438C150.559 241.863 149.463 245.799 147.946 248.249L155.901 248.249C154.42 244.927 152.864 240.99 151.233 236.438Z" fill="black" fill-opacity="0.1"/>
<path fill-rule="evenodd" clip-rule="evenodd" d="M124.153 312.109C124.551 313.131 124.75 313.896 124.75 314.404C124.75 315.021 124.643 315.922 124.43 317.106C123.685 317.106 116.993 317.106 104.353 317.106C103.831 315.448 104.132 314.552 105.256 314.42C106.38 314.288 107.314 314.168 108.058 314.062L117.389 310.061C117.569 309.984 117.779 310.062 117.859 310.234C117.861 310.237 117.862 310.24 117.863 310.243L118.463 311.642C119.504 312.109 120.349 312.343 121 312.343C121.528 312.343 122.258 312.138 123.19 311.727C123.547 311.569 123.97 311.72 124.134 312.064C124.141 312.079 124.147 312.094 124.153 312.109Z" fill="#E4E4E4"/>
<path fill-rule="evenodd" clip-rule="evenodd" d="M166.513 312.109C166.911 313.131 167.11 313.896 167.11 314.404C167.11 315.021 167.003 315.922 166.789 317.106C166.044 317.106 159.352 317.106 146.712 317.106C146.19 315.448 146.492 314.552 147.616 314.42C148.74 314.288 149.674 314.168 150.417 314.062L157.321 310.202C157.321 310.202 157.677 310.031 158.567 310.243L160.822 311.642C161.863 312.109 162.709 312.343 163.359 312.343C163.888 312.343 164.618 312.137 165.549 311.727C165.907 311.569 166.329 311.72 166.493 312.064C166.5 312.079 166.507 312.094 166.513 312.109Z" fill="#E4E4E4"/>
<path fill-rule="evenodd" clip-rule="evenodd" d="M36.6516 81.8289C35.4263 86.1816 33.8295 95.9656 35.4589 97.5003H45.7674C45.7684 97.4827 45.7695 97.4651 45.7705 97.4475C49.5912 97.0399 52.5629 93.917 52.5629 90.125V82.9288C52.5629 78.8598 49.1412 75.5613 44.9204 75.5613H44.2095C40.3764 75.5613 37.2024 78.2816 36.6516 81.8289Z" fill="#DE7800"/>
<path fill-rule="evenodd" clip-rule="evenodd" d="M48.5596 88.751C50.1975 86.8975 51.3061 84.6261 51.1209 82.0809C50.5871 74.7474 39.9977 76.3607 37.9379 80.062C35.878 83.7633 36.1228 93.1519 38.785 93.8134C39.8466 94.0772 42.1083 93.431 44.4102 92.0935L42.9653 101.947H51.4965L48.5596 88.751Z" fill="#EBB786"/>
<path fill-rule="evenodd" clip-rule="evenodd" d="M46.2534 87.5121C45.8603 91.5824 46.0178 96.2306 47.1892 97.334H57.4977C58.0721 87.7138 52.5212 91.4392 52.5212 82.3815C52.1751 82.0555 51.8481 81.7329 51.5245 81.4547L51.536 81.1883C49.751 77.6654 47.4864 75.904 44.7422 75.904C40.6259 75.904 39.3266 77.7504 38.2204 79.3181C39.0476 82.0544 42.2578 82.4601 45.1103 84.1657C45.4465 83.9024 45.8753 83.7445 46.3423 83.7445C47.422 83.7445 48.2973 84.5884 48.2973 85.6293C48.2973 86.6702 47.422 87.514 46.3423 87.514C46.3125 87.514 46.2829 87.5133 46.2534 87.5121Z" fill="#DE7800"/>
<path fill-rule="evenodd" clip-rule="evenodd" d="M20.7896 121.955L7.72855 116.671C5.42086 114.516 3.1997 112.888 1.06506 111.784C0.429108 111.601 -0.652992 111.562 0.526703 113.175C1.7064 114.788 2.87231 116.537 2.42058 117.119C1.96885 117.7 0.623566 117.093 0.111023 118.034C-0.230675 118.662 2.03181 119.363 6.89848 120.137L16.7299 127.182L20.7896 121.955Z" fill="#EBB786"/>
<path fill-rule="evenodd" clip-rule="evenodd" d="M60.9784 141.282C60.3375 149.715 19.0469 174.544 18.8059 175.24C18.6989 175.55 22.983 185.337 31.6582 204.601L28.0487 205.954C14.7424 185.551 8.43101 174.263 9.11446 172.089C10.093 168.976 20.7719 158.737 41.1513 141.372L60.9784 141.282Z" fill="#D7AB81"/>
<path fill-rule="evenodd" clip-rule="evenodd" d="M30.7083 200.251L24.8154 202.319C12.3892 188.803 7.51849 177.651 8.4066 171.969C8.99867 168.181 19.6408 157.959 40.333 141.303L61.401 141.303C60.6822 160.833 22.4109 175.315 21.899 176.147C21.3871 176.979 26.4248 185.13 30.7083 200.251Z" fill="#2F3676"/>
<path fill-rule="evenodd" clip-rule="evenodd" d="M32.9862 203.937C33.723 204.768 34.1815 205.422 34.3617 205.899C34.581 206.48 34.8006 207.362 35.0205 208.547C34.3217 208.792 28.0418 210.995 16.1807 215.157C15.102 213.769 15.0666 212.827 16.0744 212.333C17.0823 211.838 17.9161 211.418 18.5759 211.073L25.9116 204.238C26.0528 204.106 26.2778 204.11 26.4143 204.246C26.4166 204.248 26.4189 204.251 26.4212 204.253L27.481 205.372C28.6233 205.468 29.4997 205.409 30.1102 205.195C30.6062 205.021 31.2183 204.588 31.9465 203.895C32.2259 203.629 32.676 203.632 32.9518 203.901C32.9637 203.913 32.9752 203.925 32.9862 203.937Z" fill="#E4E4E4"/>
<path fill-rule="evenodd" clip-rule="evenodd" d="M56.2309 141.282L74.6247 183.852L92.7031 219.841H88.4378L41.7728 141.282H56.2309Z" fill="#EBB786"/>
<path fill-rule="evenodd" clip-rule="evenodd" d="M92.9582 218.18C93.3558 219.203 93.5547 219.969 93.5547 220.477C93.5547 221.095 93.4479 221.997 93.2343 223.182C92.4907 223.182 85.8078 223.182 73.1855 223.182C72.6645 221.522 72.9652 220.625 74.0877 220.493C75.2102 220.36 76.1427 220.241 76.8852 220.134L86.2037 216.129C86.383 216.052 86.5931 216.13 86.6731 216.303C86.6744 216.306 86.6758 216.309 86.677 216.312L87.276 217.712C88.3152 218.18 89.1596 218.414 89.8093 218.414C90.3371 218.414 91.0661 218.208 91.9962 217.797C92.3531 217.639 92.7751 217.79 92.9387 218.134C92.9457 218.149 92.9522 218.164 92.9582 218.18Z" fill="#E4E4E4"/>
<path fill-rule="evenodd" clip-rule="evenodd" d="M91.0705 212.365L81.593 214.078C74.2651 203.692 43.5974 161.107 40.2349 141.282H61.3339C72.5627 155.613 84.0855 201.807 91.0705 212.365Z" fill="#5C63AB"/>
<path fill-rule="evenodd" clip-rule="evenodd" d="M36.4267 118.876C31.8482 119.972 24.1705 118.679 13.3934 114.996C10.7202 120.307 9.48449 124.094 9.68618 126.356C18.9313 130.995 26.8552 133.063 33.3835 133.199C33.176 136.92 33.6475 140.46 35.2314 143.694C38.4875 150.344 57.5542 144.186 63.965 145.398C67.9796 132.875 60.2172 127.786 60.211 119.774C60.2041 110.999 52.8684 97.4926 51.7891 97.4926H41.9465C41.4034 104.194 38.67 111.579 36.4267 118.876Z" fill="#FFE900"/>
</svg>
