<svg width="200" height="228" viewBox="0 0 200 228" fill="none" xmlns="http://www.w3.org/2000/svg">
<path d="M84.9615 54.3318C66.9299 54.3318 49.6614 55.3049 37.5682 70.6963C34.3979 74.7313 31.4766 78.8919 30.4485 84.0324C29.3725 89.4125 31.4023 93.571 32.7863 98.9092C34.8396 106.829 36.1181 112.533 41.4999 118.94C46.8851 125.351 54.9855 131.176 62.6463 134.667C71.5902 138.742 80.4002 142.941 90.2747 144.018C98.6022 144.926 107.665 139.19 114.821 135.836C134.57 126.578 140.845 104.211 137.509 84.1918C135.432 71.7342 123.196 56.2258 110.412 54.3318C107.326 53.8747 104.347 52.5399 101.432 51.4627C98.3809 50.335 95.2794 50.8418 92.1874 50.0282C77.1945 46.0826 64.3878 57.6909 54.3577 67.721" stroke="#A2A2A2" stroke-width="3" stroke-linecap="round"/>
<path d="M77.3105 54.3319C67.3492 54.3319 57.3006 53.9983 47.1318 56.0321C31.3771 59.183 20.8848 69.9352 20.8848 86.3171C20.8848 92.9561 22.7069 101.42 25.4541 107.463C28.192 113.487 34.4608 121.081 35.124 127.547C36.1064 137.125 32.0635 144.465 30.661 153.582C29.3996 161.78 27.5793 172.088 27.5793 179.616" stroke="#A2A2A2" stroke-width="3" stroke-linecap="round"/>
<path d="M75.3975 53.3751C75.9662 47.688 86.3756 43.2639 91.1775 42.9082C99.8183 42.2681 108.365 40.684 116.734 42.6425C124.058 44.3566 134.969 49.3161 137.986 56.7224C141.59 65.5666 136.569 74.5415 134.267 83.0225C131.647 92.6776 129.973 102.764 136.605 111.607C140.783 117.178 144.778 122.514 147.125 129.141C150.356 138.265 147.202 147.581 143.353 155.76C138.324 166.446 139.433 177.95 137.561 189.179" stroke="#A2A2A2" stroke-width="3" stroke-linecap="round"/>
<path d="M65.8345 90.6738C65.8345 92.8353 68.9894 92.5865 64.8782 92.5865C62.8414 92.5865 60.8047 92.5865 58.768 92.5865C56.4125 92.5865 63.479 92.5865 65.8345 92.5865C70.3901 92.5865 68.4791 91.7836 67.7473 91.4176C66.5943 90.8412 61.3067 92.3351 62.5404 91.6302C64.8072 90.3348 66.1009 90.2502 64.8782 87.8047" stroke="#A2A2A2" stroke-width="3" stroke-linecap="round"/>
<path d="M92.6127 92.5865C98.1819 92.5865 114.651 93.2133 109.296 91.6833C104.652 90.3564 98.3749 91.8068 93.7816 91.6302C90.1552 91.4907 94.6425 91.8002 96.6507 92.374C101.185 93.6694 99.7682 91.2605 100.795 90.6738C107.664 86.7484 99.6793 89.9297 100.264 88.761" stroke="#A2A2A2" stroke-width="3" stroke-linecap="round"/>
<path d="M77.3101 105.02C77.3101 107.117 72.8474 108.526 75.3973 109.801" stroke="#A2A2A2" stroke-width="3" stroke-linecap="round"/>
<path d="M81.136 103.106C81.136 102.55 80.7576 106.345 82.6237 106.879C83.929 107.252 87.8544 108.845 84.0051 108.845" stroke="#A2A2A2" stroke-width="3" stroke-linecap="round"/>
<path d="M78.2666 111.714C80.3743 111.714 80.6189 111.868 81.1357 109.801" stroke="#A2A2A2" stroke-width="3" stroke-linecap="round"/>
<path d="M71.5723 119.365C75.0326 119.365 77.8405 122.7 81.2422 123.615C89.5325 125.847 96.9875 116.902 102.176 111.714" stroke="#A2A2A2" stroke-width="3" stroke-linecap="round"/>
<path d="M84.9609 34.248C89.8761 30.6436 93.8128 23.15 97.2875 18.096C98.4592 16.3917 99.5493 13.0789 101.219 11.8265C102.007 11.236 104.056 17.6408 104.301 18.2023C106.134 22.4119 109.105 25.7789 111.739 29.4662" stroke="#A2A2A2" stroke-width="3" stroke-linecap="round"/>
<path d="M41.9249 46.6808C41.9249 53.5922 40.5426 29.1058 33.7958 27.6065C30.9902 26.9831 27.303 51.2721 26.623 54.3317" stroke="#A2A2A2" stroke-width="3" stroke-linecap="round"/>
<path d="M178.686 12.2517C176.311 12.2517 173.867 11.8931 171.779 13.2081C169.331 14.7495 166.612 15.0276 164.34 16.2897C162.663 17.2217 163.163 20.7034 164.34 21.8154C166.234 23.6041 170.338 22.7717 172.735 22.7717C177.575 22.7717 182.869 21.3946 186.124 17.7774C187.949 15.75 181.62 13.5532 180.811 13.4206C176.243 12.6716 172.448 14.0502 168.166 15.1208" stroke="#A2A2A2" stroke-width="3" stroke-linecap="round"/>
<path d="M153.82 10.3384C154.024 13.5973 159.559 14.0907 159.559 10.551C159.559 7.79288 155.667 7.81015 153.82 8.42569" stroke="#A2A2A2" stroke-width="3" stroke-linecap="round"/>
<path d="M161.471 4.60071C161.877 8.66093 165.601 9.18453 167.156 5.55708C168.327 2.82326 163.383 0.27026 163.383 4.60071" stroke="#A2A2A2" stroke-width="3" stroke-linecap="round"/>
<path d="M173.904 4.60052C171.7 4.87598 173.716 9.56965 176.773 6.51326C179.344 3.9416 176.136 -1.77711 172.947 4.60052" stroke="#A2A2A2" stroke-width="3" stroke-linecap="round"/>
<path d="M182.511 5.55664C182.403 6.64225 181.023 7.86885 181.023 8.63827C181.023 10.143 183.716 10.6378 184.371 9.32898C185.924 6.22213 186.172 5.29284 182.511 6.51301" stroke="#A2A2A2" stroke-width="3" stroke-linecap="round"/>
<path d="M190.162 13.208C187.494 13.8009 188.187 17.3568 191.065 15.9177C193.891 14.5046 191.727 11.556 188.249 14.1643" stroke="#A2A2A2" stroke-width="3" stroke-linecap="round"/>
<path d="M164.34 173.879C170.67 156.615 180.939 137.613 179.96 118.728C179.273 105.467 173.097 90.849 166.252 79.6231C164.202 76.2606 160.267 69.4572 155.732 70.5908" stroke="#A2A2A2" stroke-width="3" stroke-linecap="round"/>
<path d="M157.646 69.6338C161.747 70.1995 164.406 72.8924 167.422 75.5314C174.53 81.7515 181.249 87.483 186.283 95.6151C194.072 108.197 196.496 120.183 197.813 134.667" stroke="#A2A2A2" stroke-width="3" stroke-linecap="round"/>
<path d="M196.857 130.842C197.808 137.975 198.925 143.425 197.122 150.713C194.099 162.936 187.978 173.692 181.555 184.398" stroke="#A2A2A2" stroke-width="3" stroke-linecap="round"/>
<path d="M181.555 184.398C177.729 190.237 174.85 195.909 172.947 202.569" stroke="#A2A2A2" stroke-width="3" stroke-linecap="round"/>
<path d="M166.253 168.14C162.611 172.692 165.296 186.258 165.296 192.049" stroke="#A2A2A2" stroke-width="3" stroke-linecap="round"/>
<path d="M69.6595 142.318C69.6595 147.213 70.6159 152.004 70.6159 157.036C70.6159 161.716 63.1433 164.301 60.0958 167.184C47.9139 178.707 30.5713 181.622 17.5375 192.05C6.56334 200.829 -6.94313 218.177 11.3211 226.479" stroke="#A2A2A2" stroke-width="3" stroke-linecap="round"/>
<path d="M119.391 134.667C119.391 138.283 118.435 141.683 118.435 145.134C118.435 148.143 119.391 150.789 119.391 153.794" stroke="#A2A2A2" stroke-width="3" stroke-linecap="round"/>
<path d="M117.478 153.794C117.478 157.718 118.363 159.763 119.39 163.358C120.475 167.155 128.724 166.801 132.036 168.139C141.072 171.792 153.668 174.753 159.983 182.591C167.511 191.937 168.188 195.943 170.5 207.5" stroke="#A2A2A2" stroke-width="3" stroke-linecap="round"/>
</svg>
