<svg width="207" height="203" viewBox="0 0 207 203" fill="none" xmlns="http://www.w3.org/2000/svg">
<path d="M69.1802 46.1566C51.399 46.1566 36.1127 67.5224 34.8041 83.8801C32.3323 114.777 58.7967 134.416 87.3512 136.002C102.253 136.83 115.746 133.486 129.431 127.926C145.681 121.325 150.264 102.882 145.477 87.2805C140.94 72.4922 124.268 59.2115 111.26 51.8949C104.601 48.1489 98.699 43.7336 91.1767 41.853C84.6885 40.2309 78.1341 40.198 71.5711 41.6405C66.8443 42.6793 62.215 44.4944 58.1288 47.113C52.4347 50.762 51.2555 54.9903 48.1401 60.5022" stroke="#A2A2A2" stroke-width="3" stroke-linecap="round"/>
<path d="M66.3107 47.113C61.1905 38.4088 41.8005 43.5203 35.335 47.5912C30.5421 50.609 29.9687 55.8549 29.9687 61.0335C29.9687 66.5747 23.3178 68.3009 19.6612 71.4473C14.5607 75.8361 16.8871 81.6759 21.7333 84.8365C28.2846 89.1091 23.7889 93.4603 19.5549 97.6943C14.5591 102.69 26.4423 104.761 29.7562 107.152C33.0436 109.523 33.3645 112.506 31.2438 115.972C30.6907 116.876 27.2048 119.797 28.056 119.797" stroke="#A2A2A2" stroke-width="3" stroke-linecap="round"/>
<path d="M65.3545 47.1127C66.5136 46.678 67.2598 43.881 68.2236 42.8622C70.7583 40.1826 73.4583 37.4992 77.0434 36.2738C82.3485 34.4607 91.3083 33.7742 96.7021 35.8488C99.6228 36.9721 96.6898 42.9991 100.74 44.9874C106.89 48.0063 127.308 47.5391 123.162 59.3861C120.982 65.6137 132.816 63.7324 136.816 66.3995C139.709 68.3275 138.995 72.2267 138.995 75.2193C138.995 77.9807 140.257 78.2746 142.448 79.7355C146.338 82.3288 149.132 85.1856 149.356 90.0961C149.468 92.5628 147.545 96.7635 149.727 98.7034C152.968 101.584 156.941 102.075 158.866 106.567C161.146 111.887 159.013 117.587 157.166 122.666" stroke="#A2A2A2" stroke-width="3" stroke-linecap="round"/>
<path d="M60.5729 81.5424C64.1188 81.5424 65.6621 86.8822 70.6148 83.0301C71.2645 82.5248 75.7828 82.4253 73.4839 80.5861C71.8146 79.2507 71.6224 77.717 69.1802 77.717C65.6861 77.717 59.9844 76.6685 58.7133 81.1174C58.1188 83.1981 67.6447 87.0788 65.3547 82.4988" stroke="#A2A2A2" stroke-width="3" stroke-linecap="round"/>
<path d="M96.915 77.7168C97.338 81.5231 106.945 83.7204 108.604 80.5859C111.321 75.4543 102.703 75.8205 99.7841 74.8477" stroke="#A2A2A2" stroke-width="3" stroke-linecap="round"/>
<path d="M95.959 77.7169C98.7066 77.7169 101.165 77.4507 103.61 78.6733" stroke="#A2A2A2" stroke-width="3" stroke-linecap="round"/>
<path d="M96.915 77.7168C99.6954 77.7168 101.935 77.7963 104.566 78.6732" stroke="#A2A2A2" stroke-width="3" stroke-linecap="round"/>
<path d="M84.4821 96.8438C86.7008 99.3398 85.2192 100.669 82.5693 100.669" stroke="#A2A2A2" stroke-width="3" stroke-linecap="round"/>
<path d="M87.3514 96.8438C87.3514 101.16 86.17 94.481 89.2641 100.669" stroke="#A2A2A2" stroke-width="3" stroke-linecap="round"/>
<path d="M73.9624 112.146C70.4089 108.593 77.6463 112.27 79.86 112.678C94.8808 115.445 105.79 110.605 118.912 103.539" stroke="#A2A2A2" stroke-width="3" stroke-linecap="round"/>
<path d="M85.4386 93.0195C85.4386 95.399 84.7378 95.8025 83.7384 97.8014C83.3316 98.6149 81.8564 101.491 82.1444 101.574C83.8299 102.055 91.1768 101.962 91.1768 99.7141C91.1768 98.4445 88.3583 97.136 87.3513 96.6325C86.1067 96.0102 83.7635 92.3931 84.5354 93.5508C85.8175 95.4741 88.6026 99.8615 90.2204 100.67" stroke="#A2A2A2" stroke-width="3" stroke-linecap="round"/>
<path d="M68.2243 135.1C68.2243 138.796 67.0261 142.047 66.3115 145.62" stroke="#A2A2A2" stroke-width="3" stroke-linecap="round"/>
<path d="M65.3548 146.576C65.0901 148.694 62.7152 150.386 61.1043 151.571C58.8214 153.249 57.4948 154.09 54.6222 154.227C47.1207 154.584 40.3434 158.426 33.1571 160.284C24.2954 162.576 17.1352 164.356 10.8418 171.548C5.67694 177.451 -2.8197 194.851 5.10359 200.133" stroke="#A2A2A2" stroke-width="3" stroke-linecap="round"/>
<path d="M116.042 135.1C116.51 140.245 116.998 145.149 116.998 150.402" stroke="#A2A2A2" stroke-width="3" stroke-linecap="round"/>
<path d="M116.999 151.357C121.109 151.116 123.297 150.108 127.519 151.836C134.958 154.879 142.315 157.18 147.975 163.259C156.83 172.77 161.645 188.259 159.079 201.089" stroke="#A2A2A2" stroke-width="3" stroke-linecap="round"/>
<path d="M162.904 170.485C165.778 168.456 168.001 162.099 169.386 158.796C171.981 152.608 173.883 144.744 174.327 138.075C175.435 121.453 177.799 105.378 174.859 88.7156C173.666 81.9558 173.644 74.7393 170.449 68.5256C166.994 61.8089 162.486 55.7473 159.079 49.0263C155.535 42.0368 151.961 35.0884 147.018 28.9426C143.825 24.973 138.734 21.4654 137.082 16.5098" stroke="#A2A2A2" stroke-width="3" stroke-linecap="round"/>
<path d="M135.169 18.4223C135.169 14.2432 133.999 10.2231 137.56 7.84914C138.461 7.24863 138.633 5.29653 139.579 5.0863C141.222 4.72119 141.92 4.56305 143.352 3.65175C145.427 2.33087 151.042 2.16406 153.553 2.16406C163.348 2.16406 167.245 6.39149 172.361 14.0655C174.907 17.8833 176.387 23.8011 177.462 28.1985C178.032 30.5304 179.127 32.5214 180.119 34.6806C181.4 37.4686 180.762 40.495 182.031 43.2879C187.093 54.4234 186.457 67.845 189.682 79.4174C193.151 91.8642 196.429 103.523 197.386 116.45C198.326 129.141 200.332 141.206 198.502 154.014C196.622 167.173 193.257 183.773 180.119 189.612" stroke="#A2A2A2" stroke-width="3" stroke-linecap="round"/>
<path d="M148.559 29.8989C148.793 31.7757 154.733 27.859 155.838 27.4549C162.001 25.1999 168.178 22.3429 171.511 16.5098" stroke="#A2A2A2" stroke-width="3" stroke-linecap="round"/>
<path d="M153.341 39.4624C160.117 38.7095 169.254 30.8396 173.425 26.0732" stroke="#A2A2A2" stroke-width="3" stroke-linecap="round"/>
<path d="M162.904 58.5894C168.602 58.5894 173.377 54.8115 177.25 50.9385" stroke="#A2A2A2" stroke-width="3" stroke-linecap="round"/>
<path d="M168.643 69.1099C173.109 65.3878 178.247 61.9763 182.988 58.5898" stroke="#A2A2A2" stroke-width="3" stroke-linecap="round"/>
<path d="M175.337 87.2812C175.864 91.4956 187.675 82.3073 188.726 81.543" stroke="#A2A2A2" stroke-width="3" stroke-linecap="round"/>
<path d="M176.294 99.7128C182.883 99.7128 186.298 97.948 191.596 93.9746" stroke="#A2A2A2" stroke-width="3" stroke-linecap="round"/>
<path d="M173.425 129.361C184.291 132.983 195.581 135.509 204.985 127.448" stroke="#A2A2A2" stroke-width="3" stroke-linecap="round"/>
<path d="M174.381 143.706C182.697 149.251 189.603 146.759 198.29 142.75" stroke="#A2A2A2" stroke-width="3" stroke-linecap="round"/>
<path d="M165.773 165.703C168.514 168.444 170.39 171.851 172.999 174.735C177.362 179.558 185.597 176.144 190.639 174.31" stroke="#A2A2A2" stroke-width="3" stroke-linecap="round"/>
<path d="M160.991 173.354C163.848 174.068 167.403 184.252 169.386 186.743C175.232 194.084 179.698 192.243 187.77 188.655" stroke="#A2A2A2" stroke-width="3" stroke-linecap="round"/>
</svg>
