<svg width="175" height="231" viewBox="0 0 175 231" fill="none" xmlns="http://www.w3.org/2000/svg">
<path fill-rule="evenodd" clip-rule="evenodd" d="M83.9542 28.2397C86.3317 25.0629 87.8242 21.2677 87.2393 17.1707C85.5541 5.36602 68.9942 9.13043 66.1615 15.3424C63.3288 21.5544 64.7927 36.7151 69.0783 37.4949C70.7874 37.8059 74.2897 36.5139 77.7762 34.0992L76.6217 50.1968L90.112 49.2665L83.9542 28.2397Z" fill="#EBB786"/>
<path fill-rule="evenodd" clip-rule="evenodd" d="M92.8407 12.8162C93.2463 12.3603 93.4408 11.7361 93.6055 11.1448C93.7765 10.5306 93.941 9.91059 94.0385 9.2768C94.2334 8.01046 94.1344 6.57643 93.1638 5.67048C92.3855 4.94401 91.2754 4.67063 90.2684 4.66403C89.5975 4.65958 88.9186 4.79902 88.2936 5.05053C87.6735 5.30004 87.1554 5.74782 86.5582 6.04475C86.4394 4.70276 86.1064 3.31297 85.3338 2.21339C84.5904 1.15543 83.4861 0.609124 82.2668 0.52853C81.0153 0.445831 79.8115 0.816294 78.7438 1.48462C78.4765 1.65199 78.2122 1.82624 77.9613 2.02014C77.7512 2.18251 77.5345 2.37555 77.2799 2.45324C76.9962 2.53993 76.8415 2.38547 76.6393 2.19084C76.4022 1.96264 76.1394 1.76537 75.8638 1.59343C74.6453 0.833278 73.1003 0.592731 71.7934 1.18886C71.1912 1.46352 70.6176 1.899 70.2365 2.47087C69.8967 2.98063 69.6842 3.76673 69.1918 4.13952C68.9829 4.29776 68.8147 4.1188 68.6052 3.9924C68.2906 3.80247 67.9884 3.58979 67.6706 3.40585C67.2242 3.14741 66.7477 2.96393 66.2458 2.8853C65.511 2.77019 64.5145 2.87776 64.374 3.82596C64.3212 4.18212 64.4073 4.55321 64.4575 4.90493C64.5263 5.3879 64.5966 5.8706 64.6737 6.35228C64.7323 6.718 64.7985 7.07056 64.8945 7.42705C64.9457 7.61707 65.0887 7.96805 65.0187 8.16672C64.9311 8.41503 64.4383 8.31128 64.2325 8.33389C63.8261 8.37861 63.4217 8.47733 63.057 8.67508C62.7743 8.82838 62.4811 9.04537 62.3812 9.38405C62.3198 9.59209 62.3546 9.79905 62.4052 10.0052C62.4659 10.2527 62.4262 10.3889 62.412 10.6438C61.8457 10.4157 59.9066 9.95583 59.7365 10.9399C59.6799 11.2675 59.8867 11.6191 60.0441 11.8813C60.32 12.3412 60.6684 12.7549 61.0225 13.1479C61.761 13.9678 62.6223 14.6595 63.5373 15.2388C62.5501 15.7558 62.3775 17.0918 63.3154 17.816C63.7295 18.1358 64.2587 18.1768 64.7485 18.1208C64.9277 18.1003 65.1821 18.0142 65.3258 18.0353C65.4032 18.0467 65.4892 18.1047 65.5952 18.1046C66.292 18.1036 67.063 17.8848 67.7301 17.6863C68.9188 17.3327 70.0223 16.6895 70.8951 15.7656C71.119 15.5286 71.3079 15.3881 71.6306 15.3691C71.9133 15.3524 72.1959 15.4097 72.4787 15.3973C73.2269 15.3646 73.8748 14.9581 74.5513 14.6706C74.6593 15.5916 74.9983 16.5908 75.4405 17.3956C75.8011 18.0519 76.4607 18.1054 77.1063 18.1207C79.1706 18.1695 81.2136 17.8153 83.2672 17.6765C81.3109 18.2566 79.2698 18.5809 77.3366 19.2382C76.4628 19.5352 77.1848 20.0802 77.5947 20.4643C78.2696 21.0968 78.7951 21.9018 79.181 22.7615C80.0648 21.4444 81.7251 20.5023 83.275 20.7813C84.9876 21.0895 86.3314 23.2516 85.3699 24.9389C84.8117 25.9184 83.7094 26.3577 82.7994 26.8248C83.5848 27.525 83.8405 28.6215 84.3474 29.5251C84.5974 29.9706 84.9394 30.4704 85.4369 30.5973C85.6209 30.6444 85.8321 30.6349 85.9843 30.7697C86.1727 30.9365 86.2287 31.1338 86.4641 31.2721C87.4032 31.8244 88.7987 31.6806 89.5357 30.8246C90.2022 30.0504 89.9341 28.9165 89.2825 28.2232C90.209 27.7651 91.9119 27.1406 91.4286 25.7006C93.4869 25.4225 98.2732 21.7689 95.3264 19.5434C96.7894 18.5895 98.0416 16.4182 96.9336 14.6568C96.0803 13.3004 94.2836 12.7917 92.8407 12.8162Z" fill="#8A6347"/>
<path fill-rule="evenodd" clip-rule="evenodd" d="M101.616 97.2767L59.7571 166.748L28.3752 225.48H21.6158L74.1967 97.2767H101.616Z" fill="#D7AB81"/>
<path fill-rule="evenodd" clip-rule="evenodd" d="M32.0598 222.38C32.6902 224.04 33.0054 225.281 33.0054 226.105C33.0054 227.107 32.8361 228.57 32.4976 230.492C31.3189 230.492 20.7253 230.492 0.716926 230.492C-0.108941 227.799 0.367797 226.346 2.14714 226.131C3.92648 225.917 5.40462 225.723 6.58153 225.55L21.3529 219.056C21.6371 218.931 21.9702 219.056 22.097 219.337C22.0991 219.342 22.1012 219.346 22.1033 219.351L23.0527 221.623C24.7 222.381 26.0385 222.76 27.0683 222.76C27.905 222.76 29.0606 222.426 30.5349 221.76C31.1007 221.504 31.7696 221.749 32.0289 222.307C32.0401 222.331 32.0504 222.355 32.0598 222.38Z" fill="#E4E4E4"/>
<path fill-rule="evenodd" clip-rule="evenodd" d="M36.7251 215.618L23.6158 211.718C29.3593 194.835 36.3988 176.254 44.7343 155.978C53.0698 135.702 62.0218 116.135 71.5904 97.2767H108.616C97.9776 121.131 86.6997 142.806 74.7822 162.302C62.8646 181.797 50.1789 199.569 36.7251 215.618Z" fill="#5C63AB"/>
<path fill-rule="evenodd" clip-rule="evenodd" d="M103.972 97.2767C107.897 121.743 115.466 153.001 116.181 153.966C116.657 154.609 133.802 160.363 167.616 171.227L166.165 177.157C125.842 171.331 104.596 166.81 102.425 163.596C99.1692 158.774 82.9124 120.683 76.6158 97.2767H103.972Z" fill="#EBB786"/>
<path fill-rule="evenodd" clip-rule="evenodd" d="M155.616 165.552L153.068 175.027C122.998 177.655 104.574 175.756 97.7944 169.33C91.0153 162.904 83.2891 138.887 74.6158 97.2767H109.389C114.884 131.35 117.956 149.101 118.605 150.532C119.254 151.962 131.591 156.969 155.616 165.552Z" fill="#8991DC"/>
<path fill-rule="evenodd" clip-rule="evenodd" d="M166.351 168.555C168.118 168.231 169.412 168.141 170.235 168.284C171.236 168.458 172.667 168.876 174.528 169.539C174.323 170.684 172.483 180.972 169.009 200.404C166.177 200.739 164.808 200.023 164.903 198.258C164.997 196.492 165.06 195.023 165.092 193.85L161.172 178.377C161.096 178.079 161.28 177.777 161.582 177.703C161.587 177.702 161.592 177.7 161.597 177.699L164.031 177.172C165.073 175.703 165.684 174.469 165.863 173.469C166.008 172.656 165.876 171.476 165.467 169.929C165.31 169.335 165.67 168.728 166.273 168.573C166.299 168.566 166.325 168.56 166.351 168.555Z" fill="#E4E4E4"/>
<path fill-rule="evenodd" clip-rule="evenodd" d="M50.3744 72.9809L27.9523 65.5213C22.9256 65.0516 18.0187 66.406 14.2693 67.084C13.299 67.4673 11.9249 68.4614 15.0122 69.3411C18.0995 70.2208 21.3068 71.2831 21.3379 72.4453C21.369 73.6075 19.095 74.1446 19.4153 75.8155C19.6288 76.9294 23.1289 75.6253 29.9156 71.9034L48.8925 82.0532L50.3744 72.9809ZM126.998 83.823L117.075 82.0532C119.853 107.143 121.396 120.436 121.703 121.933C122.396 125.301 118.785 129.576 117.142 131.928C120.607 134.287 121.366 128.038 125.721 131.097C129.696 133.89 132.325 138.112 137.927 135.973C138.616 135.71 139.559 134.418 138.131 133.013C134.574 129.51 129.607 123.611 129.112 121.878C128.438 119.514 127.733 106.829 126.998 83.823Z" fill="#EBB786"/>
<path fill-rule="evenodd" clip-rule="evenodd" d="M92.2063 49.0916L77.3482 42.4313C67.5575 60.4907 66.3335 74.944 42.146 60.7034L28.8336 83.6819C51.7246 96.292 69.8244 93.1649 84.6421 69.0725C88.478 62.8357 90.0005 54.946 92.2063 49.0916Z" fill="#D0C11B"/>
<path fill-rule="evenodd" clip-rule="evenodd" d="M110.052 101.896C92.7184 105.98 78.884 107.695 68.5487 107.042C67.2682 106.962 66.6454 101.639 67.0401 100.115C73.1877 76.3878 79.8906 58.4063 77.8885 42.7034C79.6542 43.3514 79.6974 43.8147 83.7637 42.7033C96.9601 57.5052 104.445 75.438 110.052 101.896Z" fill="#DDE3E9"/>
<path fill-rule="evenodd" clip-rule="evenodd" d="M90.975 37.7167L77.3918 42.4268C80.1131 66.0812 74.2087 82.0279 72.2905 99.8579L109.954 95.6438C111.176 101.594 112.212 107.734 113.112 114.059L141.313 110.904C131.065 78.0868 114.592 53.654 91.8947 37.6053L90.9813 37.7075L90.975 37.7167Z" fill="#FFE900"/>
<path fill-rule="evenodd" clip-rule="evenodd" d="M83.826 60.1527C84.8029 74.9872 84.2284 86.3081 82.1025 94.1153H89.8064C88.7487 82.1342 86.8823 70.8133 83.826 60.1527Z" fill="black" fill-opacity="0.1"/>
</svg>
