<svg width="148" height="243" viewBox="0 0 148 243" fill="none" xmlns="http://www.w3.org/2000/svg">
<path fill-rule="evenodd" clip-rule="evenodd" d="M71.0561 42.7793C73.753 39.6575 75.5782 35.8318 75.2732 31.5449C74.3944 19.1932 56.9595 21.9104 53.568 28.1445C50.1765 34.3786 50.5795 50.1918 54.9627 51.306C56.7107 51.7503 60.4345 50.6619 64.2244 48.4091L61.8455 65.006H75.8917L71.0561 42.7793Z" fill="#EBB786"/>
<path fill-rule="evenodd" clip-rule="evenodd" d="M61.574 20.9595C63.4252 20.6601 68.4098 20.4543 69.329 20.4544C69.9165 20.4544 70.5531 20.5868 70.901 20.0549C71.1859 19.6193 71.0816 18.8825 71.1666 18.3771C71.2653 17.7898 71.4056 17.2102 71.5474 16.632C71.9511 14.9868 72.5615 13.4215 73.4156 11.952C75.0182 9.1949 77.3659 7.03526 80.3299 5.77858C83.6029 4.391 87.3066 4.07328 90.8272 4.35472C94.5947 4.65584 98.0052 5.88236 101.562 7.03659C104.952 8.13647 108.503 8.56941 112.048 8.03229C115.62 7.49119 118.319 5.58191 121.332 3.76977C124.416 1.91457 127.941 0.701208 131.588 0.980131C134.991 1.24058 138.128 2.62657 140.943 4.47804C143.576 6.21032 145.749 8.29447 146.976 11.2278C148.296 14.3831 148.294 17.8466 146.124 20.6352C142.979 24.6772 137.139 25.7225 132.281 25.6186C129.471 25.5586 126.711 25.0528 124.058 24.1325C120.519 22.9052 117.462 20.825 114.152 19.1373C112.598 18.3453 110.993 17.6948 109.31 17.2263C107.676 16.7714 106.068 16.5628 104.589 17.5358C103.025 18.5651 101.623 19.5762 99.8333 20.2206C98.1165 20.8387 96.2981 21.1845 94.469 21.1705C90.9102 21.1434 87.4021 20.0499 83.9457 19.3175C81.1271 18.7203 78.1114 18.1251 75.2378 18.6992C74.0388 18.9388 72.2873 19.4334 71.8542 20.6623C79.1433 21.9651 82.0061 30.855 79.9512 37.3811C78.8421 40.9034 72.1754 45.021 69.5833 43.1693C67.9412 41.9961 68.9381 40.456 69.5833 39.4393C70.8189 37.4923 71.2417 34.9913 68.9553 33.6357C66.9832 32.4666 64.9096 35.243 64.8704 35.2399C64.3283 35.1978 59.6447 32.5856 56.4177 28.7737C53.2343 28.9598 52.7514 26.8898 53.5115 25.1969C54.2716 23.504 59.0161 21.3735 61.574 20.9595Z" fill="#925B1C"/>
<path fill-rule="evenodd" clip-rule="evenodd" d="M74.977 115.275L55.1856 182.532L45.8768 233.029H36.5334L45.8601 115.275H74.977Z" fill="#D7AB81"/>
<path fill-rule="evenodd" clip-rule="evenodd" d="M83.8714 115.275C82.4905 150.215 83.0351 169.272 83.3442 172.446C83.6532 175.62 85.4079 196.881 97.3647 234.095H87.6469C71.812 198.394 66.2842 177.134 64.4681 172.446C62.652 167.758 57.2881 148.701 49.4571 115.275H83.8714Z" fill="#EBB786"/>
<path fill-rule="evenodd" clip-rule="evenodd" d="M75.4019 115.275C70.2538 138.418 61.3499 175.361 48.6901 226.103H35.0245C34.0151 174.021 38.3089 139.743 45.7447 115.275H75.4019Z" fill="#69A1AC"/>
<path fill-rule="evenodd" clip-rule="evenodd" d="M83.9405 115.275C82.588 150.215 86.093 184.637 96.9504 226.647H82.3699C66.506 191.478 55.1358 157.226 47.365 115.275H83.9405Z" fill="#89C5CC"/>
<path fill-rule="evenodd" clip-rule="evenodd" d="M98.7499 241.022L98.2137 232.496C95.0743 233.402 91.1422 233.047 86.4173 231.431C81.3369 234.98 74.9414 237.403 67.2307 238.701C66.6424 238.8 66.2469 239.35 66.3473 239.93C66.3538 239.968 66.3623 240.005 66.3729 240.042L67.1142 242.62H97.6775L98.7499 241.022Z" fill="#E4E4E4"/>
<path fill-rule="evenodd" clip-rule="evenodd" d="M47.9624 241.022L47.4262 232.496C44.2868 233.402 40.3547 233.047 35.6298 231.431C30.5494 234.98 24.1539 237.403 16.4432 238.701C15.8549 238.8 15.4594 239.35 15.5598 239.93C15.5663 239.968 15.5748 240.005 15.5853 240.042L16.3266 242.62H46.89L47.9624 241.022Z" fill="#E4E4E4"/>
<path fill-rule="evenodd" clip-rule="evenodd" d="M29.0406 103.753L12.4614 119.703C7.63751 121.732 3.68499 123.973 0.603886 126.425C-0.0890077 127.249 -0.843341 128.828 2.41669 128.122C5.67673 127.415 9.13804 126.816 9.75075 127.862C10.3635 128.907 8.55804 130.509 9.69042 131.878C10.4453 132.79 12.9842 129.888 17.307 123.173L34.5471 113.149L29.0406 103.753ZM102.629 106.002L90.3985 106.05C97.9502 130.091 102.027 142.847 102.629 144.318C103.983 147.628 101.117 152.668 99.8918 155.377C103.883 157.139 103.458 150.616 108.493 152.926C113.089 155.034 116.585 158.855 121.895 155.624C122.548 155.227 123.263 153.731 121.535 152.562C117.228 149.65 111.023 144.554 110.185 142.876C109.041 140.589 106.523 128.297 102.629 106.002Z" fill="#EBB786"/>
<path fill-rule="evenodd" clip-rule="evenodd" d="M67.8721 55.3915L62.8113 54.5355C54.0982 76.0005 38.8862 95.5042 17.1751 113.047L33.5811 132.703C55.2896 107.725 68.6708 81.9544 67.8721 55.3915Z" fill="#D0C11B"/>
<path fill-rule="evenodd" clip-rule="evenodd" d="M89.9334 118.111H44.8685C55.309 93.0766 60.5292 71.81 60.5292 54.3115L74.1231 52.314C84.8066 69.2588 87.8236 90.1212 89.9334 118.111Z" fill="#DDE3E9"/>
<path fill-rule="evenodd" clip-rule="evenodd" d="M74.4109 52.3235C74.4091 52.3204 74.4073 52.3172 74.4055 52.314H73.5182C72.4564 52.3501 70.8392 52.4151 68.6665 52.5089L65.3817 61.7663C65.0343 73.0531 63.0052 95.7991 59.2945 130.004H88.8354C88.7579 132.367 88.6302 134.751 88.4523 137.158H110.417C107.132 100.602 95.1333 72.321 74.4217 52.314L74.4109 52.3235Z" fill="#FFE900"/>
<path fill-rule="evenodd" clip-rule="evenodd" d="M86.884 99.7764C86.0433 114.503 83.9384 124.654 80.5693 130.232H88.8278C89.1893 119.637 88.5414 109.485 86.884 99.7764Z" fill="black" fill-opacity="0.1"/>
<path fill-rule="evenodd" clip-rule="evenodd" d="M82.2601 112.34L67.6936 105.661V112.34H82.2601Z" fill="white" fill-opacity="0.2"/>
</svg>
