<svg width="142" height="231" viewBox="0 0 142 231" fill="none" xmlns="http://www.w3.org/2000/svg">
<path fill-rule="evenodd" clip-rule="evenodd" d="M55.6306 10.0513C53.7708 16.8265 51.3471 32.0557 53.8203 34.4446H69.4669C69.4685 34.4172 69.47 34.3898 69.4716 34.3625C75.2709 33.728 79.7813 28.8671 79.7813 22.9647V11.7634C79.7813 5.4298 74.5878 0.29541 68.1813 0.29541H67.1022C61.2842 0.29541 56.4666 4.52978 55.6306 10.0513Z" fill="#DE7800"/>
<path fill-rule="evenodd" clip-rule="evenodd" d="M73.7049 20.8258C76.191 17.9408 77.8737 14.4052 77.5925 10.4435C76.7824 -0.971412 60.7095 1.53972 57.583 7.30097C54.4565 13.0622 54.828 27.6761 58.8687 28.7058C60.4802 29.1165 63.913 28.1106 67.4069 26.0286L65.2138 41.3668H78.1627L73.7049 20.8258Z" fill="#EBB786"/>
<path fill-rule="evenodd" clip-rule="evenodd" d="M70.2046 18.8974C69.608 25.2331 69.847 32.4683 71.625 34.1857H87.2716C88.1433 19.2114 79.718 25.0101 79.718 10.9114C79.1928 10.4041 78.6964 9.90185 78.2053 9.46875L78.2227 9.05411C75.5133 3.57057 72.076 0.828804 67.9108 0.828804C61.6629 0.828804 59.6908 3.7029 58.0117 6.14306C59.2673 10.4023 64.1399 11.0338 68.4695 13.6887C68.9799 13.2788 69.6306 13.0331 70.3394 13.0331C71.9783 13.0331 73.3069 14.3465 73.3069 15.9667C73.3069 17.587 71.9783 18.9004 70.3394 18.9004C70.2942 18.9004 70.2493 18.8994 70.2046 18.8974Z" fill="#DE7800"/>
<path fill-rule="evenodd" clip-rule="evenodd" d="M31.5548 72.5103L11.7303 64.2848C8.22759 60.931 4.85624 58.3957 1.61622 56.6787C0.650951 56.3929 -0.991497 56.3326 0.799081 58.8435C2.58966 61.3545 4.35931 64.0762 3.67367 64.9815C2.98802 65.8868 0.946105 64.9415 0.168145 66.4071C-0.350495 67.3843 3.08357 68.475 10.4704 69.6795L25.3929 80.6462L31.5548 72.5103Z" fill="#EBB786"/>
<path fill-rule="evenodd" clip-rule="evenodd" d="M92.5547 102.593C91.5818 115.72 28.9096 154.367 28.5439 155.451C28.3814 155.933 34.8839 171.167 48.0515 201.153L42.5729 203.258C22.3762 171.5 12.7965 153.93 13.8339 150.546C15.3191 145.701 31.528 129.763 62.4605 102.733L92.5547 102.593Z" fill="#D7AB81"/>
<path fill-rule="evenodd" clip-rule="evenodd" d="M46.6097 194.381L37.6652 197.6C18.8044 176.562 11.4114 159.203 12.7594 150.359C13.6581 144.462 29.8111 128.551 61.2183 102.626L93.1961 102.626C92.105 133.025 34.0156 155.567 33.2387 156.862C32.4617 158.157 40.108 170.845 46.6097 194.381Z" fill="#2F3676"/>
<path fill-rule="evenodd" clip-rule="evenodd" d="M50.0671 200.119C51.1855 201.412 51.8814 202.43 52.155 203.173C52.4878 204.077 52.821 205.451 53.1548 207.294C52.0942 207.676 42.5624 211.106 24.5592 217.584C22.922 215.422 22.8682 213.957 24.3979 213.187C25.9276 212.417 27.1933 211.764 28.1948 211.227L39.3292 200.587C39.5434 200.382 39.885 200.388 40.0921 200.6C40.0956 200.603 40.0991 200.607 40.1025 200.611L41.7112 202.352C43.445 202.502 44.7752 202.411 45.7018 202.077C46.4547 201.806 47.3838 201.132 48.489 200.053C48.9131 199.639 49.5964 199.644 50.015 200.063C50.0331 200.081 50.0504 200.1 50.0671 200.119Z" fill="#E4E4E4"/>
<path fill-rule="evenodd" clip-rule="evenodd" d="M85.3487 102.594L113.268 168.855L140.707 224.874H134.233L63.4037 102.594H85.3487Z" fill="#EBB786"/>
<path fill-rule="evenodd" clip-rule="evenodd" d="M141.095 222.288C141.698 223.881 142 225.073 142 225.864C142 226.826 141.838 228.229 141.514 230.075C140.385 230.075 130.241 230.075 111.083 230.075C110.292 227.49 110.749 226.095 112.452 225.889C114.156 225.683 115.572 225.497 116.698 225.331L130.842 219.097C131.115 218.977 131.434 219.098 131.555 219.367C131.557 219.371 131.559 219.376 131.561 219.381L132.47 221.561C134.047 222.289 135.329 222.652 136.315 222.652C137.116 222.652 138.223 222.332 139.634 221.693C140.176 221.447 140.817 221.682 141.065 222.218C141.076 222.241 141.086 222.264 141.095 222.288Z" fill="#E4E4E4"/>
<path fill-rule="evenodd" clip-rule="evenodd" d="M138.229 213.237L123.844 215.904C112.722 199.738 66.1731 133.451 61.0695 102.594H93.0942C110.138 124.901 127.627 196.803 138.229 213.237Z" fill="#5C63AB"/>
<path fill-rule="evenodd" clip-rule="evenodd" d="M55.2892 67.7165C48.3399 69.4236 36.6864 67.4105 20.3285 61.6773C16.2711 69.9451 14.3955 75.8394 14.7016 79.3603C28.7342 86.5801 40.7614 89.7991 50.6701 90.0116C50.3552 95.8027 51.0709 101.313 53.4749 106.348C58.4173 116.699 87.3573 107.113 97.0878 109C103.181 89.5077 91.3993 81.5862 91.3898 69.1141C91.3794 55.4559 80.2451 34.4326 78.6069 34.4326H63.6674C62.8431 44.8636 58.6942 56.3595 55.2892 67.7165Z" fill="#FFE900"/>
</svg>
