<svg width="115" height="210" viewBox="0 0 115 210" fill="none" xmlns="http://www.w3.org/2000/svg">
<path fill-rule="evenodd" clip-rule="evenodd" d="M65.2857 20.0145C67.7753 17.1326 69.4603 13.6008 69.1788 9.64325C68.3675 -1.75944 52.2721 0.749007 49.1412 6.50411C46.0103 12.2592 46.3823 26.8575 50.4287 27.8861C52.0424 28.2963 55.4801 27.2915 58.9788 25.2118L56.7827 40.5335H69.7497L65.2857 20.0145Z" fill="#E7B485"/>
<path fill-rule="evenodd" clip-rule="evenodd" d="M58.3305 10.9026C57.8341 17.7212 56.5211 21.1305 54.3915 21.1305C51.1968 21.1305 48.4864 19.1305 47.0847 19.1305C46.0629 19.1305 46.291 20.3915 46.9683 21.3265C47.5271 22.0979 50.2485 22.8414 50.2485 24.0373C50.2485 25.2332 48.0984 24.308 48.0984 25.0173C48.0984 26.1905 47.7205 28.3963 49.7853 28.3963C51.8749 28.3963 57.8661 27.6453 58.8929 24.5869C59.5555 22.613 59.9839 18.5228 60.1782 12.3163C60.3049 12.3015 60.434 12.2938 60.5648 12.2938C62.3551 12.2938 63.8065 13.7251 63.8065 15.4908C63.8065 16.3871 63.4325 17.1973 62.8299 17.7778C63.58 18.8219 64.4207 19.9126 65.384 21.0381C69.0028 18.8969 71.1157 12.2938 68.6156 6.24894C67.1157 3.29041 64.9584 2.08236 62.3438 1.35078C60.2258 0.477058 58.0271 0.378545 56.1711 0.902332C52.5328 1.21009 49.284 2.30416 48.3632 2.95391C48.3632 6.35078 49.0307 7.35862 54.7313 7.26979C56.1321 7.99932 57.2089 9.25558 58.3305 10.9026Z" fill="#2D2D40"/>
<path fill-rule="evenodd" clip-rule="evenodd" d="M73.6157 85.1431L54.1618 152.703L39.9681 202.498H29.6157L44.6986 85.1431H73.6157Z" fill="#69A1AC"/>
<path fill-rule="evenodd" clip-rule="evenodd" d="M79.3437 85.1431C79.8009 119.964 81.36 138.957 81.84 142.12C82.3201 145.284 89.5786 165.41 103.616 202.498H92.7188C74.8486 166.918 64.8729 146.792 62.7919 142.12C60.7109 137.448 54.2887 118.456 44.6157 85.1431H79.3437Z" fill="#89C5CC"/>
<path fill-rule="evenodd" clip-rule="evenodd" d="M29.6695 79.2936L12.4351 91.7743C7.76077 93.0181 3.85552 94.5657 0.719355 96.417C-0.0214594 97.0827 -0.916815 98.4309 2.15553 98.1979C5.22789 97.9649 8.47017 97.8561 8.89409 98.8895C9.31802 99.923 7.4588 101.159 8.31574 102.553C8.88703 103.483 11.586 101.152 16.4128 95.5605L33.4793 88.5812L29.6695 79.2936ZM95.8409 79.7243L84.5502 79.7681C91.5217 101.962 95.2853 113.738 95.8409 115.096C97.0911 118.152 94.4455 122.805 93.3142 125.306C96.999 126.932 96.6064 120.91 101.255 123.043C105.497 124.989 108.725 128.516 113.627 125.534C114.229 125.167 114.89 123.786 113.294 122.707C109.319 120.019 103.59 115.314 102.816 113.766C101.761 111.654 99.4355 100.307 95.8409 79.7243Z" fill="#E7B485"/>
<path fill-rule="evenodd" clip-rule="evenodd" d="M63.7545 33.0021L59.0826 32.2118C41.7482 46.9793 34.6283 75.3493 13.3806 90.3781L18.4948 96.6296C55.3556 92.1288 64.4919 57.5242 63.7545 33.0021Z" fill="#D0C11B"/>
<path fill-rule="evenodd" clip-rule="evenodd" d="M84.1209 90.903C65.388 90.903 51.6084 90.903 42.7823 90.903C40.8933 90.903 41.2493 88.2132 41.5223 86.8558C44.6738 71.1906 56.9758 54.3042 56.9758 32.005L68.8998 30.1611C78.7625 45.8039 82.1732 65.0635 84.1209 90.903Z" fill="#DDE3E9"/>
<path fill-rule="evenodd" clip-rule="evenodd" d="M83.7887 45.5373C85.5205 45.0464 86.8919 43.9014 87.9029 42.1023C92.2611 34.347 90.6872 30.0771 86.0296 28.6736C81.372 27.27 77.2184 30.1611 69.7977 30.1611C69.3941 30.1611 69.0244 30.186 68.6887 30.2359L64.9558 30.446C54.2459 66.2414 51.2922 90.1235 56.0947 102.092H88.6313C90.5591 106.525 92.4038 110.255 94.1655 113.282H103.031C103.865 86.6762 97.4513 64.0947 83.7887 45.5373Z" fill="#FFE900"/>
<path fill-rule="evenodd" clip-rule="evenodd" d="M81.5462 83.7087C80.523 92.152 78.8598 98.2799 76.5568 102.092L88.6313 102.092C86.3826 96.9214 84.0209 90.7935 81.5462 83.7087Z" fill="black" fill-opacity="0.1"/>
<path fill-rule="evenodd" clip-rule="evenodd" d="M40.4432 201.494C41.0476 203.086 41.3498 204.276 41.3498 205.066C41.3498 206.027 41.1875 207.429 40.8629 209.273C39.7326 209.273 29.5748 209.273 10.3894 209.273C9.59752 206.691 10.0547 205.297 11.7608 205.091C13.467 204.885 14.8843 204.699 16.0128 204.534L30.1766 198.307C30.4491 198.187 30.7686 198.307 30.8901 198.576C30.8921 198.581 30.8942 198.585 30.8961 198.59L31.8065 200.768C33.386 201.495 34.6695 201.858 35.657 201.858C36.4593 201.858 37.5673 201.539 38.9809 200.9C39.5235 200.654 40.1648 200.889 40.4135 201.424C40.4243 201.447 40.4341 201.471 40.4432 201.494Z" fill="#E4E4E4"/>
<path fill-rule="evenodd" clip-rule="evenodd" d="M104.738 201.494C105.342 203.086 105.645 204.276 105.645 205.066C105.645 206.027 105.482 207.429 105.158 209.273C104.027 209.273 93.8695 209.273 74.6841 209.273C73.8922 206.691 74.3493 205.297 76.0555 205.091C77.7616 204.885 79.179 204.699 80.3075 204.533L90.7865 198.527C90.7865 198.527 91.3268 198.26 92.6775 198.59L96.1012 200.768C97.6807 201.495 98.9641 201.858 99.9516 201.858C100.754 201.858 101.862 201.539 103.276 200.899C103.818 200.654 104.46 200.889 104.708 201.424C104.719 201.447 104.729 201.471 104.738 201.494Z" fill="#E4E4E4"/>
</svg>
