<svg width="419" height="688" viewBox="0 0 419 688" fill="none" xmlns="http://www.w3.org/2000/svg">
<path fill-rule="evenodd" clip-rule="evenodd" d="M164.149 29.2108C158.662 49.4971 151.51 95.096 158.808 102.249H204.976C204.981 102.167 204.986 102.085 204.99 102.003C222.102 100.103 235.411 85.5487 235.411 67.8758V34.3371C235.411 15.3733 220.087 0 201.183 0H197.999C180.832 0 166.616 12.6785 164.149 29.2108Z" fill="#DE7800"/>
<path fill-rule="evenodd" clip-rule="evenodd" d="M217.481 61.4717C224.817 52.8335 229.782 42.2473 228.953 30.3851C226.562 -3.79309 179.136 3.72568 169.91 20.9759C160.685 38.2261 161.781 81.9827 173.704 85.0658C178.459 86.2954 188.588 83.2835 198.898 77.0499L192.427 122.975H230.635L217.481 61.4717Z" fill="#EBB786"/>
<path fill-rule="evenodd" clip-rule="evenodd" d="M207.153 55.6978C205.393 74.6679 206.098 96.3313 211.344 101.474H257.513C260.085 56.6379 235.224 74.0003 235.224 31.7863C233.674 30.2671 232.21 28.7634 230.761 27.4666L230.812 26.2251C222.817 9.80642 212.675 1.59708 200.385 1.59708C181.949 1.59708 176.13 10.2026 171.176 17.5089C174.88 30.2617 189.258 32.1526 202.033 40.1018C203.539 38.8745 205.459 38.1389 207.551 38.1389C212.387 38.1389 216.307 42.0715 216.307 46.9228C216.307 51.774 212.387 55.7067 207.551 55.7067C207.418 55.7067 207.285 55.7037 207.153 55.6978Z" fill="#DE7800"/>
<path fill-rule="evenodd" clip-rule="evenodd" d="M93.1089 216.224L34.6126 191.596C24.2772 181.554 14.3293 173.962 4.76901 168.822C1.92078 167.966 -2.9256 167.785 2.35785 175.303C7.64133 182.822 12.863 190.971 10.8399 193.682C8.81677 196.392 2.79169 193.562 0.496155 197.95C-1.03421 200.876 9.09872 204.142 30.895 207.748L74.9268 240.585L93.1089 216.224Z" fill="#EBB786"/>
<path fill-rule="evenodd" clip-rule="evenodd" d="M273.102 306.299C270.231 345.602 85.3036 461.317 84.2247 464.563C83.7451 466.006 102.932 511.62 141.786 601.403L125.62 607.705C66.0255 512.618 37.7587 460.008 40.8197 449.876C45.2021 435.37 93.0297 387.65 184.302 306.717L273.102 306.299Z" fill="#D7AB81"/>
<path fill-rule="evenodd" clip-rule="evenodd" d="M137.532 581.127L111.139 590.765C55.4862 527.772 33.6718 475.797 37.6494 449.316C40.3011 431.661 87.9637 384.021 180.637 306.395L274.994 306.395C271.775 397.416 100.37 464.91 98.0775 468.788C95.7849 472.667 118.347 510.656 137.532 581.127Z" fill="#2F3676"/>
<path fill-rule="evenodd" clip-rule="evenodd" d="M147.733 598.307C151.033 602.178 153.087 605.226 153.894 607.452C154.876 610.158 155.859 614.271 156.844 619.791C153.715 620.934 125.589 631.204 72.467 650.6C67.636 644.129 67.4773 639.74 71.9911 637.436C76.5048 635.131 80.2393 633.175 83.1945 631.566L116.049 599.708C116.681 599.095 117.689 599.112 118.3 599.746C118.31 599.757 118.321 599.768 118.331 599.779L123.077 604.993C128.193 605.443 132.118 605.169 134.853 604.171C137.074 603.36 139.815 601.34 143.077 598.11C144.328 596.871 146.344 596.884 147.579 598.14C147.633 598.194 147.684 598.25 147.733 598.307Z" fill="#E4E4E4"/>
<path fill-rule="evenodd" clip-rule="evenodd" d="M251.839 306.299L334.219 504.699L415.186 672.429H396.083L187.086 306.299H251.839Z" fill="#EBB786"/>
<path fill-rule="evenodd" clip-rule="evenodd" d="M416.328 664.686C418.109 669.455 419 673.024 419 675.392C419 678.272 418.522 682.475 417.565 688C414.235 688 384.304 688 327.773 688C325.439 680.261 326.786 676.084 331.814 675.466C336.841 674.849 341.017 674.292 344.343 673.795L386.077 655.13C386.88 654.771 387.821 655.133 388.179 655.939C388.186 655.953 388.192 655.966 388.197 655.98L390.88 662.509C395.534 664.687 399.316 665.776 402.225 665.776C404.59 665.776 407.854 664.818 412.02 662.903C413.618 662.168 415.508 662.872 416.241 664.475C416.273 664.544 416.302 664.615 416.328 664.686Z" fill="#E4E4E4"/>
<path fill-rule="evenodd" clip-rule="evenodd" d="M407.874 637.585L365.428 645.57C332.608 597.166 195.257 398.693 180.198 306.299H274.694C324.984 373.09 376.59 588.38 407.874 637.585Z" fill="#5C63AB"/>
<path fill-rule="evenodd" clip-rule="evenodd" d="M163.142 201.871C142.637 206.982 108.251 200.955 59.9836 183.788C48.0113 208.544 42.4769 226.192 43.3802 236.734C84.7862 258.352 120.275 267.99 149.513 268.626C148.583 285.966 150.695 302.465 157.789 317.54C172.372 348.533 257.766 319.83 286.477 325.48C304.458 267.117 269.692 243.399 269.664 206.056C269.634 165.16 236.779 102.213 231.946 102.213H187.864C185.431 133.445 173.189 167.866 163.142 201.871Z" fill="#031725"/>
</svg>
