<svg width="89" height="211" viewBox="0 0 89 211" fill="none" xmlns="http://www.w3.org/2000/svg">
<path d="M72.8259 193.664C73.2654 193.009 73.5 192.239 73.5 191.451C73.4967 190.395 73.0742 189.383 72.3248 188.637C71.5754 187.891 70.5599 187.47 69.5 187.466C68.7089 187.466 67.9355 187.7 67.2777 188.138C66.6199 188.576 66.1072 189.198 65.8045 189.926C65.5017 190.654 65.4225 191.455 65.5769 192.228C65.7312 193.001 66.1122 193.711 66.6716 194.268C67.231 194.825 67.9437 195.205 68.7196 195.358C69.4956 195.512 70.2998 195.433 71.0307 195.132C71.7616 194.83 72.3864 194.319 72.8259 193.664Z" fill="#031725"/>
<path fill-rule="evenodd" clip-rule="evenodd" d="M82 196.929V185.972C82 184.123 81.2625 182.35 79.9497 181.042C78.637 179.735 76.8565 179 75 179H64C62.1435 179 60.363 179.735 59.0503 181.042C57.7375 182.35 57 184.123 57 185.972V196.929C57 198.778 57.7375 200.552 59.0503 201.859C60.363 203.167 62.1435 203.901 64 203.901H75C76.8565 203.901 78.637 203.167 79.9497 201.859C81.2625 200.552 82 198.778 82 196.929ZM74.4888 188.13C75.1481 189.113 75.5 190.269 75.5 191.451C75.5 193.036 74.8679 194.556 73.7426 195.677C72.6174 196.797 71.0913 197.427 69.5 197.427C68.3133 197.427 67.1533 197.076 66.1666 196.42C65.1799 195.763 64.4108 194.83 63.9567 193.738C63.5026 192.646 63.3838 191.444 63.6153 190.285C63.8468 189.125 64.4182 188.061 65.2574 187.225C66.0965 186.389 67.1656 185.82 68.3295 185.589C69.4933 185.359 70.6997 185.477 71.7961 185.929C72.8925 186.382 73.8295 187.148 74.4888 188.13ZM77.2472 184.146C77.412 184.392 77.5 184.681 77.5 184.976C77.5 185.373 77.342 185.753 77.0607 186.033C76.7794 186.313 76.3978 186.47 76 186.47C75.7033 186.47 75.4133 186.383 75.1666 186.219C74.92 186.054 74.7277 185.821 74.6142 185.548C74.5007 185.275 74.4709 184.975 74.5288 184.685C74.5867 184.395 74.7296 184.129 74.9393 183.92C75.1491 183.711 75.4164 183.569 75.7074 183.511C75.9983 183.453 76.2999 183.483 76.574 183.596C76.8481 183.709 77.0824 183.901 77.2472 184.146Z" fill="#031725"/>
<path fill-rule="evenodd" clip-rule="evenodd" d="M89 191.5C89 202.27 80.2696 211 69.5 211C58.7304 211 50 202.27 50 191.5C50 180.73 58.7304 172 69.5 172C80.2696 172 89 180.73 89 191.5ZM88 191.5C88 201.717 79.7173 210 69.5 210C59.2827 210 51 201.717 51 191.5C51 181.283 59.2827 173 69.5 173C79.7173 173 88 181.283 88 191.5Z" fill="#031725"/>
<path fill-rule="evenodd" clip-rule="evenodd" d="M78.3388 140.527C80.683 138.192 82 135.025 82 131.723C82 128.421 80.683 125.254 78.3388 122.919C75.9946 120.584 72.8152 119.272 69.5 119.272C66.1848 119.272 63.0054 120.584 60.6612 122.919C58.317 125.254 57 128.421 57 131.723C57 135.025 58.317 138.192 60.6612 140.527C63.0054 142.862 66.1848 144.174 69.5 144.174C72.8152 144.174 75.9946 142.862 78.3388 140.527ZM62.6578 131.592C66.3016 130.011 68.7328 128.968 69.9484 128.464C73.4187 127.026 74.1422 126.776 74.6109 126.768C74.7837 126.764 74.9531 126.815 75.0953 126.912C75.1951 126.999 75.2587 127.119 75.2734 127.25C75.2984 127.412 75.3052 127.577 75.2938 127.74C75.1063 129.709 74.2922 134.486 73.8781 136.691C73.7031 137.625 73.3578 137.936 73.0234 137.967C72.45 138.02 71.9828 137.69 71.4656 137.323C71.4511 137.312 71.4364 137.302 71.4218 137.292C71.2995 137.205 71.1735 137.115 71.0438 137.032C70.4688 136.655 70.025 136.355 69.5812 136.053C69.1734 135.776 68.7641 135.5 68.2531 135.164C67.1922 134.467 67.6359 134.04 68.2297 133.471C68.3292 133.376 68.4271 133.279 68.5234 133.181C68.5591 133.145 68.7075 133.007 68.9242 132.806C68.9737 132.76 69.0267 132.711 69.0828 132.658L69.134 132.611C70.1145 131.702 71.9211 130.028 71.9672 129.831C71.975 129.798 71.9828 129.675 71.9094 129.611C71.8375 129.546 71.7281 129.568 71.65 129.586C71.5406 129.611 69.7828 130.768 66.3781 133.057C65.8797 133.399 65.4281 133.564 65.0219 133.555C64.5766 133.546 63.7172 133.304 63.0797 133.097L62.8063 133.012L62.8041 133.011C62.1568 132.808 61.6813 132.658 61.7281 132.28C61.7563 132.056 62.0672 131.826 62.6578 131.592Z" fill="#031725"/>
<path fill-rule="evenodd" clip-rule="evenodd" d="M88 131.5C88 141.717 79.7173 150 69.5 150C59.2827 150 51 141.717 51 131.5C51 121.283 59.2827 113 69.5 113C79.7173 113 88 121.283 88 131.5ZM87 131.5C87 141.165 79.165 149 69.5 149C59.835 149 52 141.165 52 131.5C52 121.835 59.835 114 69.5 114C79.165 114 87 121.835 87 131.5Z" fill="#031725"/>
<path d="M16.5 191.451C16.5 192.239 16.2654 193.009 15.8259 193.664C15.3864 194.319 14.7616 194.83 14.0307 195.132C13.2998 195.433 12.4956 195.512 11.7196 195.358C10.9437 195.205 10.231 194.825 9.67157 194.268C9.11216 193.711 8.7312 193.001 8.57686 192.228C8.42252 191.455 8.50173 190.654 8.80448 189.926C9.10723 189.198 9.61992 188.576 10.2777 188.138C10.9355 187.7 11.7089 187.466 12.5 187.466C13.5599 187.47 14.5754 187.891 15.3248 188.637C16.0742 189.383 16.4967 190.395 16.5 191.451ZM25 185.972V196.929C25 198.778 24.2625 200.552 22.9497 201.859C21.637 203.167 19.8565 203.901 18 203.901H7C5.14348 203.901 3.36301 203.167 2.05025 201.859C0.737498 200.552 0 198.778 0 196.929V185.972C0 184.123 0.737498 182.35 2.05025 181.042C3.36301 179.735 5.14348 179 7 179H18C19.8565 179 21.637 179.735 22.9497 181.042C24.2625 182.35 25 184.123 25 185.972ZM18.5 191.451C18.5 190.269 18.1481 189.113 17.4888 188.13C16.8295 187.148 15.8925 186.382 14.7961 185.929C13.6997 185.477 12.4933 185.359 11.3295 185.589C10.1656 185.82 9.09647 186.389 8.25736 187.225C7.41824 188.061 6.8468 189.125 6.61529 190.285C6.38378 191.444 6.5026 192.646 6.95672 193.738C7.41085 194.83 8.17988 195.763 9.16658 196.42C10.1533 197.076 11.3133 197.427 12.5 197.427C14.0913 197.427 15.6174 196.797 16.7426 195.677C17.8679 194.556 18.5 193.036 18.5 191.451ZM20.5 184.976C20.5 184.681 20.412 184.392 20.2472 184.146C20.0824 183.901 19.8481 183.709 19.574 183.596C19.2999 183.483 18.9983 183.453 18.7074 183.511C18.4164 183.569 18.1491 183.711 17.9393 183.92C17.7296 184.129 17.5867 184.395 17.5288 184.685C17.4709 184.975 17.5007 185.275 17.6142 185.548C17.7277 185.821 17.92 186.054 18.1666 186.219C18.4133 186.383 18.7033 186.47 19 186.47C19.3978 186.47 19.7794 186.313 20.0607 186.033C20.342 185.753 20.5 185.373 20.5 184.976Z" fill="#031725"/>
<path d="M25 131.451C25 134.753 23.683 137.92 21.3388 140.255C18.9946 142.59 15.8152 143.901 12.5 143.901C9.18479 143.901 6.00537 142.59 3.66117 140.255C1.31696 137.92 0 134.753 0 131.451C0 128.149 1.31696 124.982 3.66117 122.647C6.00537 120.312 9.18479 119 12.5 119C15.8152 119 18.9946 120.312 21.3388 122.647C23.683 124.982 25 128.149 25 131.451ZM12.9484 128.192C11.7328 128.696 9.30156 129.739 5.65781 131.32C5.06719 131.553 4.75625 131.784 4.72813 132.008C4.68125 132.386 5.15781 132.535 5.80625 132.739L6.07969 132.825C6.71719 133.032 7.57656 133.273 8.02187 133.282C8.42812 133.292 8.87969 133.127 9.37813 132.784C12.7828 130.495 14.5406 129.339 14.65 129.314C14.7281 129.295 14.8375 129.273 14.9094 129.339C14.9828 129.403 14.975 129.525 14.9672 129.558C14.9203 129.759 13.05 131.49 12.0828 132.386C11.7812 132.666 11.5672 132.864 11.5234 132.909C11.4271 133.007 11.3292 133.103 11.2297 133.198C10.6359 133.768 10.1922 134.194 11.2531 134.892C11.7641 135.228 12.1734 135.503 12.5813 135.78C13.025 136.082 13.4688 136.383 14.0437 136.759C14.1891 136.853 14.3297 136.954 14.4656 137.05C14.9828 137.418 15.45 137.748 16.0234 137.695C16.3578 137.664 16.7031 137.352 16.8781 136.418C17.2922 134.213 18.1063 129.437 18.2938 127.468C18.3052 127.304 18.2984 127.14 18.2734 126.978C18.2587 126.847 18.1951 126.726 18.0953 126.64C17.9531 126.542 17.7837 126.492 17.6109 126.495C17.1422 126.503 16.4187 126.754 12.9484 128.192Z" fill="#031725"/>
<path d="M25 19.4506C25 22.7528 23.683 25.9196 21.3388 28.2546C18.9946 30.5895 15.8152 31.9013 12.5 31.9013C9.18479 31.9013 6.00537 30.5895 3.66117 28.2546C1.31696 25.9196 0 22.7528 0 19.4506C0 16.1485 1.31696 12.9817 3.66117 10.6467C6.00537 8.31176 9.18479 7 12.5 7C15.8152 7 18.9946 8.31176 21.3388 10.6467C23.683 12.9817 25 16.1485 25 19.4506V19.4506ZM12.9484 16.1917C11.7328 16.6959 9.30156 17.7387 5.65781 19.3199C5.06719 19.5534 4.75625 19.7837 4.72813 20.0078C4.68125 20.386 5.15781 20.5354 5.80625 20.7393L6.07969 20.8249C6.71719 21.0319 7.57656 21.2731 8.02187 21.2824C8.42812 21.2918 8.87969 21.1268 9.37812 20.7844C12.7828 18.4951 14.5406 17.3387 14.65 17.3138C14.7281 17.2951 14.8375 17.2733 14.9094 17.3387C14.9828 17.4025 14.975 17.5255 14.9672 17.5581C14.9203 17.7589 13.05 19.4895 12.0828 20.386C11.7812 20.6661 11.5672 20.8638 11.5234 20.9089C11.4271 21.007 11.3292 21.1035 11.2297 21.1984C10.6359 21.768 10.1922 22.1945 11.2531 22.8917C11.7641 23.2279 12.1734 23.5033 12.5813 23.7804C13.025 24.0823 13.4687 24.3827 14.0437 24.7593C14.1891 24.8527 14.3297 24.9538 14.4656 25.0503C14.9828 25.4176 15.45 25.7476 16.0234 25.6946C16.3578 25.6635 16.7031 25.3522 16.8781 24.4184C17.2922 22.2131 18.1063 17.4368 18.2938 15.468C18.3052 15.3043 18.2984 15.1399 18.2734 14.9777C18.2587 14.8469 18.1951 14.7263 18.0953 14.64C17.9531 14.5423 17.7837 14.4916 17.6109 14.4953C17.1422 14.5031 16.4187 14.7536 12.9484 16.1917V16.1917Z" fill="#FFFAFF"/>
<path d="M71.8259 72.6641C72.2654 72.0089 72.5 71.2386 72.5 70.4506C72.4967 69.395 72.0742 68.3835 71.3248 67.637C70.5754 66.8905 69.5599 66.4697 68.5 66.4664C67.7089 66.4664 66.9355 66.7001 66.2777 67.1379C65.6199 67.5757 65.1072 68.1979 64.8045 68.926C64.5017 69.654 64.4225 70.4551 64.5769 71.2279C64.7312 72.0008 65.1122 72.7107 65.6716 73.2679C66.231 73.8251 66.9437 74.2046 67.7196 74.3583C68.4956 74.512 69.2998 74.4331 70.0307 74.1316C70.7616 73.83 71.3864 73.3193 71.8259 72.6641Z" fill="#FFE900"/>
<path fill-rule="evenodd" clip-rule="evenodd" d="M81 75.9289V64.9724C81 63.1232 80.2625 61.3497 78.9497 60.0422C77.637 58.7346 75.8565 58 74 58H63C61.1435 58 59.363 58.7346 58.0503 60.0422C56.7375 61.3497 56 63.1232 56 64.9724V75.9289C56 77.7781 56.7375 79.5516 58.0503 80.8591C59.363 82.1667 61.1435 82.9013 63 82.9013H74C75.8565 82.9013 77.637 82.1667 78.9497 80.8591C80.2625 79.5516 81 77.7781 81 75.9289ZM73.4888 67.1304C74.1481 68.1132 74.5 69.2686 74.5 70.4506C74.5 72.0357 73.8679 73.5558 72.7426 74.6765C71.6174 75.7973 70.0913 76.4269 68.5 76.4269C67.3133 76.4269 66.1533 76.0764 65.1666 75.4198C64.1799 74.7631 63.4108 73.8297 62.9567 72.7377C62.5026 71.6456 62.3838 70.444 62.6153 69.2847C62.8468 68.1254 63.4182 67.0606 64.2574 66.2248C65.0965 65.389 66.1656 64.8198 67.3295 64.5892C68.4933 64.3586 69.6997 64.4769 70.7961 64.9293C71.8925 65.3816 72.8295 66.1476 73.4888 67.1304ZM76.2472 63.1462C76.412 63.3919 76.5 63.6808 76.5 63.9763C76.5 64.3726 76.342 64.7526 76.0607 65.0328C75.7794 65.313 75.3978 65.4704 75 65.4704C74.7033 65.4704 74.4133 65.3828 74.1666 65.2186C73.92 65.0544 73.7277 64.8211 73.6142 64.5481C73.5007 64.2751 73.4709 63.9747 73.5288 63.6848C73.5867 63.395 73.7296 63.1288 73.9393 62.9198C74.1491 62.7109 74.4164 62.5686 74.7074 62.5109C74.9983 62.4533 75.2999 62.4829 75.574 62.596C75.8481 62.709 76.0824 62.9005 76.2472 63.1462Z" fill="#FFE900"/>
<path fill-rule="evenodd" clip-rule="evenodd" d="M88 70.5C88 81.2696 79.2696 90 68.5 90C57.7304 90 49 81.2696 49 70.5C49 59.7304 57.7304 51 68.5 51C79.2696 51 88 59.7304 88 70.5ZM87 70.5C87 80.7173 78.7173 89 68.5 89C58.2827 89 50 80.7173 50 70.5C50 60.2827 58.2827 52 68.5 52C78.7173 52 87 60.2827 87 70.5Z" fill="#FFE900"/>
<path fill-rule="evenodd" clip-rule="evenodd" d="M78.3388 28.2546C80.683 25.9196 82 22.7528 82 19.4506C82 16.1485 80.683 12.9817 78.3388 10.6467C75.9946 8.31176 72.8152 7 69.5 7C66.1848 7 63.0054 8.31176 60.6612 10.6467C58.317 12.9817 57 16.1485 57 19.4506C57 22.7528 58.317 25.9196 60.6612 28.2546C63.0054 30.5895 66.1848 31.9013 69.5 31.9013C72.8152 31.9013 75.9946 30.5895 78.3388 28.2546ZM62.6578 19.3199C66.3016 17.7387 68.7328 16.6959 69.9484 16.1917C73.4187 14.7536 74.1422 14.5031 74.6109 14.4953C74.7837 14.4916 74.9531 14.5423 75.0953 14.64C75.1951 14.7263 75.2587 14.8469 75.2734 14.9777C75.2984 15.1399 75.3052 15.3043 75.2938 15.468C75.1063 17.4368 74.2922 22.2131 73.8781 24.4184C73.7031 25.3522 73.3578 25.6635 73.0234 25.6946C72.45 25.7476 71.9828 25.4176 71.4656 25.0503C71.4511 25.04 71.4364 25.0296 71.4218 25.0192C71.2995 24.9322 71.1735 24.8427 71.0438 24.7593C70.4688 24.3827 70.025 24.0823 69.5812 23.7804C69.1734 23.5033 68.7641 23.2279 68.2531 22.8917C67.1922 22.1945 67.6359 21.768 68.2297 21.1984C68.3292 21.1035 68.4271 21.007 68.5234 20.9089C68.5591 20.8722 68.7077 20.7342 68.9245 20.533C68.9739 20.4871 69.0268 20.438 69.0828 20.386L69.1341 20.3385C70.1145 19.4298 71.9211 17.7554 71.9672 17.5581C71.975 17.5255 71.9828 17.4025 71.9094 17.3387C71.8375 17.2733 71.7281 17.2951 71.65 17.3138C71.5406 17.3387 69.7828 18.4951 66.3781 20.7844C65.8797 21.1268 65.4281 21.2918 65.0219 21.2824C64.5766 21.2731 63.7172 21.0319 63.0797 20.8249L62.8041 20.7386C62.1568 20.5351 61.6813 20.3856 61.7281 20.0078C61.7563 19.7837 62.0672 19.5534 62.6578 19.3199Z" fill="#FFE900"/>
<path fill-rule="evenodd" clip-rule="evenodd" d="M89 19.5C89 30.2696 80.2696 39 69.5 39C58.7304 39 50 30.2696 50 19.5C50 8.73045 58.7304 0 69.5 0C80.2696 0 89 8.73045 89 19.5ZM88 19.5C88 29.7173 79.7173 38 69.5 38C59.2827 38 51 29.7173 51 19.5C51 9.28273 59.2827 1 69.5 1C79.7173 1 88 9.28273 88 19.5Z" fill="#FFE900"/>
<path d="M16.5 71.4506C16.5 72.2386 16.2654 73.0089 15.8259 73.6641C15.3864 74.3193 14.7616 74.83 14.0307 75.1316C13.2998 75.4331 12.4956 75.512 11.7196 75.3583C10.9437 75.2046 10.231 74.8251 9.67157 74.2679C9.11216 73.7107 8.7312 73.0008 8.57686 72.2279C8.42252 71.4551 8.50173 70.654 8.80448 69.926C9.10723 69.1979 9.61992 68.5757 10.2777 68.1379C10.9355 67.7001 11.7089 67.4664 12.5 67.4664C13.5599 67.4697 14.5754 67.8905 15.3248 68.637C16.0742 69.3835 16.4967 70.395 16.5 71.4506ZM25 65.9724V76.9289C25 78.7781 24.2625 80.5516 22.9497 81.8591C21.637 83.1667 19.8565 83.9013 18 83.9013H7C5.14348 83.9013 3.36301 83.1667 2.05025 81.8591C0.737498 80.5516 0 78.7781 0 76.9289V65.9724C0 64.1232 0.737498 62.3497 2.05025 61.0422C3.36301 59.7346 5.14348 59 7 59H18C19.8565 59 21.637 59.7346 22.9497 61.0422C24.2625 62.3497 25 64.1232 25 65.9724ZM18.5 71.4506C18.5 70.2686 18.1481 69.1132 17.4888 68.1304C16.8295 67.1476 15.8925 66.3816 14.7961 65.9293C13.6997 65.4769 12.4933 65.3586 11.3295 65.5892C10.1656 65.8198 9.09647 66.389 8.25736 67.2248C7.41824 68.0606 6.8468 69.1254 6.61529 70.2847C6.38378 71.444 6.5026 72.6456 6.95672 73.7377C7.41085 74.8297 8.17988 75.7631 9.16658 76.4198C10.1533 77.0764 11.3133 77.4269 12.5 77.4269C14.0913 77.4269 15.6174 76.7973 16.7426 75.6765C17.8679 74.5558 18.5 73.0357 18.5 71.4506ZM20.5 64.9763C20.5 64.6808 20.412 64.3919 20.2472 64.1462C20.0824 63.9005 19.8481 63.709 19.574 63.596C19.2999 63.4829 18.9983 63.4533 18.7074 63.5109C18.4164 63.5686 18.1491 63.7109 17.9393 63.9198C17.7296 64.1288 17.5867 64.395 17.5288 64.6848C17.4709 64.9746 17.5007 65.2751 17.6142 65.5481C17.7277 65.8211 17.92 66.0544 18.1666 66.2186C18.4133 66.3828 18.7033 66.4704 19 66.4704C19.3978 66.4704 19.7794 66.313 20.0607 66.0328C20.342 65.7526 20.5 65.3726 20.5 64.9763Z" fill="#FFFAFF"/>
</svg>
