<svg width="25" height="25" viewBox="0 0 25 25" fill="none" xmlns="http://www.w3.org/2000/svg">
<path d="M16.5 12.4506C16.5 13.2386 16.2654 14.0089 15.8259 14.6641C15.3864 15.3193 14.7616 15.83 14.0307 16.1316C13.2998 16.4331 12.4956 16.512 11.7196 16.3583C10.9437 16.2046 10.231 15.8251 9.67157 15.2679C9.11216 14.7107 8.7312 14.0008 8.57686 13.2279C8.42252 12.4551 8.50173 11.654 8.80448 10.926C9.10723 10.1979 9.61992 9.57569 10.2777 9.1379C10.9355 8.70011 11.7089 8.46644 12.5 8.46644C13.5599 8.46972 14.5754 8.89054 15.3248 9.63701C16.0742 10.3835 16.4967 11.395 16.5 12.4506ZM25 6.97236V17.9289C25 19.7781 24.2625 21.5516 22.9497 22.8591C21.637 24.1667 19.8565 24.9013 18 24.9013H7C5.14348 24.9013 3.36301 24.1667 2.05025 22.8591C0.737498 21.5516 0 19.7781 0 17.9289V6.97236C0 5.12317 0.737498 3.34973 2.05025 2.04216C3.36301 0.734586 5.14348 0 7 0H18C19.8565 0 21.637 0.734586 22.9497 2.04216C24.2625 3.34973 25 5.12317 25 6.97236ZM18.5 12.4506C18.5 11.2686 18.1481 10.1132 17.4888 9.13038C16.8295 8.14758 15.8925 7.38159 14.7961 6.92925C13.6997 6.47692 12.4933 6.35857 11.3295 6.58917C10.1656 6.81976 9.09647 7.38895 8.25736 8.22475C7.41824 9.06056 6.8468 10.1254 6.61529 11.2847C6.38378 12.444 6.5026 13.6456 6.95672 14.7377C7.41085 15.8297 8.17988 16.7631 9.16658 17.4198C10.1533 18.0764 11.3133 18.4269 12.5 18.4269C14.0913 18.4269 15.6174 17.7973 16.7426 16.6765C17.8679 15.5558 18.5 14.0357 18.5 12.4506ZM20.5 5.97631C20.5 5.68081 20.412 5.39194 20.2472 5.14624C20.0824 4.90054 19.8481 4.70904 19.574 4.59596C19.2999 4.48288 18.9983 4.45329 18.7074 4.51094C18.4164 4.56859 18.1491 4.71089 17.9393 4.91984C17.7296 5.12879 17.5867 5.395 17.5288 5.68483C17.4709 5.97465 17.5007 6.27506 17.6142 6.54807C17.7277 6.82107 17.92 7.05442 18.1666 7.21859C18.4133 7.38276 18.7033 7.47038 19 7.47038C19.3978 7.47038 19.7794 7.31297 20.0607 7.03278C20.342 6.75259 20.5 6.37256 20.5 5.97631Z" fill="#FFFAFF"/>
</svg>
