<svg width="92" height="13" viewBox="0 0 92 13" fill="none" xmlns="http://www.w3.org/2000/svg">
<path d="M0.446289 11.9999V0.911884H7.13429V2.23988H1.99829V5.58388H6.55829V6.89588H1.99829V11.9999H0.446289Z" fill="#FFE900"/>
<path d="M8.38891 6.44788C8.38891 5.49855 8.52758 4.66122 8.80491 3.93588C9.09291 3.21055 9.47691 2.60788 9.95691 2.12788C10.4476 1.63722 11.0129 1.26922 11.6529 1.02388C12.3036 0.77855 12.9916 0.655884 13.7169 0.655884C14.4316 0.655884 15.1036 0.77855 15.7329 1.02388C16.3729 1.26922 16.9329 1.63722 17.4129 2.12788C17.8929 2.60788 18.2716 3.21055 18.5489 3.93588C18.8369 4.66122 18.9809 5.49855 18.9809 6.44788C18.9809 7.39722 18.8369 8.23455 18.5489 8.95988C18.2716 9.68522 17.8929 10.2932 17.4129 10.7839C16.9329 11.2639 16.3729 11.6266 15.7329 11.8719C15.1036 12.1172 14.4316 12.2399 13.7169 12.2399C12.9916 12.2399 12.3036 12.1172 11.6529 11.8719C11.0129 11.6266 10.4476 11.2639 9.95691 10.7839C9.47691 10.2932 9.09291 9.68522 8.80491 8.95988C8.52758 8.23455 8.38891 7.39722 8.38891 6.44788ZM10.0209 6.44788C10.0209 7.11988 10.1062 7.73322 10.2769 8.28788C10.4476 8.83188 10.6876 9.29588 10.9969 9.67988C11.3169 10.0639 11.7009 10.3626 12.1489 10.5759C12.6076 10.7786 13.1196 10.8799 13.6849 10.8799C14.2502 10.8799 14.7569 10.7786 15.2049 10.5759C15.6529 10.3626 16.0316 10.0639 16.3409 9.67988C16.6609 9.29588 16.9062 8.83188 17.0769 8.28788C17.2476 7.73322 17.3329 7.11988 17.3329 6.44788C17.3329 5.77588 17.2476 5.16788 17.0769 4.62388C16.9062 4.06922 16.6609 3.59988 16.3409 3.21588C16.0316 2.83188 15.6529 2.53855 15.2049 2.33588C14.7569 2.12255 14.2502 2.01588 13.6849 2.01588C13.1196 2.01588 12.6076 2.12255 12.1489 2.33588C11.7009 2.53855 11.3169 2.83188 10.9969 3.21588C10.6876 3.59988 10.4476 4.06922 10.2769 4.62388C10.1062 5.16788 10.0209 5.77588 10.0209 6.44788Z" fill="#FFE900"/>
<path d="M26.714 7.35988C26.8847 7.57322 27.098 7.85588 27.354 8.20788C27.6207 8.54922 27.8927 8.93322 28.17 9.35988C28.4474 9.77588 28.7194 10.2132 28.986 10.6719C29.2634 11.1306 29.498 11.5732 29.69 11.9999H27.994C27.7807 11.5946 27.546 11.1839 27.29 10.7679C27.0447 10.3519 26.794 9.95722 26.538 9.58388C26.282 9.19988 26.026 8.84255 25.77 8.51188C25.5247 8.18122 25.3007 7.89322 25.098 7.64788C24.9594 7.65855 24.8154 7.66388 24.666 7.66388C24.5274 7.66388 24.3834 7.66388 24.234 7.66388H22.842V11.9999H21.29V1.07188C21.7274 0.965218 22.2127 0.895884 22.746 0.863884C23.29 0.821217 23.786 0.799884 24.234 0.799884C25.7914 0.799884 26.9754 1.09322 27.786 1.67988C28.6074 2.26655 29.018 3.14122 29.018 4.30388C29.018 5.03988 28.8207 5.66922 28.426 6.19188C28.042 6.71455 27.4714 7.10388 26.714 7.35988ZM24.362 2.15988C23.7007 2.15988 23.194 2.17588 22.842 2.20788V6.38388H23.946C24.4794 6.38388 24.9594 6.35722 25.386 6.30388C25.8127 6.25055 26.17 6.14922 26.458 5.99988C26.7567 5.85055 26.986 5.64255 27.146 5.37588C27.306 5.09855 27.386 4.73588 27.386 4.28788C27.386 3.87188 27.306 3.52522 27.146 3.24788C26.986 2.97055 26.7674 2.75188 26.49 2.59188C26.2234 2.43188 25.9034 2.31988 25.53 2.25588C25.1674 2.19188 24.778 2.15988 24.362 2.15988Z" fill="#FFE900"/>
<path d="M39.5605 0.911884C39.2299 1.27455 38.8565 1.67988 38.4405 2.12788C38.0245 2.56522 37.5872 3.01855 37.1285 3.48788C36.6805 3.94655 36.2325 4.39988 35.7845 4.84788C35.3365 5.29588 34.9152 5.71188 34.5205 6.09588C34.9792 6.41588 35.4645 6.81055 35.9765 7.27988C36.4885 7.74922 36.9899 8.25055 37.4805 8.78388C37.9712 9.31722 38.4299 9.86122 38.8565 10.4159C39.2939 10.9706 39.6565 11.4986 39.9445 11.9999H38.1205C37.8005 11.4986 37.4325 10.9972 37.0165 10.4959C36.6005 9.98388 36.1579 9.49855 35.6885 9.03988C35.2299 8.57055 34.7605 8.13855 34.2805 7.74388C33.8112 7.34922 33.3525 7.01322 32.9045 6.73588V11.9999H31.3525V0.911884H32.9045V5.80788C33.2779 5.45588 33.6885 5.06122 34.1365 4.62388C34.5845 4.17588 35.0272 3.72788 35.4645 3.27988C35.9019 2.83188 36.3125 2.40522 36.6965 1.99988C37.0912 1.58388 37.4219 1.22122 37.6885 0.911884H39.5605Z" fill="#FFE900"/>
<path d="M47.6942 10.8959C49.3155 10.8959 50.1262 10.3412 50.1262 9.23188C50.1262 8.89055 50.0515 8.60255 49.9022 8.36788C49.7635 8.12255 49.5715 7.91455 49.3262 7.74388C49.0808 7.56255 48.7982 7.40788 48.4782 7.27988C48.1688 7.15188 47.8382 7.02388 47.4862 6.89588C47.0808 6.75722 46.6968 6.60255 46.3342 6.43188C45.9715 6.25055 45.6568 6.04255 45.3902 5.80788C45.1235 5.56255 44.9102 5.27455 44.7502 4.94388C44.6008 4.61322 44.5262 4.21322 44.5262 3.74388C44.5262 2.77322 44.8568 2.01588 45.5182 1.47188C46.1795 0.927884 47.0915 0.655884 48.2542 0.655884C48.9262 0.655884 49.5342 0.73055 50.0782 0.879884C50.6328 1.01855 51.0382 1.17322 51.2942 1.34388L50.7982 2.60788C50.5742 2.46922 50.2382 2.33588 49.7902 2.20788C49.3528 2.06922 48.8408 1.99988 48.2542 1.99988C47.9555 1.99988 47.6782 2.03188 47.4222 2.09588C47.1662 2.15988 46.9422 2.25588 46.7502 2.38388C46.5582 2.51188 46.4035 2.67722 46.2862 2.87988C46.1795 3.07188 46.1262 3.30122 46.1262 3.56788C46.1262 3.86655 46.1848 4.11722 46.3022 4.31988C46.4195 4.52255 46.5848 4.70388 46.7982 4.86388C47.0115 5.01322 47.2568 5.15188 47.5342 5.27988C47.8222 5.40788 48.1368 5.53588 48.4782 5.66388C48.9582 5.85588 49.3955 6.04788 49.7902 6.23988C50.1955 6.43188 50.5422 6.66122 50.8302 6.92788C51.1288 7.19455 51.3582 7.51455 51.5182 7.88788C51.6782 8.25055 51.7582 8.69322 51.7582 9.21588C51.7582 10.1866 51.4008 10.9332 50.6862 11.4559C49.9822 11.9786 48.9848 12.2399 47.6942 12.2399C47.2568 12.2399 46.8515 12.2079 46.4782 12.1439C46.1155 12.0906 45.7902 12.0266 45.5022 11.9519C45.2142 11.8666 44.9635 11.7812 44.7502 11.6959C44.5475 11.5999 44.3875 11.5199 44.2702 11.4559L44.7342 10.1759C44.9795 10.3146 45.3528 10.4692 45.8542 10.6399C46.3555 10.8106 46.9688 10.8959 47.6942 10.8959Z" fill="#FFE900"/>
<path d="M56.5778 0.799884C58.1351 0.799884 59.3298 1.09855 60.1618 1.69588C61.0045 2.28255 61.4258 3.16255 61.4258 4.33588C61.4258 4.97588 61.3085 5.52522 61.0738 5.98388C60.8498 6.43188 60.5191 6.79988 60.0818 7.08788C59.6551 7.36522 59.1325 7.56788 58.5138 7.69588C57.8951 7.82388 57.1965 7.88788 56.4178 7.88788H55.1858V11.9999H53.6338V1.07188C54.0711 0.965218 54.5565 0.895884 55.0898 0.863884C55.6338 0.821217 56.1298 0.799884 56.5778 0.799884ZM56.7058 2.15988C56.0445 2.15988 55.5378 2.17588 55.1858 2.20788V6.55988H56.3538C56.8871 6.55988 57.3671 6.52788 57.7938 6.46388C58.2205 6.38922 58.5778 6.27188 58.8658 6.11188C59.1645 5.94122 59.3938 5.71188 59.5538 5.42388C59.7138 5.13588 59.7938 4.76788 59.7938 4.31988C59.7938 3.89322 59.7085 3.54122 59.5378 3.26388C59.3778 2.98655 59.1538 2.76788 58.8658 2.60788C58.5885 2.43722 58.2631 2.31988 57.8898 2.25588C57.5165 2.19188 57.1218 2.15988 56.7058 2.15988Z" fill="#FFE900"/>
<path d="M69.9793 11.9999C69.798 11.5199 69.6273 11.0506 69.4673 10.5919C69.3073 10.1226 69.142 9.64788 68.9713 9.16788H63.9473L62.9393 11.9999H61.3233C61.75 10.8266 62.15 9.74388 62.5233 8.75188C62.8966 7.74922 63.2593 6.79988 63.6113 5.90388C63.974 5.00788 64.3313 4.15455 64.6833 3.34388C65.0353 2.52255 65.4033 1.71188 65.7873 0.911884H67.2113C67.5953 1.71188 67.9633 2.52255 68.3153 3.34388C68.6673 4.15455 69.0193 5.00788 69.3713 5.90388C69.734 6.79988 70.102 7.74922 70.4753 8.75188C70.8486 9.74388 71.2486 10.8266 71.6753 11.9999H69.9793ZM68.5233 7.88788C68.182 6.95988 67.8406 6.06388 67.4993 5.19988C67.1686 4.32522 66.822 3.48788 66.4593 2.68788C66.086 3.48788 65.7286 4.32522 65.3873 5.19988C65.0566 6.06388 64.726 6.95988 64.3953 7.88788H68.5233Z" fill="#FFE900"/>
<path d="M78.6047 7.35988C78.7753 7.57322 78.9887 7.85588 79.2447 8.20788C79.5113 8.54922 79.7833 8.93322 80.0607 9.35988C80.338 9.77588 80.61 10.2132 80.8767 10.6719C81.154 11.1306 81.3887 11.5732 81.5807 11.9999H79.8847C79.6713 11.5946 79.4367 11.1839 79.1807 10.7679C78.9353 10.3519 78.6847 9.95722 78.4287 9.58388C78.1727 9.19988 77.9167 8.84255 77.6607 8.51188C77.4153 8.18122 77.1913 7.89322 76.9887 7.64788C76.85 7.65855 76.706 7.66388 76.5567 7.66388C76.418 7.66388 76.274 7.66388 76.1247 7.66388H74.7327V11.9999H73.1807V1.07188C73.618 0.965218 74.1033 0.895884 74.6367 0.863884C75.1807 0.821217 75.6767 0.799884 76.1247 0.799884C77.682 0.799884 78.866 1.09322 79.6767 1.67988C80.498 2.26655 80.9087 3.14122 80.9087 4.30388C80.9087 5.03988 80.7113 5.66922 80.3167 6.19188C79.9327 6.71455 79.362 7.10388 78.6047 7.35988ZM76.2527 2.15988C75.5913 2.15988 75.0847 2.17588 74.7327 2.20788V6.38388H75.8367C76.37 6.38388 76.85 6.35722 77.2767 6.30388C77.7033 6.25055 78.0607 6.14922 78.3487 5.99988C78.6473 5.85055 78.8767 5.64255 79.0367 5.37588C79.1967 5.09855 79.2767 4.73588 79.2767 4.28788C79.2767 3.87188 79.1967 3.52522 79.0367 3.24788C78.8767 2.97055 78.658 2.75188 78.3807 2.59188C78.114 2.43188 77.794 2.31988 77.4207 2.25588C77.058 2.19188 76.6687 2.15988 76.2527 2.15988Z" fill="#FFE900"/>
<path d="M91.4512 0.911884C91.1205 1.27455 90.7472 1.67988 90.3312 2.12788C89.9152 2.56522 89.4778 3.01855 89.0192 3.48788C88.5712 3.94655 88.1232 4.39988 87.6752 4.84788C87.2272 5.29588 86.8058 5.71188 86.4112 6.09588C86.8698 6.41588 87.3552 6.81055 87.8672 7.27988C88.3792 7.74922 88.8805 8.25055 89.3712 8.78388C89.8618 9.31722 90.3205 9.86122 90.7472 10.4159C91.1845 10.9706 91.5472 11.4986 91.8352 11.9999H90.0112C89.6912 11.4986 89.3232 10.9972 88.9072 10.4959C88.4912 9.98388 88.0485 9.49855 87.5792 9.03988C87.1205 8.57055 86.6512 8.13855 86.1712 7.74388C85.7018 7.34922 85.2432 7.01322 84.7952 6.73588V11.9999H83.2432V0.911884H84.7952V5.80788C85.1685 5.45588 85.5792 5.06122 86.0272 4.62388C86.4752 4.17588 86.9178 3.72788 87.3552 3.27988C87.7925 2.83188 88.2032 2.40522 88.5872 1.99988C88.9818 1.58388 89.3125 1.22122 89.5792 0.911884H91.4512Z" fill="#FFE900"/>
</svg>
