<svg width="471" height="495" viewBox="0 0 471 495" fill="none" xmlns="http://www.w3.org/2000/svg">
<path fill-rule="evenodd" clip-rule="evenodd" d="M241.056 42.7793C243.753 39.6575 245.578 35.8318 245.273 31.5449C244.394 19.1932 226.959 21.9104 223.568 28.1445C220.177 34.3786 220.58 50.1918 224.963 51.306C226.711 51.7503 230.434 50.6619 234.224 48.4091L231.846 65.006H245.892L241.056 42.7793Z" fill="#EBB786"/>
<path fill-rule="evenodd" clip-rule="evenodd" d="M231.574 20.9595C233.425 20.6601 238.41 20.4543 239.329 20.4544C239.916 20.4544 240.553 20.5868 240.901 20.0549C241.186 19.6193 241.082 18.8825 241.167 18.3771C241.265 17.7898 241.406 17.2102 241.547 16.632C241.951 14.9868 242.562 13.4215 243.416 11.952C245.018 9.1949 247.366 7.03526 250.33 5.77858C253.603 4.391 257.307 4.07328 260.827 4.35472C264.595 4.65584 268.005 5.88236 271.562 7.03659C274.952 8.13647 278.503 8.56941 282.048 8.03229C285.62 7.49119 288.319 5.58191 291.332 3.76977C294.416 1.91457 297.941 0.701208 301.588 0.980131C304.991 1.24058 308.128 2.62657 310.943 4.47804C313.576 6.21032 315.749 8.29447 316.976 11.2278C318.296 14.3831 318.294 17.8466 316.124 20.6352C312.979 24.6772 307.139 25.7225 302.281 25.6186C299.471 25.5586 296.711 25.0528 294.058 24.1325C290.519 22.9052 287.462 20.8251 284.152 19.1373C282.598 18.3453 280.993 17.6948 279.31 17.2263C277.676 16.7714 276.068 16.5628 274.589 17.5358C273.025 18.5651 271.623 19.5762 269.833 20.2206C268.117 20.8387 266.298 21.1845 264.469 21.1705C260.91 21.1434 257.402 20.0499 253.946 19.3175C251.127 18.7203 248.111 18.1251 245.238 18.6992C244.039 18.9388 242.287 19.4334 241.854 20.6623C249.143 21.9651 252.006 30.855 249.951 37.3811C248.842 40.9034 242.175 45.021 239.583 43.1693C237.941 41.9961 238.938 40.456 239.583 39.4393C240.819 37.4923 241.242 34.9913 238.955 33.6357C236.983 32.4666 234.91 35.243 234.87 35.2399C234.328 35.1978 229.645 32.5856 226.418 28.7737C223.234 28.9598 222.751 26.8898 223.512 25.1969C224.272 23.504 229.016 21.3735 231.574 20.9595Z" fill="#925B1C"/>
<path fill-rule="evenodd" clip-rule="evenodd" d="M244.977 115.275L225.186 182.532L215.877 233.029H206.533L215.86 115.275H244.977Z" fill="#D7AB81"/>
<path fill-rule="evenodd" clip-rule="evenodd" d="M253.871 115.275C252.49 150.215 253.035 169.272 253.344 172.446C253.653 175.62 255.408 196.881 267.365 234.095H257.647C241.812 198.394 236.284 177.134 234.468 172.446C232.652 167.758 227.288 148.701 219.457 115.275H253.871Z" fill="#EBB786"/>
<path fill-rule="evenodd" clip-rule="evenodd" d="M245.402 115.275C240.254 138.418 231.35 175.361 218.69 226.103H205.024C204.015 174.021 208.309 139.743 215.745 115.275H245.402Z" fill="#69A1AC"/>
<path fill-rule="evenodd" clip-rule="evenodd" d="M253.94 115.275C252.588 150.215 256.093 184.637 266.95 226.647H252.37C236.506 191.479 225.136 157.226 217.365 115.275H253.94Z" fill="#89C5CC"/>
<path fill-rule="evenodd" clip-rule="evenodd" d="M268.75 241.022L268.214 232.496C265.074 233.402 261.142 233.047 256.417 231.431C251.337 234.98 244.941 237.403 237.231 238.701C236.642 238.8 236.247 239.35 236.347 239.93C236.354 239.968 236.362 240.005 236.373 240.042L237.114 242.62H267.677L268.75 241.022Z" fill="#E4E4E4"/>
<path fill-rule="evenodd" clip-rule="evenodd" d="M217.962 241.022L217.426 232.496C214.287 233.402 210.355 233.047 205.63 231.431C200.549 234.98 194.154 237.403 186.443 238.701C185.855 238.8 185.459 239.35 185.56 239.93C185.566 239.968 185.575 240.005 185.585 240.042L186.327 242.62H216.89L217.962 241.022Z" fill="#E4E4E4"/>
<path fill-rule="evenodd" clip-rule="evenodd" d="M199.041 103.753L182.461 119.703C177.638 121.732 173.685 123.973 170.604 126.425C169.911 127.249 169.157 128.828 172.417 128.122C175.677 127.415 179.138 126.816 179.751 127.862C180.363 128.907 178.558 130.509 179.69 131.878C180.445 132.79 182.984 129.888 187.307 123.173L204.547 113.149L199.041 103.753ZM272.629 106.002L260.398 106.05C267.95 130.091 272.027 142.847 272.629 144.318C273.983 147.628 271.117 152.668 269.892 155.377C273.883 157.139 273.458 150.616 278.493 152.926C283.089 155.034 286.585 158.855 291.895 155.624C292.548 155.227 293.263 153.731 291.535 152.562C287.228 149.65 281.023 144.554 280.185 142.876C279.041 140.589 276.523 128.297 272.629 106.002Z" fill="#EBB786"/>
<path fill-rule="evenodd" clip-rule="evenodd" d="M237.872 55.3915L232.811 54.5355C224.098 76.0005 208.886 95.5042 187.175 113.047L203.581 132.703C225.29 107.725 238.671 81.9544 237.872 55.3915Z" fill="#D0C11B"/>
<path fill-rule="evenodd" clip-rule="evenodd" d="M259.933 118.111H214.868C225.309 93.0766 230.529 71.81 230.529 54.3115L244.123 52.314C254.807 69.2588 257.824 90.1212 259.933 118.111Z" fill="#DDE3E9"/>
<path fill-rule="evenodd" clip-rule="evenodd" d="M244.411 52.3235C244.409 52.3204 244.407 52.3172 244.406 52.314H243.518C242.456 52.3501 240.839 52.4151 238.666 52.5089L235.382 61.7663C235.034 73.0531 233.005 95.7991 229.294 130.004H258.835C258.758 132.367 258.63 134.751 258.452 137.158H280.417C277.132 100.602 265.133 72.321 244.422 52.314L244.411 52.3235Z" fill="#FFE900"/>
<path fill-rule="evenodd" clip-rule="evenodd" d="M256.884 99.7764C256.043 114.503 253.938 124.654 250.569 130.232H258.828C259.189 119.637 258.541 109.485 256.884 99.7764Z" fill="black" fill-opacity="0.1"/>
<path fill-rule="evenodd" clip-rule="evenodd" d="M252.26 112.34L237.694 105.661V112.34H252.26Z" fill="white" fill-opacity="0.2"/>
<path fill-rule="evenodd" clip-rule="evenodd" d="M379.954 220.24C382.332 217.063 383.824 213.268 383.239 209.171C381.554 197.366 364.994 201.13 362.162 207.342C359.329 213.554 360.793 228.715 365.078 229.495C366.787 229.806 370.29 228.514 373.776 226.099L372.622 242.197L386.112 241.267L379.954 220.24Z" fill="#EBB786"/>
<path fill-rule="evenodd" clip-rule="evenodd" d="M388.841 204.816C389.246 204.36 389.441 203.736 389.606 203.145C389.777 202.531 389.941 201.911 390.039 201.277C390.233 200.01 390.134 198.576 389.164 197.67C388.385 196.944 387.275 196.671 386.268 196.664C385.597 196.66 384.919 196.799 384.294 197.051C383.673 197.3 383.155 197.748 382.558 198.045C382.439 196.703 382.106 195.313 381.334 194.213C380.59 193.155 379.486 192.609 378.267 192.529C377.015 192.446 375.812 192.816 374.744 193.485C374.476 193.652 374.212 193.826 373.961 194.02C373.751 194.183 373.534 194.376 373.28 194.453C372.996 194.54 372.842 194.385 372.639 194.191C372.402 193.963 372.139 193.765 371.864 193.593C370.645 192.833 369.1 192.593 367.793 193.189C367.191 193.464 366.618 193.899 366.236 194.471C365.897 194.981 365.684 195.767 365.192 196.14C364.983 196.298 364.815 196.119 364.605 195.992C364.291 195.802 363.988 195.59 363.671 195.406C363.224 195.147 362.748 194.964 362.246 194.885C361.511 194.77 360.514 194.878 360.374 195.826C360.321 196.182 360.407 196.553 360.457 196.905C360.526 197.388 360.597 197.871 360.674 198.352C360.732 198.718 360.798 199.071 360.895 199.427C360.946 199.617 361.089 199.968 361.019 200.167C360.931 200.415 360.438 200.311 360.233 200.334C359.826 200.379 359.422 200.477 359.057 200.675C358.774 200.828 358.481 201.045 358.381 201.384C358.32 201.592 358.355 201.799 358.405 202.005C358.466 202.253 358.426 202.389 358.412 202.644C357.846 202.416 355.907 201.956 355.737 202.94C355.68 203.268 355.887 203.619 356.044 203.881C356.32 204.341 356.668 204.755 357.022 205.148C357.761 205.968 358.622 206.66 359.537 207.239C358.55 207.756 358.378 209.092 359.315 209.816C359.729 210.136 360.259 210.177 360.748 210.121C360.928 210.1 361.182 210.014 361.326 210.035C361.403 210.047 361.489 210.105 361.595 210.105C362.292 210.104 363.063 209.885 363.73 209.686C364.919 209.333 366.022 208.689 366.895 207.766C367.119 207.529 367.308 207.388 367.631 207.369C367.913 207.352 368.196 207.41 368.479 207.397C369.227 207.365 369.875 206.958 370.551 206.671C370.659 207.592 370.998 208.591 371.44 209.396C371.801 210.052 372.461 210.105 373.106 210.121C375.171 210.17 377.214 209.815 379.267 209.676C377.311 210.257 375.27 210.581 373.337 211.238C372.463 211.535 373.185 212.08 373.595 212.464C374.27 213.097 374.795 213.902 375.181 214.762C376.065 213.444 377.725 212.502 379.275 212.781C380.988 213.09 382.331 215.252 381.37 216.939C380.812 217.918 379.709 218.358 378.799 218.825C379.585 219.525 379.84 220.622 380.347 221.525C380.597 221.971 380.939 222.47 381.437 222.597C381.621 222.644 381.832 222.635 381.984 222.77C382.173 222.937 382.229 223.134 382.464 223.272C383.403 223.824 384.799 223.681 385.536 222.825C386.202 222.05 385.934 220.917 385.282 220.223C386.209 219.765 387.912 219.141 387.429 217.701C389.487 217.423 394.273 213.769 391.326 211.543C392.789 210.589 394.042 208.418 392.934 206.657C392.08 205.3 390.284 204.792 388.841 204.816Z" fill="#8A6347"/>
<path fill-rule="evenodd" clip-rule="evenodd" d="M397.616 289.277L355.757 358.748L324.375 417.48H317.616L370.197 289.277H397.616Z" fill="#D7AB81"/>
<path fill-rule="evenodd" clip-rule="evenodd" d="M328.06 414.38C328.69 416.04 329.005 417.281 329.005 418.105C329.005 419.107 328.836 420.57 328.498 422.492C327.319 422.492 316.725 422.492 296.717 422.492C295.891 419.799 296.368 418.346 298.147 418.131C299.926 417.917 301.405 417.723 302.582 417.55L317.353 411.056C317.637 410.931 317.97 411.056 318.097 411.337C318.099 411.342 318.101 411.346 318.103 411.351L319.053 413.623C320.7 414.381 322.038 414.76 323.068 414.76C323.905 414.76 325.061 414.426 326.535 413.76C327.101 413.504 327.77 413.749 328.029 414.307C328.04 414.331 328.05 414.355 328.06 414.38Z" fill="#E4E4E4"/>
<path fill-rule="evenodd" clip-rule="evenodd" d="M332.725 407.618L319.616 403.718C325.359 386.835 332.399 368.255 340.734 347.978C349.07 327.702 358.022 308.135 367.59 289.277H404.616C393.978 313.131 382.7 334.806 370.782 354.302C358.865 373.797 346.179 391.569 332.725 407.618Z" fill="#5C63AB"/>
<path fill-rule="evenodd" clip-rule="evenodd" d="M399.972 289.277C403.897 313.743 411.466 345.001 412.181 345.966C412.657 346.609 429.802 352.363 463.616 363.227L462.165 369.157C421.842 363.331 400.596 358.81 398.425 355.596C395.169 350.774 378.912 312.683 372.616 289.277H399.972Z" fill="#EBB786"/>
<path fill-rule="evenodd" clip-rule="evenodd" d="M451.616 357.552L449.068 367.027C418.998 369.655 400.574 367.756 393.794 361.33C387.015 354.904 379.289 330.887 370.616 289.277H405.389C410.884 323.35 413.956 341.101 414.605 342.532C415.254 343.962 427.591 348.969 451.616 357.552Z" fill="#8991DC"/>
<path fill-rule="evenodd" clip-rule="evenodd" d="M462.351 360.555C464.118 360.231 465.412 360.141 466.235 360.284C467.236 360.458 468.667 360.876 470.528 361.539C470.323 362.684 468.483 372.972 465.009 392.404C462.177 392.739 460.808 392.023 460.903 390.258C460.997 388.492 461.06 387.023 461.092 385.85L457.172 370.377C457.096 370.079 457.28 369.777 457.582 369.703C457.587 369.702 457.592 369.7 457.597 369.699L460.031 369.172C461.073 367.703 461.684 366.469 461.863 365.469C462.008 364.656 461.876 363.476 461.467 361.929C461.31 361.335 461.67 360.728 462.273 360.573C462.299 360.566 462.325 360.56 462.351 360.555Z" fill="#E4E4E4"/>
<path fill-rule="evenodd" clip-rule="evenodd" d="M346.374 264.981L323.952 257.521C318.926 257.052 314.019 258.406 310.269 259.084C309.299 259.467 307.925 260.461 311.012 261.341C314.1 262.221 317.307 263.283 317.338 264.445C317.369 265.608 315.095 266.145 315.415 267.815C315.629 268.929 319.129 267.625 325.916 263.903L344.892 274.053L346.374 264.981ZM422.998 275.823L413.075 274.053C415.853 299.143 417.396 312.436 417.703 313.933C418.396 317.301 414.785 321.576 413.142 323.928C416.607 326.287 417.366 320.038 421.721 323.097C425.696 325.89 428.325 330.112 433.927 327.973C434.616 327.71 435.559 326.418 434.131 325.013C430.574 321.51 425.607 315.611 425.112 313.878C424.438 311.514 423.733 298.829 422.998 275.823Z" fill="#EBB786"/>
<path fill-rule="evenodd" clip-rule="evenodd" d="M388.206 241.092L373.348 234.431C363.557 252.491 362.333 266.944 338.146 252.703L324.834 275.682C347.725 288.292 365.824 285.165 380.642 261.073C384.478 254.836 386 246.946 388.206 241.092Z" fill="#D0C11B"/>
<path fill-rule="evenodd" clip-rule="evenodd" d="M406.052 293.896C388.718 297.98 374.884 299.695 364.549 299.042C363.268 298.962 362.645 293.639 363.04 292.115C369.188 268.388 375.891 250.406 373.889 234.703C375.654 235.351 375.697 235.815 379.764 234.703C392.96 249.505 400.445 267.438 406.052 293.896Z" fill="#DDE3E9"/>
<path fill-rule="evenodd" clip-rule="evenodd" d="M386.975 229.717L373.392 234.427C376.113 258.081 370.209 274.028 368.291 291.858L405.954 287.644C407.176 293.594 408.212 299.734 409.112 306.059L437.313 302.904C427.065 270.087 410.592 245.654 387.895 229.605L386.981 229.707L386.975 229.717Z" fill="#FFE900"/>
<path fill-rule="evenodd" clip-rule="evenodd" d="M379.826 252.153C380.803 266.987 380.228 278.308 378.103 286.115H385.806C384.749 274.134 382.882 262.813 379.826 252.153Z" fill="black" fill-opacity="0.1"/>
<path fill-rule="evenodd" clip-rule="evenodd" d="M213.286 305.015C215.775 302.133 217.46 298.601 217.179 294.643C216.368 283.241 200.272 285.749 197.141 291.504C194.01 297.259 194.382 311.857 198.429 312.886C200.042 313.296 203.48 312.291 206.979 310.212L204.783 325.534H217.75L213.286 305.015Z" fill="#E7B485"/>
<path fill-rule="evenodd" clip-rule="evenodd" d="M206.33 295.903C205.834 302.721 204.521 306.131 202.391 306.131C199.197 306.131 196.486 304.131 195.085 304.131C194.063 304.131 194.291 305.392 194.968 306.327C195.527 307.098 198.248 307.841 198.248 309.037C198.248 310.233 196.098 309.308 196.098 310.017C196.098 311.19 195.721 313.396 197.785 313.396C199.875 313.396 205.866 312.645 206.893 309.587C207.556 307.613 207.984 303.523 208.178 297.316C208.305 297.301 208.434 297.294 208.565 297.294C210.355 297.294 211.807 298.725 211.807 300.491C211.807 301.387 211.432 302.197 210.83 302.778C211.58 303.822 212.421 304.913 213.384 306.038C217.003 303.897 219.116 297.294 216.616 291.249C215.116 288.29 212.958 287.082 210.344 286.351C208.226 285.477 206.027 285.379 204.171 285.902C200.533 286.21 197.284 287.304 196.363 287.954C196.363 291.351 197.031 292.359 202.731 292.27C204.132 292.999 205.209 294.256 206.33 295.903Z" fill="#2D2D40"/>
<path fill-rule="evenodd" clip-rule="evenodd" d="M221.616 370.143L202.162 437.703L187.968 487.498H177.616L192.699 370.143H221.616Z" fill="#69A1AC"/>
<path fill-rule="evenodd" clip-rule="evenodd" d="M227.344 370.143C227.801 404.964 229.36 423.957 229.84 427.12C230.32 430.284 237.579 450.41 251.616 487.498H240.719C222.849 451.918 212.873 431.792 210.792 427.12C208.711 422.448 202.289 403.456 192.616 370.143H227.344Z" fill="#89C5CC"/>
<path fill-rule="evenodd" clip-rule="evenodd" d="M177.67 364.294L160.435 376.774C155.761 378.018 151.856 379.566 148.719 381.417C147.979 382.083 147.083 383.431 150.156 383.198C153.228 382.965 156.47 382.856 156.894 383.89C157.318 384.923 155.459 386.159 156.316 387.553C156.887 388.483 159.586 386.152 164.413 380.56L181.479 373.581L177.67 364.294ZM243.841 364.724L232.55 364.768C239.522 386.962 243.285 398.738 243.841 400.096C245.091 403.152 242.446 407.805 241.314 410.306C244.999 411.932 244.606 405.91 249.255 408.043C253.497 409.989 256.725 413.516 261.627 410.534C262.229 410.167 262.89 408.786 261.294 407.707C257.319 405.019 251.59 400.314 250.816 398.766C249.761 396.654 247.436 385.307 243.841 364.724Z" fill="#E7B485"/>
<path fill-rule="evenodd" clip-rule="evenodd" d="M211.755 318.002L207.083 317.212C189.748 331.979 182.628 360.349 161.381 375.378L166.495 381.63C203.356 377.129 212.492 342.524 211.755 318.002Z" fill="#D0C11B"/>
<path fill-rule="evenodd" clip-rule="evenodd" d="M232.121 375.903C213.388 375.903 199.608 375.903 190.782 375.903C188.893 375.903 189.249 373.213 189.522 371.856C192.674 356.191 204.976 339.304 204.976 317.005L216.9 315.161C226.763 330.804 230.173 350.063 232.121 375.903Z" fill="#DDE3E9"/>
<path fill-rule="evenodd" clip-rule="evenodd" d="M231.789 330.537C233.52 330.046 234.892 328.901 235.903 327.102C240.261 319.347 238.687 315.077 234.03 313.674C229.372 312.27 225.218 315.161 217.798 315.161C217.394 315.161 217.024 315.186 216.689 315.236L212.956 315.446C202.246 351.241 199.292 375.124 204.095 387.092H236.631C238.559 391.525 240.404 395.255 242.165 398.282H251.031C251.865 371.676 245.451 349.095 231.789 330.537Z" fill="#FFE900"/>
<path fill-rule="evenodd" clip-rule="evenodd" d="M229.546 368.709C228.523 377.152 226.86 383.28 224.557 387.092L236.631 387.092C234.383 381.921 232.021 375.793 229.546 368.709Z" fill="black" fill-opacity="0.1"/>
<path fill-rule="evenodd" clip-rule="evenodd" d="M188.443 486.494C189.048 488.086 189.35 489.276 189.35 490.066C189.35 491.027 189.188 492.429 188.863 494.273C187.733 494.273 177.575 494.273 158.389 494.273C157.598 491.691 158.055 490.297 159.761 490.091C161.467 489.885 162.884 489.699 164.013 489.534L178.177 483.307C178.449 483.187 178.769 483.307 178.89 483.576C178.892 483.581 178.894 483.585 178.896 483.59L179.807 485.768C181.386 486.495 182.669 486.858 183.657 486.858C184.459 486.858 185.567 486.539 186.981 485.9C187.523 485.654 188.165 485.889 188.414 486.424C188.424 486.447 188.434 486.471 188.443 486.494Z" fill="#E4E4E4"/>
<path fill-rule="evenodd" clip-rule="evenodd" d="M252.738 486.494C253.342 488.086 253.645 489.276 253.645 490.066C253.645 491.027 253.482 492.429 253.158 494.273C252.027 494.273 241.869 494.273 222.684 494.273C221.892 491.691 222.349 490.297 224.055 490.091C225.762 489.885 227.179 489.699 228.307 489.533L238.786 483.527C238.786 483.527 239.327 483.26 240.677 483.59L244.101 485.768C245.681 486.495 246.964 486.858 247.952 486.858C248.754 486.858 249.862 486.539 251.276 485.899C251.818 485.654 252.46 485.889 252.708 486.424C252.719 486.447 252.729 486.471 252.738 486.494Z" fill="#E4E4E4"/>
<path fill-rule="evenodd" clip-rule="evenodd" d="M55.6306 128.051C53.7708 134.827 51.3471 150.056 53.8203 152.445H69.4669C69.4685 152.417 69.47 152.39 69.4716 152.362C75.2709 151.728 79.7813 146.867 79.7813 140.965V129.763C79.7813 123.43 74.5878 118.295 68.1813 118.295H67.1022C61.2842 118.295 56.4666 122.53 55.6306 128.051Z" fill="#DE7800"/>
<path fill-rule="evenodd" clip-rule="evenodd" d="M73.7049 138.826C76.191 135.941 77.8737 132.405 77.5925 128.443C76.7824 117.029 60.7095 119.54 57.583 125.301C54.4565 131.062 54.828 145.676 58.8687 146.706C60.4802 147.116 63.913 146.111 67.4069 144.029L65.2138 159.367H78.1627L73.7049 138.826Z" fill="#EBB786"/>
<path fill-rule="evenodd" clip-rule="evenodd" d="M70.2046 136.897C69.608 143.233 69.847 150.468 71.625 152.186H87.2716C88.1433 137.211 79.718 143.01 79.718 128.911C79.1928 128.404 78.6964 127.902 78.2053 127.469L78.2227 127.054C75.5133 121.571 72.076 118.829 67.9108 118.829C61.6629 118.829 59.6908 121.703 58.0117 124.143C59.2673 128.402 64.1399 129.034 68.4695 131.689C68.9799 131.279 69.6306 131.033 70.3394 131.033C71.9783 131.033 73.3069 132.347 73.3069 133.967C73.3069 135.587 71.9783 136.9 70.3394 136.9C70.2942 136.9 70.2493 136.899 70.2046 136.897Z" fill="#DE7800"/>
<path fill-rule="evenodd" clip-rule="evenodd" d="M31.5548 190.51L11.7303 182.285C8.22758 178.931 4.85625 176.396 1.61623 174.679C0.650955 174.393 -0.991501 174.333 0.799088 176.844C2.58966 179.354 4.35931 182.076 3.67366 182.981C2.98802 183.887 0.946106 182.941 0.168152 184.407C-0.350494 185.384 3.08357 186.475 10.4704 187.679L25.3929 198.646L31.5548 190.51Z" fill="#EBB786"/>
<path fill-rule="evenodd" clip-rule="evenodd" d="M92.5547 220.593C91.5818 233.72 28.9096 272.367 28.5439 273.451C28.3814 273.933 34.8839 289.167 48.0515 319.153L42.5729 321.258C22.3762 289.5 12.7965 271.93 13.8339 268.546C15.3191 263.701 31.528 247.763 62.4605 220.733L92.5547 220.593Z" fill="#D7AB81"/>
<path fill-rule="evenodd" clip-rule="evenodd" d="M46.6097 312.381L37.6652 315.6C18.8044 294.562 11.4115 277.203 12.7594 268.359C13.6581 262.462 29.8111 246.551 61.2183 220.626L93.1961 220.626C92.105 251.025 34.0156 273.567 33.2387 274.862C32.4617 276.157 40.108 288.845 46.6097 312.381Z" fill="#2F3676"/>
<path fill-rule="evenodd" clip-rule="evenodd" d="M50.0671 318.119C51.1854 319.412 51.8814 320.43 52.155 321.173C52.4878 322.077 52.821 323.451 53.1548 325.294C52.0942 325.676 42.5624 329.106 24.5592 335.584C22.922 333.422 22.8682 331.957 24.3979 331.187C25.9277 330.417 27.1933 329.764 28.1948 329.227L39.3292 318.587C39.5434 318.382 39.885 318.388 40.0921 318.6C40.0956 318.603 40.0991 318.607 40.1025 318.611L41.7112 320.352C43.445 320.502 44.7752 320.411 45.7019 320.077C46.4547 319.806 47.3838 319.132 48.489 318.053C48.9131 317.639 49.5964 317.644 50.015 318.063C50.0331 318.081 50.0504 318.1 50.0671 318.119Z" fill="#E4E4E4"/>
<path fill-rule="evenodd" clip-rule="evenodd" d="M85.3487 220.594L113.268 286.855L140.707 342.874H134.233L63.4037 220.594H85.3487Z" fill="#EBB786"/>
<path fill-rule="evenodd" clip-rule="evenodd" d="M141.095 340.288C141.698 341.881 142 343.073 142 343.864C142 344.826 141.838 346.229 141.514 348.075C140.385 348.075 130.241 348.075 111.083 348.075C110.292 345.49 110.749 344.095 112.452 343.889C114.156 343.683 115.572 343.497 116.698 343.331L130.842 337.097C131.115 336.977 131.434 337.098 131.555 337.367C131.557 337.371 131.559 337.376 131.561 337.381L132.47 339.561C134.047 340.289 135.329 340.652 136.315 340.652C137.116 340.652 138.223 340.332 139.634 339.693C140.176 339.447 140.817 339.682 141.065 340.218C141.076 340.241 141.086 340.264 141.095 340.288Z" fill="#E4E4E4"/>
<path fill-rule="evenodd" clip-rule="evenodd" d="M138.229 331.237L123.844 333.904C112.722 317.738 66.1731 251.451 61.0695 220.594H93.0942C110.138 242.901 127.627 314.803 138.229 331.237Z" fill="#5C63AB"/>
<path fill-rule="evenodd" clip-rule="evenodd" d="M55.2892 185.717C48.3399 187.424 36.6864 185.41 20.3286 179.677C16.2711 187.945 14.3955 193.839 14.7016 197.36C28.7342 204.58 40.7614 207.799 50.6701 208.012C50.3552 213.803 51.0709 219.313 53.4749 224.348C58.4173 234.699 87.3573 225.113 97.0878 227C103.181 207.508 91.3993 199.586 91.3898 187.114C91.3794 173.456 80.2451 152.433 78.6069 152.433H63.6674C62.8431 162.864 58.6942 174.359 55.2892 185.717Z" fill="#FFE900"/>
</svg>
