<svg width="25" height="25" viewBox="0 0 25 25" fill="none" xmlns="http://www.w3.org/2000/svg">
<path d="M25 12.4506C25 15.7528 23.683 18.9196 21.3388 21.2546C18.9946 23.5895 15.8152 24.9013 12.5 24.9013C9.18479 24.9013 6.00537 23.5895 3.66117 21.2546C1.31696 18.9196 0 15.7528 0 12.4506C0 9.14853 1.31696 5.98166 3.66117 3.64671C6.00537 1.31176 9.18479 0 12.5 0C15.8152 0 18.9946 1.31176 21.3388 3.64671C23.683 5.98166 25 9.14853 25 12.4506ZM12.9484 9.19169C11.7328 9.69594 9.30156 10.7387 5.65781 12.3199C5.06719 12.5534 4.75625 12.7837 4.72813 13.0078C4.68125 13.386 5.15781 13.5354 5.80625 13.7393L6.07969 13.8249C6.71719 14.0319 7.57656 14.2731 8.02187 14.2824C8.42812 14.2918 8.87969 14.1268 9.37813 13.7844C12.7828 11.4951 14.5406 10.3387 14.65 10.3138C14.7281 10.2951 14.8375 10.2733 14.9094 10.3387C14.9828 10.4025 14.975 10.5255 14.9672 10.5581C14.9203 10.7589 13.05 12.4895 12.0828 13.386C11.7812 13.6661 11.5672 13.8638 11.5234 13.9089C11.4271 14.007 11.3292 14.1035 11.2297 14.1984C10.6359 14.768 10.1922 15.1945 11.2531 15.8917C11.7641 16.2279 12.1734 16.5033 12.5813 16.7804C13.025 17.0823 13.4688 17.3827 14.0437 17.7593C14.1891 17.8527 14.3297 17.9538 14.4656 18.0503C14.9828 18.4176 15.45 18.7476 16.0234 18.6946C16.3578 18.6635 16.7031 18.3522 16.8781 17.4184C17.2922 15.2131 18.1063 10.4368 18.2938 8.46799C18.3052 8.30433 18.2984 8.13991 18.2734 7.97775C18.2587 7.84689 18.1951 7.72634 18.0953 7.64002C17.9531 7.54227 17.7837 7.49163 17.6109 7.49529C17.1422 7.50307 16.4187 7.75364 12.9484 9.19169Z" fill="#FFFAFF"/>
</svg>
